<?xml version="1.0" encoding="UTF-8"?>
<!DOCTYPE svg PUBLIC "-//W3C//DTD SVG 1.1//EN" "http://www.w3.org/Graphics/SVG/1.1/DTD/svg11.dtd">
<!-- Creator: CorelDRAW 2020 (64 Bit) -->
<svg xmlns="http://www.w3.org/2000/svg" xml:space="preserve" width="174.632mm" height="124.16mm" version="1.1" shape-rendering="geometricPrecision" text-rendering="geometricPrecision" image-rendering="optimizeQuality" fill-rule="evenodd" clip-rule="evenodd"
viewBox="0 0 17463.92 12416.55"
 xmlns:xlink="http://www.w3.org/1999/xlink"
 xmlns:xodm="http://www.corel.com/coreldraw/odm/2003">
 <g id="Camada_x0020_1">
  <metadata id="CorelCorpID_0Corel-Layer"/>
  <path fill="#FFF0D9" d="M8529.53 0c3779.21,0 6842.9,3063.68 6842.9,6842.9 0,1414.45 -429.28,2728.67 -1164.47,3819.51l-11356.83 0c-735.28,-1090.83 -1164.49,-2405.06 -1164.49,-3819.51 0,-3779.21 3063.67,-6842.9 6842.89,-6842.9z"/>
  <path fill="#815769" d="M14370.63 3087.11l700.01 0c1277.14,0 2133.55,1044.93 1903.14,2322.04l-720.75 3995.58c-9.56,52.95 -60.68,96.38 -113.74,96.38l-4451.32 0c-53.06,0 -88.62,-43.43 -79.02,-96.38l847.01 -4695.56c160.99,-892.18 1022.5,-1622.07 1914.68,-1622.07z"/>
  <path fill="#996C80" d="M14297.32 3087.11l0.07 0c1277.14,0 2133.55,1044.93 1903.14,2322.04l-720.68 3995.58c-9.63,52.95 -60.75,96.38 -113.74,96.38l-4451.46 0c-52.91,0 -88.54,-43.43 -78.88,-96.38l720.65 -3995.58c230.45,-1277.11 1463.84,-2322.04 2740.91,-2322.04z"/>
  <path fill="#E58876" d="M13845.08 9149.2c378.09,0 737.72,-162.96 986.93,-447.23 249.22,-284.25 363.69,-662.16 314.2,-1036.96l-183.07 -2110.66c-31.96,-368.1 -243.71,-696.62 -565.7,-877.71 -322.06,-181.09 -712.78,-191.4 -1043.91,-27.48l-626.42 269.07 -1108.41 38.49 -510.73 -192.74c-715.22,-269.81 -1523.01,-53.44 -2007.46,537.94l-1539.26 2064.25c-262.23,351.66 -294.55,824.16 -82.84,1208.21 211.75,384.06 628.58,608.88 1065.86,574.8l5300.81 0z"/>
  <path fill="#E58876" d="M14105.26 5059.71l-561.64 -727.42c-128.42,-166.27 -314.94,-250.59 -524.71,-237.08l-1653.15 106.37c-229.46,14.74 -421.41,113.13 -567.57,290.62l-846.84 1028.99 2756.83 361.82 1397.09 -823.31z"/>
  <polygon fill="#FCCEB0" points="10834.18,2793.02 12505.46,2793.02 12893.03,4267.05 11816.6,4721.1 11248.5,4368.8 "/>
  <path fill="#F8AB8C" d="M10834.18 2793.02l1046.3 0c222.23,200.67 363.2,499.76 363.2,833.92 0,438.49 -242.69,816.68 -593.08,991.24l-402.11 -249.39 -414.32 -1575.77z"/>
  <path fill="#FCCEB0" d="M10532.79 1420.02l2117.07 0 -196.08 1687.45c-67.67,582.21 -599.32,1058.55 -1181.51,1058.55l0 0c-582.24,0 -1003.12,-476.34 -935.53,-1058.55l196.05 -1687.45z"/>
  <path fill="#FCCEB0" d="M351.82 9149.2l16760.25 0c193.47,0 351.84,158.41 351.84,351.84l0 0.07c0,193.44 -158.38,351.76 -351.84,351.76l-16760.25 0c-193.52,0 -351.82,-158.33 -351.82,-351.76l0 -0.07c0,-193.44 158.31,-351.84 351.82,-351.84z"/>
  <polygon fill="#F8AB8C" points="703.57,12416.55 16355.51,12416.55 16355.51,9852.88 703.57,9852.88 "/>
  <polygon fill="#E58876" points="703.57,10402.21 16355.51,11471.96 16355.51,9852.88 703.57,9852.88 "/>
  <path fill="#FEFEFE" d="M11080.64 3646.28l-38.67 0c-178.8,0 -324.53,-145.77 -324.53,-324.49l0 -104.67 687.74 0 0 104.67c0,178.73 -145.82,324.49 -324.53,324.49z"/>
  <polygon fill="#E58876" points="11877.66,12416.55 16355.51,12416.55 16355.51,9852.88 11877.66,9852.88 "/>
  <path fill="#FCCEB0" d="M10005.05 6256.87l0 993.25 -224.17 27.97c-196.15,24.52 -369.52,139.5 -468.33,310.67 -98.81,171.25 -111.76,378.8 -34.86,560.94l-358.39 -486.4c-213.23,-289.43 -234.82,-677.71 -55.04,-989.19 179.75,-311.34 526.83,-486.78 884.18,-446.81l256.62 29.56z"/>
  <path fill="#FCCEB0" d="M11607.35 6683.79c390.2,-318.57 842.43,-478.78 1300.78,-460.75l-15.1 1333.62 -455.53 305.76c-426.24,286.11 -930.13,286.11 -1356.38,0 0,-614.99 217.74,-928.16 526.22,-1178.64z"/>
  <path fill="#564F4C" d="M10434.78 2263.76l-170.72 -989.44c-52.99,-307.07 91.08,-614.6 360.97,-770.36 269.81,-155.83 608.14,-126.87 847.58,72.53l993.67 201.48c120.26,24.38 214.18,118.33 238.56,238.53l98.81 60.25c153.58,93.7 206.56,291.51 120.37,449.5l-288.3 1762.19 -205.47 -49.6c-141.97,-34.25 -252.88,-145.14 -287.2,-287.17l29.28 -641.27 -454.15 -9.67 20.46 -554.16 -248.93 57.82c-329.51,76.55 -672.04,77.4 -1001.9,2.5l-53.05 456.87z"/>
  <path fill="#FCCEB0" d="M12330.51 1990.95c187.26,31.64 304.28,263.21 261.34,517.29 -42.93,254.08 -229.45,434.47 -416.68,402.82 -187.27,-31.6 -304.28,-263.18 -261.35,-517.33 42.93,-254.08 229.46,-434.39 416.69,-402.78z"/>
  <path fill="#564F4C" d="M3255.62 6327.01l2847.51 0c235.98,0 478.77,193.09 539.63,429.03l505.83 1964.1c60.75,236.09 -82.55,429.07 -318.46,429.07l-2847.6 0c-235.88,0 -478.74,-192.98 -539.55,-429.07l-505.9 -1964.1c-60.73,-235.94 82.54,-429.03 318.54,-429.03z"/>
  <path fill="#413E3B" d="M6895.67 7738.17l252.92 981.96c60.75,236.09 -82.55,429.07 -318.46,429.07l-2847.6 0c-235.88,0 -478.74,-192.98 -539.55,-429.07l-252.91 -981.96 3705.6 0z"/>
  <path fill="#817570" d="M3190.07 7738.17l3705.6 0 -298.46 811.74c-121.25,329.61 -490.06,599.28 -819.74,599.28l-2506.96 0c-329.59,0 -500.13,-269.67 -378.94,-599.28l298.5 -811.74z"/>
 </g>
</svg>
