<?xml version="1.0" encoding="UTF-8"?>
<!DOCTYPE svg PUBLIC "-//W3C//DTD SVG 1.1//EN" "http://www.w3.org/Graphics/SVG/1.1/DTD/svg11.dtd">
<!-- Creator: CorelDRAW 2020 (64 Bit) -->
<svg xmlns="http://www.w3.org/2000/svg" xml:space="preserve" width="210mm" height="64.7778mm" version="1.1" style="shape-rendering:geometricPrecision; text-rendering:geometricPrecision; image-rendering:optimizeQuality; fill-rule:evenodd; clip-rule:evenodd"
viewBox="0 0 2219.09 684.51"
 xmlns:xlink="http://www.w3.org/1999/xlink"
 xmlns:xodm="http://www.corel.com/coreldraw/odm/2003">
 <defs>
  <style type="text/css">
   <![CDATA[
    .fil25 {fill:#4D4D4D}
    .fil22 {fill:gray}
    .fil24 {fill:#E6E6E6}
    .fil23 {fill:white}
    .fil12 {fill:#606062;fill-rule:nonzero}
    .fil7 {fill:#4B4B4D;fill-rule:nonzero}
    .fil19 {fill:#F8AC92;fill-rule:nonzero}
    .fil28 {fill:#A45E4D;fill-rule:nonzero}
    .fil8 {fill:#EC268F;fill-rule:nonzero}
    .fil9 {fill:#A8518A;fill-rule:nonzero}
    .fil20 {fill:#3E4095;fill-rule:nonzero}
    .fil5 {fill:#1A1A1A;fill-rule:nonzero}
    .fil2 {fill:#4D4D4D;fill-rule:nonzero}
    .fil6 {fill:gray;fill-rule:nonzero}
    .fil15 {fill:#B3B3B3;fill-rule:nonzero}
    .fil27 {fill:#CFFDFF;fill-rule:nonzero}
    .fil0 {fill:#E6E6E6;fill-rule:nonzero}
    .fil21 {fill:#ED8A72;fill-rule:nonzero}
    .fil18 {fill:#F0F2FC;fill-rule:nonzero}
    .fil13 {fill:#FF8A80;fill-rule:nonzero}
    .fil1 {fill:#FF9580;fill-rule:nonzero}
    .fil14 {fill:#FFAA8D;fill-rule:nonzero}
    .fil16 {fill:#FFAC83;fill-rule:nonzero}
    .fil3 {fill:#FFAD86;fill-rule:nonzero}
    .fil10 {fill:#FFBD83;fill-rule:nonzero}
    .fil17 {fill:#FFC49D;fill-rule:nonzero}
    .fil11 {fill:#FFD19D;fill-rule:nonzero}
    .fil4 {fill:white;fill-rule:nonzero}
    .fil26 {fill:white;fill-rule:nonzero;fill-opacity:0.619608}
   ]]>
  </style>
 </defs>
 <g id="Camada_x0020_1">
  <metadata id="CorelCorpID_0Corel-Layer"/>
  <path class="fil0" d="M1928.89 300.87c-1.44,-3.87 -12.64,-45.92 -62.73,-75.64 -50.1,-29.73 -115.71,-27.21 -197.69,70.87l-12.41 316.82c0,0 103.25,40.74 225.26,27.43 0,0 54.23,-10.57 59.18,-37.91l-11.6 -301.58z"/>
  <path class="fil1" d="M1801.58 221.49c-11.33,44.48 9.53,57.43 28.65,57.61 15.92,0.18 30.67,-4.32 24.51,-46.19 -4.68,-31.75 -6.07,-100.91 17.9,-117.51 23.97,-16.59 -66.96,5.98 -66.96,5.98 0,0 -0.18,84.82 -4.09,100.11z"/>
  <path class="fil2" d="M1906.95 135.6c0,0 34.4,-7.51 30.44,-34.99 -3.91,-27.52 5.4,-13.36 13.13,-25.32 7.74,-11.96 -7.06,-32.24 -22.35,-28.78 -15.29,3.46 12.19,-17.9 3.37,-26.58 -8.81,-8.68 -43.62,-17.45 -49.83,2.29 -6.21,19.74 -54.01,-32.78 -66.6,-2.02 -12.59,30.81 -6.93,25.05 -21.14,29.73 -14.21,4.68 -3.78,29.77 -3.78,29.77 0,0 -22.22,11.2 -11.11,39.62 11.11,28.42 127.85,16.28 127.85,16.28z"/>
  <path class="fil3" d="M1823.98 125.57c0,0 19.56,-66.11 65.88,-50.5 46.32,15.6 27.48,56.44 27.48,56.44l-37.78 82.7 -32.92 -4.18 -41.96 -39.93 3.51 -27.66c-1.17,0.4 -6.3,-9.58 -7.56,-18.8 -0.58,-4.27 -0.31,-8.32 1.53,-11.15 2.88,-4.27 18.71,-11.06 21.81,13.09z"/>
  <path class="fil2" d="M1825.28 115.5c-0.4,3.19 -5.4,42.5 -5.4,42.5l22.49 27.7c0,0 10.16,-31.12 38.86,-23.12 28.69,7.96 19.25,24.06 19.25,24.06 0,0 8.54,20.55 2.7,27.34 -5.8,6.84 2.65,8.99 -1.17,19.29 -3.82,10.3 -17.63,11.78 -20.73,11.96 -3.1,0.14 -9.94,10.07 -21.32,-2.7 0,0 -35.21,-0.72 -38,-22.67 -2.79,-21.95 -14.17,-15.29 -15.38,-20.33 -1.21,-5.04 2.83,-22.17 2.83,-22.17 0,0 -14.75,-10.66 -5.67,-18.71 9.08,-8 14.84,-53.2 14.84,-53.2l6.7 10.03z"/>
  <path class="fil4" d="M1877.9 178.91c-1.84,-0.23 -15.87,3.15 -18.62,0.23 0,0 5.04,13.4 24.15,14.53 4.45,0.27 5.71,-10.75 5.71,-10.75l-11.24 -4z"/>
  <path class="fil0" d="M1867.96 33.24c9.89,-2.2 11.47,-7.42 12.23,-8.28 -48.97,-12.28 -68.22,32.11 -73.57,67.05l19.11 6.43c-0.27,-16.91 11.78,-69.7 42.23,-65.21z"/>
  <path class="fil5" d="M1813.72 89.05c-12.28,-1.62 -20.73,14.53 -20.73,14.53l-3.6 16.86c-5.04,16.5 9.89,25.72 9.89,25.72 27.21,9.35 41.82,-44.79 21.45,-54.77 -0.05,0 -5.17,-2.11 -7.02,-2.34z"/>
  <ellipse class="fil6" transform="matrix(0.9479 0.3187 -0.3187 0.9479 1805.68 116.598)" rx="16.77" ry="22.98"/>
  <ellipse class="fil0" transform="matrix(0.9479 0.3187 -0.3187 0.9479 1802.62 115.57)" rx="12.01" ry="16.41"/>
  <path class="fil5" d="M1914.19 181.42c0,0 3.51,-9.22 -8.99,-22.98 0,0 0.27,-2.56 3.51,-0.23 3.24,2.34 15.74,20.42 8.18,26.85 0,0 1.26,2.52 -2.56,5.53 -3.87,3.01 -6.3,1.62 -6.3,1.62 0,0 -4.36,-1.98 -3.82,-5.98 0.49,-4 3.06,-4.45 3.06,-4.45l6.93 -0.36z"/>
  <polygon class="fil7" points="1824.88,314.36 1850.2,312.56 1850.2,391.08 1859.28,448.19 1871.2,502.56 1820.74,500.49 1817.14,404.84 "/>
  <polygon class="fil2" points="1833.42,285.8 1817.14,297.81 1824.88,307.75 1850.15,305.72 1852.94,295.02 1837.51,282.79 "/>
  <path class="fil5" d="M1502.84 164.47c-7.69,36.97 -6.88,72.63 2.38,106.99l-95.92 -25.41 13.45 -72.58 80.09 -8.99z"/>
  <polygon class="fil8" points="1530.18,277.08 1447.44,244.43 1497.89,416.22 1503.02,596.55 1525.77,594.17 1540.71,473.02 "/>
  <path class="fil9" d="M1441.81 229.68l-92.15 34.22 18.75 171.16 10.21 72 -54.91 104.24 204.98 1.26 -18.75 -81.58 13.63 -123.9c0,0 43.94,-18.17 36.7,-71.68l-36.88 -73.12 -81.58 -32.6z"/>
  <polygon class="fil10" points="1432.95,185.43 1463.9,193.43 1470.42,264.98 1426.79,251.44 "/>
  <path class="fil11" d="M1510.08 123.55c0,34.85 -14.35,70.33 -38.09,79.55l-13.85 -2.16c-42.23,-5.94 -61.03,-33.91 -61.07,-75.69 0,-41.82 27.3,-75.69 60.98,-75.69 33.73,-0 52.03,32.15 52.03,73.98z"/>
  <path class="fil4" d="M1450.31 173.69c4.41,13.31 11.06,15.79 22.22,15.79 11.29,0 8.81,-2.11 14.3,-12.01 -16.82,4 -18.53,-1.12 -36.52,-3.78z"/>
  <path class="fil2" d="M1434.53 113.47l87.33 3.37c0,0 -0.63,-31.16 -10.93,-49.69 -14.44,-26.04 -57.34,-53.02 -99.66,-30.81 -52.48,27.3 -37.69,96.78 -29.01,123.67 14.39,44.48 -19.88,99.25 -19.88,99.25l65.97 -23.39 -0.09 -53.07 6.25 -69.34z"/>
  <path class="fil4" d="M1428.41 235.88l-27.79 9.85 15.79 33.82 24.51 -6.66c0,0 33.73,45.87 38.41,61.97 0,0 9.4,30.27 7.28,48.97 0,0 23.7,-11.65 33.23,-46.86 0,0 7.33,-9.8 -25.36,-63.59l21.68 4.41 -23.92 -27.88 -24.19 -9.49 0.49 17.9 -40.11 -22.44z"/>
  <path class="fil0" d="M1455.39 37.11c2.7,0 5.22,0.36 7.69,0.4 6.79,0.18 14.71,1.44 21.5,2.7 -8.81,-5.08 -21.18,-12.41 -35.53,-12.1 -55.36,1.21 -65.16,44.34 -58.87,80.5l14.17 2.16c-6.29,-17.99 -9.85,-73.66 51.04,-73.66z"/>
  <path class="fil0" d="M1395 105.6c-13.36,2.38 -15.47,24.01 -15.47,24.01l1.12 13.4c0.54,17.18 19.29,21.18 19.29,21.18 31.61,0.23 27.84,-55.63 3.15,-58.55 0,-0.05 -6.12,-0.4 -8.09,-0.05z"/>
  <ellipse class="fil5" cx="1396.57" cy="134.11" rx="17.09" ry="23.39"/>
  <ellipse class="fil0" cx="1393.34" cy="134.11" rx="12.01" ry="16.41"/>
  <path class="fil5" d="M1440.69 184.71c0,0 -32.11,-15.51 -37.69,-30.54 0,0 -1.75,-2.56 -4.59,0.54 -2.83,3.1 27.7,29.37 40.92,34.27 0,0 -0.23,2.83 6.34,5.13 6.61,2.29 8.9,0.27 8.9,0.27 0,0 4.45,-2.97 1.53,-6.97 -2.88,-4 -6.39,-3.91 -6.39,-3.91 0,0 -6.66,-1.66 -9.04,1.21z"/>
  <path class="fil12" d="M1151.8 504.63l103.3 67.05 -34.9 -96.55 8.95 -47.53 -58.64 -193.06 -26.44 -20.6c0,0 -39.3,-11.2 -13.67,89.81 0,0 28.29,117.51 29.41,122.55 -0,0.04 -5.71,88.28 -8.01,78.34z"/>
  <path class="fil12" d="M1086.5 181.51c1.12,0.54 50.55,26.71 50.55,26.71l23.43 20.15 2.34 48.21 -5.17 62.55 -47.22 162.84 -23.92 -320.46z"/>
  <path class="fil4" d="M952.22 194.82c3.51,-1.3 26.8,-20.24 26.8,-20.24l102.98 15.33 9.8 -5.08 42.45 48.39c0,0 18.53,73.44 17.45,76.99 -1.08,3.55 -14.62,217.12 -14.62,217.12l-70.83 38.54 -117.1 -20.28 2.52 -73.21 -41.33 -213.43 41.87 -64.13z"/>
  <path class="fil12" d="M1064.87 251.44c3.55,-0.45 25.99,-3.28 25.99,-3.28l7.06 76.5 7.78 88.05 -28.15 77.67 -16.73 -72.27 8 -84.19 -3.96 -82.48z"/>
  <polygon class="fil12" points="977.62,168.79 1011.22,270.29 1086.5,418.15 1124.41,273.12 1121.67,210.88 1156.61,247.71 1140.42,622.63 921.01,646.33 922.94,437.08 891.64,226.53 "/>
  <polygon class="fil12" points="1068.38,206.92 1049.49,231.97 1062.08,246.18 1088.88,243.48 1087.8,215.29 "/>
  <path class="fil13" d="M1083.26 167.98c0.4,2.88 11.15,18.62 11.15,18.62l-26.04 20.33 -83.6 -25.41 11.56 -36.52 -0.4 -19.47 9.08 -11.42 3.15 12.23 75.1 41.64z"/>
  <polygon class="fil0" points="1068.38,206.92 1040.04,244.47 985.36,189.97 978.16,170.27 989.9,162.94 1009.96,184.39 "/>
  <polygon class="fil0" points="1107.63,234.85 1068.38,206.92 1081.15,186.28 1086.09,172.11 1092.39,180.12 "/>
  <polygon class="fil14" points="1108.08,38.15 1112.45,68.1 1106.11,115.54 1088.52,170.86 1064.24,172.83 1006.45,135.28 1005.1,119.99 994.76,118.96 990.17,90.31 1010.72,23.98 "/>
  <polygon class="fil2" points="1014.37,92.16 1038.33,110.01 1046.65,126.29 1077.19,116.44 1097.52,118.55 1101.2,129.39 1106.2,115.81 1100.57,160.6 1091.58,197.03 1038.42,198.78 1005.01,165.19 "/>
  <path class="fil2" d="M1005.1 119.99c-2.11,5.08 -8.36,9.13 -8.36,9.13l-10.21 -41.69 1.71 -40.65 22.8 -38.32 54.05 -4.09 28.69 9.35 11.02 14.39 3.28 10.03 -6.88 11.06 -37.87 -0.99 -26.67 -9.35 -10.79 5.85 -1.35 68.63 -5.58 11.42 -12.41 -41.37 -7.42 -2.11 -5.22 15.02 4.18 19.79 7.02 3.91z"/>
  <path class="fil14" d="M1092.88 153.68c-0.4,-0.05 0.99,0.09 -4,-0.4 -2.47,-0.23 3.1,-6.12 -6.88,-7.11 -5.8,-0.58 -9.35,5.53 -10.84,5.35 -10.88,-1.08 -10.88,-1.08 -10.88,-1.08l-7.11 -15.7c4.27,0.85 20.19,1.17 29.37,2.07 6.57,0.63 14.84,0.67 14.84,0.67l-4.5 16.19z"/>
  <path class="fil0" d="M1059.7 9.01c2.7,0 5.22,0.36 7.69,0.4 6.79,0.18 14.71,1.44 21.5,2.7 -8.81,-5.08 -21.18,-12.41 -35.53,-12.1 -55.36,1.21 -65.16,44.34 -58.87,80.5l14.17 2.16c-6.3,-17.99 -9.8,-73.66 51.04,-73.66z"/>
  <path class="fil5" d="M999.84 77.41c-12.14,2.38 -15.02,20.42 -15.02,20.42l1.93 17.13c0.49,17.27 17.54,21.23 17.54,21.23 28.78,0.23 25.36,-55.81 2.88,-58.73 0,-0.04 -5.53,-0.4 -7.33,-0.04z"/>
  <ellipse class="fil0" cx="1000.92" cy="106.01" rx="15.25" ry="20.87"/>
  <ellipse class="fil5" cx="997.68" cy="106.01" rx="12.01" ry="16.41"/>
  <path class="fil0" d="M1044.99 156.6c0,0 -32.11,-15.51 -37.69,-30.54 0,0 -1.75,-2.56 -4.59,0.54 -2.83,3.1 27.7,29.37 40.92,34.27 0,0 -0.23,2.83 6.34,5.13 6.61,2.29 8.9,0.27 8.9,0.27 0,0 4.45,-2.97 1.53,-6.97 -2.88,-4 -6.39,-3.91 -6.39,-3.91 0,0 -6.61,-1.66 -9.04,1.21z"/>
  <path class="fil4" d="M1073.73 142.7c0.63,0.23 15.87,1.53 15.87,1.53l5.8 -6.75 -2.38 -0.05 -39.89 -2.65 20.6 7.92z"/>
  <path class="fil5" d="M737.52 94.27c10.34,3.87 11.06,12.41 11.06,12.41l0 18.08c-0.45,14.17 -18.17,17.81 -18.17,17.81 1.35,-3.1 1.12,-48.3 1.12,-48.3l5.98 0z"/>
  <path class="fil15" d="M722.14 159.66c-1.89,3.82 0,54.05 0,54.05 0,0 -106.76,43.17 -108.65,41.24 -1.89,-1.89 17.18,-102.94 17.18,-102.94l91.47 7.65z"/>
  <polygon class="fil16" points="700.02,161.41 704.38,238.9 666.11,238.9 666.11,126.83 "/>
  <path class="fil17" d="M635.31 93.42c-12.14,40.61 5.89,83.38 39.62,93.76 9.44,2.88 28.24,4.36 28.24,4.36 20.82,-8.68 36.65,-46.77 39.39,-64.58 2.61,-16.82 8.41,-58.6 3.33,-70.65 -5.08,-12.05 -21,-3.24 -31.39,-4.86 -20.69,-3.19 -69.43,9.36 -79.19,41.96z"/>
  <path class="fil0" d="M743.59 118.42c0,0 11.06,-68.63 -28.02,-67.23 0,0 -37.37,18.66 -39.21,41.1l-11.11 22.58 -33.77 84.5 -14.21 198.59c0,0 -95.34,43.85 -148.67,-43.85 -15.47,-25.45 26.67,-135.36 91.52,-186.81 33.23,-26.4 47.67,-97.23 67.73,-131.05 0,0 27.39,-33.95 70.2,-21 0.67,0.23 6.88,-1.84 7.6,-1.71 7.33,1.48 15.02,3.96 23.07,7.74 -0.05,0.04 46.63,37.41 14.88,97.14z"/>
  <path class="fil0" d="M711.22 36.89c0,0 18.66,42.32 37.37,49.78l-6.21 -42.63 -7.47 -14.62 -23.7 7.47z"/>
  <path class="fil0" d="M733.79 38.01c0,0 1.12,85.98 -72.67,108.29 -81.98,24.78 15.33,-85.58 15.33,-85.58l37.42 -31.44 19.92 8.73z"/>
  <path class="fil18" d="M702.22 200.63c-0.76,24.28 -17,28.78 -34.99,0l-18.89 0 -40.61 376.63 155.01 0 -2.34 -303.78 -46.68 -72.85 -11.51 0z"/>
  <path class="fil19" d="M650.33 199.37c0,0 -85.89,26.13 -104.6,82.16 0,0 -59.77,121.38 -65.34,166.21l121.24 90.21 39.12 3.06 -85.67 -104.92 42.95 -64.89 -13.09 140.08 -16.82 133.83 112.07 2.47 0 -239.07c0.05,0 1.89,-160.01 -29.86,-209.16z"/>
  <path class="fil19" d="M713.73 200.63c0,0 48.57,3.73 70.96,104.6l28.02 117.64 37.69 87.11 33.59 17.31 -70.38 -24.15c0,0 -10.25,13.09 -17.76,0l-16.82 -13.09 -1.53 156.23 -36.52 -0 -27.25 -445.66z"/>
  <polygon class="fil18" points="677.8,160.51 700.96,164.15 711.04,164.15 717.24,160.51 709.1,174.9 695.61,174.9 "/>
  <path class="fil5" d="M696.6 15.26c2.7,0 5.26,0.18 7.69,0.4 6.79,-0.31 13.67,1.75 21.45,4.36 -8.81,-5.08 -21.18,-8.45 -35.53,-8.14 -55.36,1.21 -65.16,44.34 -58.87,80.5l14.17 2.16c-6.34,-18.03 -9.8,-79.28 51.09,-79.28z"/>
  <path class="fil5" d="M636.65 89.23c-12.14,2.38 -15.02,20.42 -15.02,20.42 -2.34,20.78 5.26,38.36 19.52,38.36 28.78,0.23 25.36,-55.81 2.88,-58.78 -0.05,0 -5.58,-0.36 -7.38,0z"/>
  <path class="fil5" d="M726.1 168.88c0,0 11.65,-7.6 10.39,-20.91l2.34 -6.34c0,0 1.93,5.31 2.52,8.32 0.85,4.41 -1.75,13.4 -11.78,22.31 0,0 1.66,2.56 -3.46,8.05 -5.13,5.49 -8.28,4.77 -8.28,4.77 0,0 -5.71,-0.58 -4.99,-5.8 0.72,-5.26 4.09,-6.93 4.09,-6.93 0,0 5.44,-4.95 9.17,-3.46z"/>
  <ellipse class="fil0" cx="637.73" cy="117.88" rx="15.25" ry="20.87"/>
  <polygon class="fil20" points="335.3,239.75 356.08,254.46 414.59,421.79 408.7,477.47 380.95,482.14 367.64,479.49 322.85,311.07 "/>
  <polygon class="fil20" points="312.14,211.69 238.48,196.17 207,204.54 167.92,224.1 111.12,253.6 99.52,291.6 104.24,367.06 122.23,463.26 116.07,542.23 362.47,499.82 362.47,364.19 352.39,260.39 "/>
  <polygon class="fil21" points="205.92,215.83 274.05,328.79 305.53,238.85 297.57,216.19 293.84,213.04 297.93,151.74 227.51,145.58 222.29,192.76 "/>
  <path class="fil4" d="M278.42 245.96c-56.93,5.4 -63.32,-41.37 -63.32,-41.37l4.81 -8.5 -36.07 22.76 15.7 109.95 -3.6 300.77c49.69,3.69 99.7,1.26 126.91,-4.32l6.3 -158.07 0 -134.19 0 -68.49 -17.09 -45.15 -17.49 -16.64 -0.67 10.34c-0.04,0 11.74,30.36 -15.47,32.92z"/>
  <path class="fil5" d="M322.22 116.71c10.34,3.87 11.06,12.41 11.06,12.41l0 24.37c-0.45,14.17 -18.17,11.51 -18.17,11.51 1.35,-3.1 1.12,-48.3 1.12,-48.3l5.98 0z"/>
  <path class="fil3" d="M318.08 65.26c0,0 -43.58,-8.86 -56.98,-9.71 -40.79,-2.61 -48.84,16.55 -51.27,61.93 -1.48,27.84 28.65,45.29 28.65,45.29l3.42 16.68c8.09,4.54 31.97,26.4 31.97,26.4l31.25 4.36 18.39 -32.29c0,0 8,-54.23 7.91,-56.57 0,0 3.91,-22.26 0.58,-36.92 -2.7,-11.74 -13.94,-19.16 -13.94,-19.16z"/>
  <path class="fil6" d="M334.45 48.67l-27.75 -4.18c0,0 -34.22,-5.4 -43.08,-5.98 -39.53,-2.52 -61.34,35.08 -62.06,79.15l11.6 37.28 11.87 14.62 14.35 -26.98c6.21,-0.63 23.7,-2.52 23.7,-2.52l3.55 -45.24 20.73 -17.49 35.57 10.12 9.8 0.99 8.41 -7.56 2.07 -14.75 -5.49 0.72 -3.28 -18.17z"/>
  <path class="fil3" d="M252.42 148.5c-1.93,11.02 -3.51,16.86 -12.68,13.63 -4.95,-1.71 -11.15,-3.64 -12.64,-18.48 -1.08,-11.15 6.84,-20.06 16.46,-18.44 9.62,1.66 10.79,12.32 8.86,23.3z"/>
  <polygon class="fil20" points="270.1,251.31 252.65,266.28 260.47,284.41 289.57,284.41 295.91,266.28 278.19,251.31 "/>
  <polygon class="fil20" points="262.09,289.31 289.93,289.31 305.53,547.04 274.28,599.52 235.65,552.03 "/>
  <path class="fil5" d="M292.85 44.85c2.7,0 5.26,0.18 7.69,0.4 6.79,-0.31 14.71,2.16 21.5,1.57 -8.81,-5.08 -21.18,-11.29 -35.53,-10.97 -55.36,1.21 -65.16,44.34 -58.87,80.5l14.17 2.16c-6.29,-17.99 -9.8,-73.66 51.04,-73.66z"/>
  <path class="fil5" d="M278.15 192.44c0,0 -22.49,-9.31 -28.11,-24.37 0,0 -1.75,-2.56 -4.59,0.54 -2.83,3.1 18.08,23.16 31.3,28.11 0,0 -0.23,2.83 6.34,5.13 6.61,2.29 8.9,0.27 8.9,0.27 0,0 4.45,-2.97 1.53,-6.97 -2.88,-4 -6.39,-3.91 -6.39,-3.91 0,0 -6.57,-1.66 -8.99,1.21z"/>
  <path class="fil5" d="M232.99 113.25c-12.14,2.38 -15.02,20.42 -15.02,20.42l1.93 17.13c0.49,17.27 17.54,21.23 17.54,21.23 28.78,0.23 25.36,-55.81 2.88,-58.73 0,-0.04 -5.53,-0.4 -7.33,-0.04z"/>
  <ellipse class="fil0" cx="234.07" cy="141.85" rx="15.25" ry="20.87"/>
  <path class="fil4" d="M288.04 180.34c0,0 5.53,9.04 19.11,9.26 2.47,0.05 4.95,0 4.36,-0.18l6.34 -11.11c-14.53,1.08 -12.28,0.4 -29.82,2.02z"/>
  <rect class="fil15" y="489.61" width="2219.09" height="194.9"/>
  <polygon class="fil3" points="1931.86,361.31 1967.61,450.21 2023.51,511.96 1975.48,546.9 1946.88,491.63 1935.59,472.03 "/>
  <polygon class="fil22" points="1926.83,617.82 1814.13,574.2 2021.94,538 2136.48,582.07 "/>
  <path class="fil23" d="M1935.51 594.8c-0.4,0 -15.11,6.88 -15.11,6.88l-95.83 -35.03 34.72 -5.4 130.73 -20.33 -54.51 53.88z"/>
  <path class="fil24" d="M1994.55 591.74c-0.4,0 -58.06,7.2 -58.06,7.2l-64.71 -23.65 165.45 -25.72 -42.68 42.18z"/>
  <path class="fil24" d="M1975.08 556.98c-0.4,0 -58.06,7.2 -58.06,7.2l-18.08 -6.16 165.45 -25.72 -89.31 24.69z"/>
  <polygon class="fil25" points="2174.3,415.9 2178.44,420.53 1918.55,606.98 1914.41,602.31 1967.61,450.21 "/>
  <polygon class="fil23" points="2178.44,420.53 2129.56,439.6 1971.75,454.85 1967.61,450.21 2174.3,415.9 "/>
  <polygon class="fil25" points="1918.55,606.98 1824.61,572.4 1824.61,566.65 1920.4,601.68 "/>
  <polygon class="fil24" points="1908.84,601.99 1899.71,598.53 1899.71,595.92 1908.84,599.25 "/>
  <polygon class="fil24" points="1896.92,597.67 1887.79,594.21 1887.79,591.56 1896.92,594.89 "/>
  <polygon class="fil24" points="2178.44,420.53 2117.86,577.17 1918.55,606.98 1971.75,454.85 "/>
  <polygon class="fil22" points="1903.85,573.08 1867.42,559.99 1850.2,562.69 1844.17,555.67 1718.03,524.78 1853.61,543.98 1880.19,543.98 "/>
  <polygon class="fil3" points="1734.8,341.75 1740.33,477.47 1876.64,523.34 1863.91,546.09 1701.7,523.2 1685.06,364.46 "/>
  <polygon class="fil3" points="1935.87,540.92 1907.22,523.2 1876.64,523.34 1863.91,546.09 1903.85,573.08 1923.68,575.86 "/>
  <polygon class="fil26" points="1438.22,609.73 1337.26,624.48 1314.55,569.52 1375.3,561.2 "/>
  <polygon class="fil22" points="1525.82,615.66 1410.65,573.03 1436.87,565.88 1321.65,510.97 1492.95,558.69 1618.46,536.83 1735.52,579.96 "/>
  <path class="fil23" d="M1534.54 592.68c-0.4,0 -15.11,6.88 -15.11,6.88l-95.83 -35.03 165.45 -25.72 -54.51 53.88z"/>
  <path class="fil24" d="M1593.59 589.58c-0.4,0 -58.06,7.2 -58.06,7.2l-64.71 -23.65 165.45 -25.72 -42.68 42.18z"/>
  <path class="fil24" d="M1574.12 554.86c-0.4,0 -58.06,7.2 -58.06,7.2l-18.08 -6.21 165.45 -25.72 -89.31 24.73z"/>
  <polygon class="fil25" points="1773.34,413.74 1777.48,418.42 1517.59,604.83 1513.45,600.19 1566.65,448.06 "/>
  <polygon class="fil23" points="1777.48,418.42 1728.59,437.44 1570.79,452.69 1566.65,448.06 1773.34,413.74 "/>
  <polygon class="fil25" points="1517.59,604.83 1423.65,570.24 1423.65,564.49 1519.43,599.56 "/>
  <polygon class="fil24" points="1507.88,599.83 1498.75,596.42 1498.75,593.76 1507.88,597.09 "/>
  <polygon class="fil24" points="1495.96,595.52 1486.83,592.05 1486.83,589.4 1495.96,592.77 "/>
  <polygon class="fil24" points="1777.48,418.42 1716.86,575.01 1517.59,604.83 1570.79,452.69 "/>
  <polygon class="fil4" points="1454.9,559.63 1470.42,565.88 1491.37,536.07 1482.65,530.76 "/>
  <path class="fil8" d="M1337.03 274.87l-48.43 218.42 174.49 72.58 25.32 -34.36 -127.54 -68.18 28.11 -120.75c0,0 22.62,-77.84 -39.39,-79.37 -5.08,-0.18 -10.52,5.08 -12.55,11.65z"/>
  <polygon class="fil11" points="1519.48,532.51 1493.85,533.14 1474.24,556.62 1474.6,566.2 1487.01,572.27 1522.49,572.27 1532.83,544.7 "/>
  <polygon class="fil14" points="1138.49,473.82 1120,471.53 1095.36,473.91 1096.66,510.16 1128.55,511.92 1151.44,512.14 1159.08,497.79 1159.13,492.67 "/>
  <polygon class="fil27" points="1096.89,467.35 1086.5,465.64 1088.88,513.58 1097.74,513.49 "/>
  <path class="fil12" d="M941.38 255.04l-18.44 -25.36 -31.25 -3.15 -20.87 181.01 -3.33 67.59 15.07 34.81c0,0 205.65,5.98 206.37,4.95 0.72,-1.08 0.49,-49.96 0.49,-49.96l-144.18 -19.88 11.78 -151.96 -15.65 -38.05z"/>
  <polygon class="fil22" points="1135.47,581.53 1020.12,539.21 1227.93,502.97 1345.13,545.82 "/>
  <path class="fil23" d="M1144.2 558.55c-0.4,0 -15.11,6.88 -15.11,6.88l-95.83 -35.03 165.45 -25.72 -54.51 53.88z"/>
  <path class="fil24" d="M1203.24 555.45c-0.4,0 -58.06,7.2 -58.06,7.2l-64.71 -23.65 165.45 -25.72 -42.68 42.18z"/>
  <path class="fil24" d="M1183.77 520.73c-0.4,0 -58.06,7.2 -58.06,7.2l-18.08 -6.16 165.45 -25.72 -89.31 24.69z"/>
  <polygon class="fil25" points="1382.99,379.61 1387.13,384.29 1127.24,570.69 1123.1,566.06 1176.26,413.92 "/>
  <polygon class="fil23" points="1387.13,384.29 1338.2,403.31 1180.44,418.56 1176.26,413.92 1382.99,379.61 "/>
  <polygon class="fil25" points="1127.24,570.69 1033.3,536.11 1033.3,530.35 1129.09,565.43 "/>
  <polygon class="fil24" points="1117.53,565.75 1108.4,562.28 1108.4,559.63 1117.53,562.96 "/>
  <polygon class="fil24" points="1105.61,561.38 1096.48,557.92 1096.48,555.27 1105.61,558.64 "/>
  <polygon class="fil24" points="1387.13,384.29 1326.51,540.88 1127.24,570.69 1180.44,418.56 "/>
  <polygon class="fil22" points="748.23,599.07 626.04,556.26 658.73,549.24 646.55,545.42 643.13,546.86 559.93,510.84 689,537.95 833.85,520.01 957.93,563.32 "/>
  <path class="fil23" d="M756.95 576.04c-0.4,0 -15.11,6.88 -15.11,6.88l-95.83 -35.03 165.45 -25.72 -54.51 53.88z"/>
  <path class="fil24" d="M816 572.94c-0.4,0 -58.06,7.2 -58.06,7.2l-64.71 -23.65 165.45 -25.72 -42.68 42.18z"/>
  <path class="fil24" d="M796.53 538.22c-0.4,0 -58.06,7.2 -58.06,7.2l-18.08 -6.16 165.45 -25.72 -89.31 24.69z"/>
  <polygon class="fil25" points="995.75,397.15 999.88,401.78 740,588.23 735.86,583.55 789.02,431.42 "/>
  <polygon class="fil23" points="999.88,401.78 951,420.85 793.2,436.09 789.02,431.42 995.75,397.15 "/>
  <polygon class="fil25" points="740,588.23 646.05,553.6 646.05,547.89 741.84,582.92 "/>
  <polygon class="fil24" points="730.28,583.24 721.15,579.78 721.15,577.12 730.28,580.5 "/>
  <polygon class="fil24" points="718.37,578.88 709.24,575.46 709.24,572.81 718.37,576.13 "/>
  <polygon class="fil24" points="999.88,401.78 939.26,558.37 740,588.23 793.2,436.09 "/>
  <polygon class="fil28" points="666.11,508.32 646.05,540.25 480.38,490.37 480.38,453.36 514.15,432.45 556.74,439.83 "/>
  <polygon class="fil3" points="740.18,548.3 736.76,536.69 693.59,510.84 664.4,511.33 649.29,535.03 688.55,559.23 "/>
  <path class="fil4" d="M292.9 570.74c-1.48,-0.05 -124.84,28.83 -124.84,28.83l-46.95 -69.79 77.21 -14.89c-0.04,0.05 96.06,55.95 94.57,55.85z"/>
  <polygon class="fil26" points="202.23,578.07 101.23,592.82 85.04,523.97 145.8,515.65 "/>
  <polygon class="fil20" points="367.64,479.49 397.95,531.84 444,451.79 422.64,432.45 383.24,450.66 376.54,467.98 "/>
  <polygon class="fil22" points="370.74,581.53 310.25,559.27 288.76,559.63 278.28,565.43 93.67,497.07 101.95,490.87 282.15,537.95 484.61,510.75 580.44,545.82 "/>
  <path class="fil23" d="M379.46 558.55c-0.4,0 -15.11,6.88 -15.11,6.88l-95.83 -35.03 165.45 -25.72 -54.51 53.88z"/>
  <path class="fil24" d="M438.51 555.45c-0.4,0 -58.06,7.2 -58.06,7.2l-64.71 -23.65 165.45 -25.72 -42.68 42.18z"/>
  <path class="fil24" d="M419.04 520.73c-0.4,0 -58.06,7.2 -58.06,7.2l-18.08 -6.16 165.45 -25.72 -89.31 24.69z"/>
  <polygon class="fil25" points="618.26,379.61 622.4,384.29 362.51,570.69 358.37,566.06 411.53,413.92 "/>
  <polygon class="fil23" points="622.4,384.29 573.51,403.31 415.71,418.56 411.53,413.92 618.26,379.61 "/>
  <polygon class="fil25" points="362.51,570.69 268.57,536.11 268.57,530.35 364.35,565.43 "/>
  <polygon class="fil24" points="352.8,565.75 343.67,562.28 343.67,559.63 352.8,562.96 "/>
  <polygon class="fil24" points="340.88,561.38 331.75,557.92 331.75,555.27 340.88,558.64 "/>
  <polygon class="fil24" points="622.4,384.29 561.78,540.88 362.51,570.69 415.71,418.56 "/>
  <polygon class="fil3" points="308.73,510.7 318.57,512.5 335.53,508.32 350.64,511.11 372.18,526.53 363.14,549.6 343.67,549.2 318.12,551.53 299.33,550.05 274.28,538.85 "/>
  <polygon class="fil4" points="265.01,549.06 278.69,551.53 312.46,506.74 301.44,499.23 "/>
  <polygon class="fil20" points="96.78,293.27 85.04,471.17 94.84,496 268.66,553.51 308.23,498.2 164.32,439.6 178.4,306.17 172.64,261.25 150.16,233.32 111.12,254.19 "/>
 </g>
</svg>
