<?xml version="1.0" encoding="utf-8"?>
<!-- Generator: Adobe Illustrator 26.0.2, SVG Export Plug-In . SVG Version: 6.00 Build 0)  -->
<svg version="1.1" id="Camada_1" xmlns="http://www.w3.org/2000/svg" xmlns:xlink="http://www.w3.org/1999/xlink" x="0px" y="0px"
	 viewBox="0 0 1440 1024" style="enable-background:new 0 0 1440 1024;" xml:space="preserve">
<style type="text/css">
	.st0{fill:#F5F8FF;}
	.st1{clip-path:url(#SVGID_00000101799563125934445390000001875079989021465476_);fill:#FFFFFF;}
	.st2{clip-path:url(#SVGID_00000101799563125934445390000001875079989021465476_);fill:#FEFFFF;}
	.st3{clip-path:url(#SVGID_00000101799563125934445390000001875079989021465476_);fill:#FDFEFF;}
	.st4{clip-path:url(#SVGID_00000101799563125934445390000001875079989021465476_);fill:#FCFEFF;}
	.st5{clip-path:url(#SVGID_00000101799563125934445390000001875079989021465476_);fill:#FBFDFF;}
	.st6{clip-path:url(#SVGID_00000101799563125934445390000001875079989021465476_);fill:#FAFDFF;}
	.st7{clip-path:url(#SVGID_00000101799563125934445390000001875079989021465476_);fill:#F9FCFE;}
	.st8{clip-path:url(#SVGID_00000101799563125934445390000001875079989021465476_);fill:#F8FCFE;}
	.st9{clip-path:url(#SVGID_00000101799563125934445390000001875079989021465476_);fill:#F7FBFE;}
	.st10{clip-path:url(#SVGID_00000101799563125934445390000001875079989021465476_);fill:#F6FBFE;}
	.st11{clip-path:url(#SVGID_00000101799563125934445390000001875079989021465476_);fill:#F5FBFE;}
	.st12{clip-path:url(#SVGID_00000101799563125934445390000001875079989021465476_);fill:#F4FAFE;}
	.st13{clip-path:url(#SVGID_00000101799563125934445390000001875079989021465476_);fill:#F3FAFE;}
	.st14{clip-path:url(#SVGID_00000101799563125934445390000001875079989021465476_);fill:#F2F9FE;}
	.st15{clip-path:url(#SVGID_00000101799563125934445390000001875079989021465476_);fill:#F1F9FE;}
	.st16{clip-path:url(#SVGID_00000101799563125934445390000001875079989021465476_);fill:#F0F8FE;}
	.st17{clip-path:url(#SVGID_00000101799563125934445390000001875079989021465476_);fill:#EFF8FD;}
	.st18{clip-path:url(#SVGID_00000101799563125934445390000001875079989021465476_);fill:#EEF8FD;}
	.st19{clip-path:url(#SVGID_00000101799563125934445390000001875079989021465476_);fill:#EDF7FD;}
	.st20{clip-path:url(#SVGID_00000101799563125934445390000001875079989021465476_);fill:#ECF7FD;}
	.st21{clip-path:url(#SVGID_00000101799563125934445390000001875079989021465476_);fill:#EBF6FD;}
	.st22{clip-path:url(#SVGID_00000101799563125934445390000001875079989021465476_);fill:#EAF6FD;}
	.st23{clip-path:url(#SVGID_00000101799563125934445390000001875079989021465476_);fill:#E9F5FD;}
	.st24{clip-path:url(#SVGID_00000101799563125934445390000001875079989021465476_);fill:#E8F5FD;}
	.st25{clip-path:url(#SVGID_00000101799563125934445390000001875079989021465476_);fill:#E7F4FD;}
	.st26{clip-path:url(#SVGID_00000101799563125934445390000001875079989021465476_);fill:#E6F4FD;}
	.st27{fill:#CCE9FA;}
	.st28{fill:#FFFFFF;}
	.st29{fill:#0E9CE3;}
	.st30{fill:#093659;}
	.st31{fill:#9256D9;}
	.st32{fill:#E8AA23;}
	.st33{fill:#33AB84;}
	.st34{opacity:0.4;enable-background:new    ;}
	.st35{fill:#BC775C;}
	.st36{fill:#93523E;}
	.st37{fill:#0D1B33;}
	.st38{opacity:0.1;enable-background:new    ;}
	.st39{fill:#323232;}
	.st40{clip-path:url(#SVGID_00000065785790611172952450000013481968036582100144_);fill:#FFFFFF;}
	.st41{clip-path:url(#SVGID_00000065785790611172952450000013481968036582100144_);fill:#FEFFFF;}
	.st42{clip-path:url(#SVGID_00000065785790611172952450000013481968036582100144_);fill:#FDFEFF;}
	.st43{clip-path:url(#SVGID_00000065785790611172952450000013481968036582100144_);fill:#FCFEFF;}
	.st44{clip-path:url(#SVGID_00000065785790611172952450000013481968036582100144_);fill:#FBFDFF;}
	.st45{clip-path:url(#SVGID_00000065785790611172952450000013481968036582100144_);fill:#FAFDFF;}
	.st46{clip-path:url(#SVGID_00000065785790611172952450000013481968036582100144_);fill:#F9FCFE;}
	.st47{clip-path:url(#SVGID_00000065785790611172952450000013481968036582100144_);fill:#F8FCFE;}
	.st48{clip-path:url(#SVGID_00000065785790611172952450000013481968036582100144_);fill:#F7FBFE;}
	.st49{clip-path:url(#SVGID_00000065785790611172952450000013481968036582100144_);fill:#F6FBFE;}
	.st50{clip-path:url(#SVGID_00000065785790611172952450000013481968036582100144_);fill:#F5FBFE;}
	.st51{clip-path:url(#SVGID_00000065785790611172952450000013481968036582100144_);fill:#F4FAFE;}
	.st52{clip-path:url(#SVGID_00000065785790611172952450000013481968036582100144_);fill:#F3FAFE;}
	.st53{clip-path:url(#SVGID_00000065785790611172952450000013481968036582100144_);fill:#F2F9FE;}
	.st54{clip-path:url(#SVGID_00000065785790611172952450000013481968036582100144_);fill:#F1F9FE;}
	.st55{clip-path:url(#SVGID_00000065785790611172952450000013481968036582100144_);fill:#F0F8FE;}
	.st56{clip-path:url(#SVGID_00000065785790611172952450000013481968036582100144_);fill:#EFF8FD;}
	.st57{clip-path:url(#SVGID_00000065785790611172952450000013481968036582100144_);fill:#EEF8FD;}
	.st58{clip-path:url(#SVGID_00000065785790611172952450000013481968036582100144_);fill:#EDF7FD;}
	.st59{clip-path:url(#SVGID_00000065785790611172952450000013481968036582100144_);fill:#ECF7FD;}
	.st60{clip-path:url(#SVGID_00000065785790611172952450000013481968036582100144_);fill:#EBF6FD;}
	.st61{clip-path:url(#SVGID_00000065785790611172952450000013481968036582100144_);fill:#EAF6FD;}
	.st62{clip-path:url(#SVGID_00000065785790611172952450000013481968036582100144_);fill:#E9F5FD;}
	.st63{clip-path:url(#SVGID_00000065785790611172952450000013481968036582100144_);fill:#E8F5FD;}
	.st64{clip-path:url(#SVGID_00000065785790611172952450000013481968036582100144_);fill:#E7F4FD;}
	.st65{clip-path:url(#SVGID_00000065785790611172952450000013481968036582100144_);fill:#E6F4FD;}
	.st66{clip-path:url(#SVGID_00000065785790611172952450000013481968036582100144_);fill:#E4F4FC;}
	.st67{clip-path:url(#SVGID_00000065785790611172952450000013481968036582100144_);fill:#E3F3FC;}
	.st68{clip-path:url(#SVGID_00000065785790611172952450000013481968036582100144_);fill:#E2F3FC;}
	.st69{clip-path:url(#SVGID_00000065785790611172952450000013481968036582100144_);fill:#E1F2FC;}
	.st70{clip-path:url(#SVGID_00000065785790611172952450000013481968036582100144_);fill:#E0F2FC;}
	.st71{clip-path:url(#SVGID_00000065785790611172952450000013481968036582100144_);fill:#DFF1FC;}
	.st72{clip-path:url(#SVGID_00000065785790611172952450000013481968036582100144_);fill:#DEF1FC;}
	.st73{clip-path:url(#SVGID_00000065785790611172952450000013481968036582100144_);fill:#DDF0FC;}
	.st74{clip-path:url(#SVGID_00000065785790611172952450000013481968036582100144_);fill:#DCF0FC;}
	.st75{clip-path:url(#SVGID_00000065785790611172952450000013481968036582100144_);fill:#DBF0FC;}
	.st76{clip-path:url(#SVGID_00000065785790611172952450000013481968036582100144_);fill:#DAEFFB;}
	.st77{clip-path:url(#SVGID_00000065785790611172952450000013481968036582100144_);fill:#D9EFFB;}
	.st78{clip-path:url(#SVGID_00000065785790611172952450000013481968036582100144_);fill:#D8EEFB;}
	.st79{clip-path:url(#SVGID_00000065785790611172952450000013481968036582100144_);fill:#D7EEFB;}
	.st80{clip-path:url(#SVGID_00000065785790611172952450000013481968036582100144_);fill:#D6EDFB;}
	.st81{clip-path:url(#SVGID_00000065785790611172952450000013481968036582100144_);fill:#D5EDFB;}
	.st82{clip-path:url(#SVGID_00000065785790611172952450000013481968036582100144_);fill:#D4EDFB;}
	.st83{clip-path:url(#SVGID_00000065785790611172952450000013481968036582100144_);fill:#D3ECFB;}
	.st84{clip-path:url(#SVGID_00000065785790611172952450000013481968036582100144_);fill:#D2ECFB;}
	.st85{clip-path:url(#SVGID_00000065785790611172952450000013481968036582100144_);fill:#D1EBFB;}
	.st86{clip-path:url(#SVGID_00000065785790611172952450000013481968036582100144_);fill:#D0EBFA;}
	.st87{clip-path:url(#SVGID_00000065785790611172952450000013481968036582100144_);fill:#CFEAFA;}
	.st88{clip-path:url(#SVGID_00000065785790611172952450000013481968036582100144_);fill:#CEEAFA;}
	.st89{clip-path:url(#SVGID_00000065785790611172952450000013481968036582100144_);fill:#CDE9FA;}
	.st90{clip-path:url(#SVGID_00000065785790611172952450000013481968036582100144_);fill:#CCE9FA;}
	.st91{fill:#D1E8F7;}
	.st92{fill:#FFCCB3;}
	.st93{fill:#EF6A77;}
	.st94{fill:#5CA4E6;}
	.st95{fill-rule:evenodd;clip-rule:evenodd;fill:#093659;}
	.st96{fill-rule:evenodd;clip-rule:evenodd;fill:#FFCCB3;}
	.st97{fill-rule:evenodd;clip-rule:evenodd;fill:#0E9CE3;}
	.st98{fill-rule:evenodd;clip-rule:evenodd;fill:#FCBA9F;}
	.st99{fill:#FCBA9F;}
	.st100{fill:#EAEAEA;}
</style>
<g id="sombra">
	<path class="st0" d="M720.1,969.2c293.9,0,532.1-6.1,532.1-13.6S1014,942,720.1,942S188,948.1,188,955.6
		C188,963.1,426.2,969.2,720.1,969.2z"/>
</g>
<g id="monitor">
	<g>
		<g>
			<defs>
				<path id="SVGID_1_" d="M858.6,121H370.4c-7.3,0-13.1,5.9-13.1,13.1v321.3c0,7.3,5.9,13.1,13.1,13.1h488.2
					c7.3,0,13.1-5.9,13.1-13.1V134.1C871.7,126.9,865.8,121,858.6,121z"/>
			</defs>
			<clipPath id="SVGID_00000101812992002268630940000012325709915554229403_">
				<use xlink:href="#SVGID_1_"  style="overflow:visible;"/>
			</clipPath>
			<polygon style="clip-path:url(#SVGID_00000101812992002268630940000012325709915554229403_);fill:#FFFFFF;" points="590.4,121 
				357.3,138.1 357.3,121 			"/>
			<polygon style="clip-path:url(#SVGID_00000101812992002268630940000012325709915554229403_);fill:#FFFFFF;" points="790,121 
				357.3,152.7 357.3,138.1 590.4,121 			"/>
			<polygon style="clip-path:url(#SVGID_00000101812992002268630940000012325709915554229403_);fill:#FEFFFF;" points="871.7,129.6 
				357.3,167.3 357.3,152.7 790,121 871.7,121 			"/>
			<polygon style="clip-path:url(#SVGID_00000101812992002268630940000012325709915554229403_);fill:#FDFEFF;" points="871.7,144.3 
				357.3,181.9 357.3,167.3 871.7,129.6 			"/>
			<polygon style="clip-path:url(#SVGID_00000101812992002268630940000012325709915554229403_);fill:#FCFEFF;" points="871.7,158.9 
				357.3,196.6 357.3,181.9 871.7,144.3 			"/>
			<polygon style="clip-path:url(#SVGID_00000101812992002268630940000012325709915554229403_);fill:#FBFDFF;" points="871.7,173.5 
				357.3,211.2 357.3,196.6 871.7,158.9 			"/>
			<polygon style="clip-path:url(#SVGID_00000101812992002268630940000012325709915554229403_);fill:#FAFDFF;" points="871.7,188.1 
				357.3,225.8 357.3,211.2 871.7,173.5 			"/>
			<polygon style="clip-path:url(#SVGID_00000101812992002268630940000012325709915554229403_);fill:#F9FCFE;" points="871.7,202.7 
				357.3,240.4 357.3,225.8 871.7,188.1 			"/>
			<polygon style="clip-path:url(#SVGID_00000101812992002268630940000012325709915554229403_);fill:#F8FCFE;" points="871.7,217.4 
				357.3,255 357.3,240.4 871.7,202.7 			"/>
			<polygon style="clip-path:url(#SVGID_00000101812992002268630940000012325709915554229403_);fill:#F7FBFE;" points="871.7,232 
				357.3,269.7 357.3,255 871.7,217.4 			"/>
			<polygon style="clip-path:url(#SVGID_00000101812992002268630940000012325709915554229403_);fill:#F6FBFE;" points="871.7,246.6 
				357.3,284.3 357.3,269.7 871.7,232 			"/>
			<polygon style="clip-path:url(#SVGID_00000101812992002268630940000012325709915554229403_);fill:#F5FBFE;" points="871.7,261.2 
				357.3,298.9 357.3,284.3 871.7,246.6 			"/>
			<polygon style="clip-path:url(#SVGID_00000101812992002268630940000012325709915554229403_);fill:#F4FAFE;" points="871.7,275.8 
				357.3,313.5 357.3,298.9 871.7,261.2 			"/>
			<polygon style="clip-path:url(#SVGID_00000101812992002268630940000012325709915554229403_);fill:#F3FAFE;" points="871.7,290.5 
				357.3,328.1 357.3,313.5 871.7,275.8 			"/>
			<polygon style="clip-path:url(#SVGID_00000101812992002268630940000012325709915554229403_);fill:#F2F9FE;" points="871.7,305.1 
				357.3,342.8 357.3,328.1 871.7,290.5 			"/>
			<polygon style="clip-path:url(#SVGID_00000101812992002268630940000012325709915554229403_);fill:#F1F9FE;" points="871.7,319.7 
				357.3,357.4 357.3,342.8 871.7,305.1 			"/>
			<polygon style="clip-path:url(#SVGID_00000101812992002268630940000012325709915554229403_);fill:#F0F8FE;" points="871.7,334.3 
				357.3,372 357.3,357.4 871.7,319.7 			"/>
			<polygon style="clip-path:url(#SVGID_00000101812992002268630940000012325709915554229403_);fill:#EFF8FD;" points="871.7,348.9 
				357.3,386.6 357.3,372 871.7,334.3 			"/>
			<polygon style="clip-path:url(#SVGID_00000101812992002268630940000012325709915554229403_);fill:#EEF8FD;" points="871.7,363.6 
				357.3,401.2 357.3,386.6 871.7,348.9 			"/>
			<polygon style="clip-path:url(#SVGID_00000101812992002268630940000012325709915554229403_);fill:#EDF7FD;" points="871.7,378.2 
				357.3,415.9 357.3,401.2 871.7,363.6 			"/>
			<polygon style="clip-path:url(#SVGID_00000101812992002268630940000012325709915554229403_);fill:#ECF7FD;" points="871.7,392.8 
				357.3,430.5 357.3,415.9 871.7,378.2 			"/>
			<polygon style="clip-path:url(#SVGID_00000101812992002268630940000012325709915554229403_);fill:#EBF6FD;" points="871.7,407.4 
				357.3,445.1 357.3,430.5 871.7,392.8 			"/>
			<polygon style="clip-path:url(#SVGID_00000101812992002268630940000012325709915554229403_);fill:#EAF6FD;" points="871.7,422 
				357.3,459.7 357.3,445.1 871.7,407.4 			"/>
			<polygon style="clip-path:url(#SVGID_00000101812992002268630940000012325709915554229403_);fill:#E9F5FD;" points="871.7,436.7 
				437,468.5 357.3,468.5 357.3,459.7 871.7,422 			"/>
			<polygon style="clip-path:url(#SVGID_00000101812992002268630940000012325709915554229403_);fill:#E8F5FD;" points="871.7,451.3 
				636.6,468.5 437,468.5 871.7,436.7 			"/>
			<polygon style="clip-path:url(#SVGID_00000101812992002268630940000012325709915554229403_);fill:#E7F4FD;" points="871.7,465.9 
				836.2,468.5 636.6,468.5 871.7,451.3 			"/>
			<polygon style="clip-path:url(#SVGID_00000101812992002268630940000012325709915554229403_);fill:#E6F4FD;" points="836.2,468.5 
				871.7,465.9 871.7,468.5 			"/>
		</g>
	</g>
	<g>
		<path class="st27" d="M847.6,347.4h-91c-3.4,0-6.1,2.7-6.1,6.1v98.7c0,3.4,2.7,6.1,6.1,6.1h91c3.4,0,6.1-2.7,6.1-6.1v-98.7
			C853.7,350.1,851,347.4,847.6,347.4z"/>
	</g>
	<g>
		<path class="st28" d="M510.1,346.4H378.5c-2.9,0-5.2,2.3-5.2,5.2v101.6c0,2.9,2.3,5.2,5.2,5.2h131.6c2.9,0,5.2-2.3,5.2-5.2V351.5
			C515.3,348.7,513,346.4,510.1,346.4z"/>
	</g>
	<g>
		<path class="st28" d="M734.3,346.4H532.2c-3.5,0-6.4,2.8-6.4,6.4V452c0,3.5,2.9,6.4,6.4,6.4h202.1c3.5,0,6.4-2.8,6.4-6.4v-99.2
			C740.6,349.2,737.8,346.4,734.3,346.4z"/>
	</g>
	<g>
		<path class="st29" d="M845.6,166.4h-183c-4.5,0-8.2,3.7-8.2,8.2v153.6c0,4.5,3.7,8.2,8.2,8.2h183c4.5,0,8.2-3.7,8.2-8.2V174.6
			C853.7,170.1,850.1,166.4,845.6,166.4z"/>
	</g>
	<g>
		<path class="st30" d="M633.5,166.4h-252c-4.5,0-8.1,3.6-8.1,8.1v153.6c0,4.5,3.6,8.1,8.1,8.1h252c4.5,0,8.1-3.6,8.1-8.1V174.5
			C641.6,170,638,166.4,633.5,166.4z"/>
	</g>
	<g>
		<path class="st30" d="M561.2,376.5h-13.5c-3.3,0-6-2.7-6-6s2.7-6,6-6h13.5c3.3,0,6,2.7,6,6S564.5,376.5,561.2,376.5z"/>
	</g>
	<g>
		<path class="st31" d="M716.3,376.5H590.8c-3.3,0-6-2.7-6-6s2.7-6,6-6h125.5c3.3,0,6,2.7,6,6S719.6,376.5,716.3,376.5z"/>
	</g>
	<g>
		<path class="st30" d="M561.2,406h-13.5c-3.3,0-6-2.7-6-6s2.7-6,6-6h13.5c3.3,0,6,2.7,6,6S564.5,406,561.2,406z"/>
	</g>
	<g>
		<path class="st32" d="M649.2,406h-58.4c-3.3,0-6-2.7-6-6s2.7-6,6-6h58.4c3.3,0,6,2.7,6,6S652.5,406,649.2,406z"/>
	</g>
	<g>
		<path class="st30" d="M561.2,436h-13.5c-3.3,0-6-2.7-6-6s2.7-6,6-6h13.5c3.3,0,6,2.7,6,6S564.5,436,561.2,436z"/>
	</g>
	<g>
		<path class="st33" d="M691.3,436H590.8c-3.3,0-6-2.7-6-6s2.7-6,6-6h100.5c3.3,0,6,2.7,6,6S694.6,436,691.3,436z"/>
	</g>
	<g>
		<path class="st33" d="M576.1,299.3c-0.1,0-0.2,0-0.4,0c-12-0.3-16.6-13.6-20.6-25.4c-2.9-8.3-5.8-16.8-10.3-17
			c-2.9-0.1-3.9,1.5-6.2,6.2c-2.6,5.5-6.3,13-17.9,12.7c-11-0.3-15.2-11-19-20.4c-3.7-9.1-6.4-15.1-11.8-15.3c0,0-0.1,0-0.1,0
			c-5.9,0-12.1,14.1-17,25.4c-6.3,14.5-12.3,28.3-21.9,29.8c-15.1,2.5-23.3-12.3-29.3-23c-1.4-2.5-2.7-4.9-4-6.9
			c-4.8-7.4-20.3-5.9-25.9-4.7c-1.7,0.4-3.4-0.7-3.8-2.5c-0.4-1.7,0.7-3.4,2.5-3.8c1-0.2,24.4-5,32.5,7.5c1.4,2.2,2.8,4.7,4.2,7.3
			c5.6,10.1,12,21.6,22.7,19.8c6.1-1,11.9-14.3,17.1-26.1c6.6-15.2,12.9-29.5,23.1-29.2c9.9,0.3,13.9,10.4,17.5,19.3
			c3.9,9.8,7,16.2,13.3,16.4c7.5,0.2,9.5-3.9,12-9.1c2.2-4.5,4.9-10.1,12.2-9.8c8.7,0.4,12.3,10.6,16,21.3
			c3.6,10.3,7.2,20.9,14.8,21.1c6,0.2,9.8-10,13.9-20.7c5.7-14.9,12.7-33.5,30.3-32.8c1.8,0.1,3.1,1.5,3.1,3.3
			c-0.1,1.8-1.5,3.1-3.3,3.1c-13-0.5-18.7,14.4-24.1,28.7C590.8,287.2,586.3,299.3,576.1,299.3z"/>
	</g>
	<g>
		<path class="st27" d="M466,197.1h-44.3c-2.8,0-5-2.3-5-5s2.3-5,5-5H466c2.8,0,5,2.3,5,5S468.8,197.1,466,197.1z"/>
	</g>
	<g class="st34">
		<path class="st28" d="M513.3,217.8h-91.6c-2.8,0-5-2.3-5-5s2.3-5,5-5h91.6c2.8,0,5,2.3,5,5S516.1,217.8,513.3,217.8z"/>
	</g>
	<g>
		<g>
			<path class="st33" d="M395.5,213.6c-1.3,0-2.6,0-3.9,0c-1.1,0-1.8-0.8-1.8-1.9c0-0.8,0.6-1.4,1.3-1.6c0.3-0.1,0.6-0.1,0.9-0.1
				c2.4,0,4.9,0,7.3,0c2-0.1,3.6-1.7,3.7-3.7s-1.3-3.8-3.4-4c-1.4-0.1-2.8-0.1-4.2-0.1c-1.2,0-2.4-0.3-3.5-0.8c-3-1.5-4.6-4.9-4-8.2
				c0.7-3.3,3.5-5.7,6.9-5.9c0.2,0,0.3,0,0.6-0.1c0-1.3,0-2.6,0-3.9c0-1.2,1-2,2.2-1.7c0.8,0.2,1.3,0.9,1.3,1.7c0,1.1,0,2.2,0,3.3
				c0,0.2,0,0.4,0,0.7c0.4,0,0.7,0,1,0c1,0,1.9,0,2.9,0s1.7,0.8,1.7,1.7c0,1-0.6,1.7-1.7,1.8c-0.2,0-0.5,0-0.7,0c-2.4,0-4.8,0-7.3,0
				c-2,0.1-3.5,1.7-3.6,3.7s1.3,3.8,3.3,4c1.4,0.2,2.8,0.1,4.2,0.1c1.2,0,2.3,0.2,3.4,0.8c3.1,1.5,4.7,4.8,4,8.2
				c-0.6,3.3-3.5,5.7-6.9,5.9c-0.2,0-0.3,0-0.5,0.1c0,1,0,2,0,3c0,0.3,0,0.6,0,0.9c0,1-0.8,1.8-1.8,1.8s-1.7-0.7-1.8-1.8
				c0-1.1,0-2.1,0-3.2C395.5,214.1,395.5,213.9,395.5,213.6z"/>
		</g>
	</g>
	<g class="st34">
		<path class="st28" d="M754.1,280.2c15.9,0,28.8-12.9,28.8-28.8s-12.9-28.8-28.8-28.8c-15.9,0-28.8,12.9-28.8,28.8
			C725.3,267.3,738.2,280.2,754.1,280.2z"/>
	</g>
	<g>
		<path class="st28" d="M745.2,243.4v18.3c0,0.5,0.1,1,0.4,1.4c0.3,0.4,0.6,0.8,1,1.1c0.4,0.3,0.9,0.4,1.4,0.4s1-0.1,1.5-0.4
			l16.7-9.1c0.5-0.3,0.8-0.6,1.1-1.1s0.4-1,0.4-1.5s-0.1-1-0.4-1.5c-0.3-0.5-0.7-0.8-1.1-1.1l-16.7-9.1c-0.4-0.2-0.9-0.4-1.5-0.4
			c-0.5,0-1,0.1-1.4,0.4c-0.4,0.3-0.8,0.6-1,1.1C745.3,242.4,745.2,242.9,745.2,243.4z"/>
	</g>
	<g>
		<path class="st29" d="M370.8,121h487.3c3.6,0,7,1.4,9.6,4c2.5,2.5,4,6,4,9.6V155H357.3v-20.4c0-3.6,1.4-7,4-9.6
			C363.8,122.4,367.2,121,370.8,121L370.8,121z"/>
	</g>
</g>
<g id="pessoa_1">
	<g>
		<path class="st30" d="M1115.7,879.6L1065,947c-1.2,1.6-3,2.6-4.9,2.9c-2,0.3-4-0.2-5.6-1.4l-4.7-3.5l59.7-79.4l4.7,3.5
			c1.6,1.2,2.6,3,2.9,4.9C1117.4,876,1116.9,878,1115.7,879.6z"/>
	</g>
	<g>
		<path class="st35" d="M1067.9,840.2l18.3,14.9l-18.6,28.6L1047,868L1067.9,840.2z"/>
	</g>
	<g>
		<path class="st36" d="M1076,847.4l-22.8,24.8l-5.5-4.4l21.3-26.2L1076,847.4z"/>
		<path class="st36" d="M1053.3,872.9l-6.3-5l21.9-27l7.8,6.5L1053.3,872.9z M1048.4,867.7l4.7,3.8l22.1-24.1l-6.2-5.1L1048.4,867.7
			z"/>
	</g>
	<g>
		<path class="st29" d="M1083.8,853.2c0,0-5.1,18-22,27.3l-15.3,59.7c0.5,3.4,4.3,5.6,6.9,6.4c0.6,0.2,1.2,0.2,1.7,0
			c0.6-0.2,1-0.5,1.4-1l54.2-72c0.9-1.2,1.3-2.7,1.1-4.2c-0.2-1.5-1-2.8-2.2-3.8c-4.7-3.7-12-9.3-15.1-11.2
			C1089.5,851.4,1086.1,850.7,1083.8,853.2z"/>
	</g>
	<g>
		<path class="st28" d="M1058.2,892.8l8.7-1.9c0.3-0.1,0.7-0.1,1,0s0.6,0.3,0.8,0.5c0.2,0.2,0.4,0.5,0.5,0.8s0.1,0.6,0.1,1
			c-0.1,0.4-0.2,0.8-0.5,1c-0.3,0.3-0.6,0.5-1,0.6L1057,897L1058.2,892.8z"/>
	</g>
	<g>
		<path class="st28" d="M1056.1,902.3l8.6-1.9c0.3-0.1,0.7-0.1,1,0s0.6,0.3,0.8,0.5c0.2,0.2,0.4,0.5,0.5,0.8s0.1,0.6,0.1,1
			c-0.1,0.4-0.3,0.8-0.5,1c-0.3,0.3-0.6,0.5-1,0.6l-10.5,2.2L1056.1,902.3z"/>
	</g>
	<g>
		<path class="st28" d="M1053.5,912.6l8.6-1.9c0.3-0.1,0.6-0.1,1,0s0.6,0.3,0.8,0.5c0.2,0.2,0.4,0.5,0.5,0.8s0.1,0.6,0.1,1
			c-0.1,0.4-0.2,0.8-0.5,1c-0.3,0.3-0.6,0.5-1,0.6l-10.4,2.1L1053.5,912.6z"/>
	</g>
	<g>
		<path class="st30" d="M894.2,761.6l144.7,116.6l33-38.5L945.4,721.1L894.2,761.6z"/>
	</g>
	<g>
		<path class="st37" d="M971.8,745.8v78.3l67.1,54l9.6-60.4L971.8,745.8z"/>
	</g>
	<g>
		<path class="st30" d="M907,547.3L883.3,737h66.5l57.8-188.7L907,547.3z"/>
	</g>
	<g>
		<path class="st37" d="M964.1,690l11.2-94.1h27.5L964.1,690z"/>
	</g>
	<g>
		<path class="st30" d="M1023.8,951.3h-84.3c-2,0-3.9-0.8-5.3-2.2c-1.4-1.4-2.2-3.3-2.2-5.3v-5.9h99.3v5.9c0,2-0.8,3.9-2.2,5.3
			C1027.7,950.5,1025.8,951.3,1023.8,951.3z"/>
	</g>
	<g>
		<path class="st35" d="M1026.6,889.4l-0.9,23.5l-34.1,2.4l0.2-25.9H1026.6z"/>
	</g>
	<g>
		<path class="st36" d="M1025.7,900.2l-33.5-3.3l0.2-7.1l33.7,1.3L1025.7,900.2z"/>
		<path class="st36" d="M1026.2,900.8l-34.5-3.4l0.2-8.1l34.7,1.3L1026.2,900.8z M992.7,896.4l32.5,3.2l0.4-8.1l-32.7-1.3
			L992.7,896.4z"/>
	</g>
	<g>
		<path class="st29" d="M1025.7,909.9c0,0-17.5,6.7-35.1-1.2l-56.9,23.7c-2.4,2.4-1.9,6.8-1,9.4c0.2,0.6,0.6,1,1,1.4
			c0.5,0.3,1.1,0.5,1.6,0.5h90.1c1.5,0,2.9-0.6,4-1.6c1.1-1.1,1.7-2.5,1.7-4c0.1-6,0.2-15.2-0.1-18.9
			C1030.6,913.4,1029.1,910.2,1025.7,909.9z"/>
	</g>
	<g>
		<path class="st28" d="M978.6,913.3l6.7,5.8c0.2,0.2,0.4,0.5,0.6,0.8c0.1,0.3,0.2,0.6,0.1,1c0,0.3-0.2,0.6-0.3,0.9
			c-0.2,0.3-0.4,0.5-0.7,0.6c-0.4,0.2-0.8,0.2-1.2,0.2c-0.4-0.1-0.8-0.2-1.1-0.5l-8.1-7.2L978.6,913.3z"/>
	</g>
	<g>
		<path class="st28" d="M969.9,917.3l6.7,5.8c0.2,0.2,0.4,0.5,0.6,0.8c0.1,0.3,0.2,0.6,0.1,1c0,0.3-0.2,0.6-0.3,0.9
			c-0.2,0.3-0.4,0.5-0.7,0.6c-0.4,0.2-0.8,0.2-1.1,0.2c-0.4-0.1-0.8-0.2-1.1-0.5L966,919L969.9,917.3z"/>
	</g>
	<g>
		<path class="st28" d="M960,921.4l6.7,5.7c0.2,0.2,0.4,0.5,0.6,0.8c0.1,0.3,0.2,0.6,0.1,1c0,0.3-0.2,0.6-0.3,0.9
			c-0.2,0.3-0.4,0.5-0.7,0.6c-0.4,0.2-0.8,0.2-1.1,0.2c-0.4-0.1-0.8-0.2-1.1-0.5l-7.9-7L960,921.4z"/>
	</g>
	<g>
		<path class="st30" d="M1047.8,548.3c-0.5,9.6-0.5,19.3,0,28.9c2.2,31.1-4.9,121.9-4.8,133.8c0,11.9-7.8,180.2-7.8,180.2h-47.8
			c0,0-12.2-144.6-12.5-161.1s-3.1-181-3.1-181L1047.8,548.3z"/>
	</g>
	<g>
		<path class="st37" d="M905.6,558.8l142.2,18.3v-28.9L906.3,553L905.6,558.8z"/>
	</g>
	<g>
		<path class="st30" d="M916.5,770.2c18.4,0,33.2-14.9,33.2-33.2s-14.9-33.2-33.2-33.2c-18.4,0-33.2,14.9-33.2,33.2
			S898.2,770.2,916.5,770.2z"/>
	</g>
	<g>
		<path class="st35" d="M1015.5,569.2c0,0-6.4,12.1-8,13.5c-1.5,1.4-27.2,4.6-32.2,6.3c-5,1.8-7.3,4.5-7.3,6.9h60.4
			c0,0,1.6-1.5,2.7-6.1s3.1-6.6,3.1-6.6L1015.5,569.2z"/>
	</g>
	<g>
		<path class="st29" d="M928.7,379c4-19.6-5.4-19.1-8.5-22.2c0,0-11.7-9.6-20.5-0.7c-9.4,9.5-63.3,83.1-63.3,83.1l33.7,31l6.3-7.6
			l16.4-19.6l17.6-20.9l2.2-2.4l23.7-26.8C936.3,393,926.4,389.4,928.7,379z"/>
	</g>
	<g>
		<path class="st29" d="M942.8,382.4c4.5-13.6-2.8-28.3-16.3-32.8c-13.6-4.5-28.3,2.8-32.8,16.3c-4.5,13.6,2.8,28.3,16.3,32.8
			C923.6,403.3,938.3,396,942.8,382.4z"/>
	</g>
	<g class="st38">
		<path class="st39" d="M912.3,419.7c0.7-4.1,2-12.3,3.5-19.8l7.8-36.1c0,0-20.9,30.9-30.5,52.4c-7.1,16.1-15.4,32.5-16.8,46.4
			l16.4-19.6l17.6-20.9L912.3,419.7z"/>
	</g>
	<g>
		<path class="st35" d="M802.7,356.4c-8-14.6-4.2-17.1-7.6-25.4c-3.4-8.1,2.6-28.2-3.1-25.5c-5.7,2.7-7.5,10-7.5,10
			c-3.9-6.9-7.5-19.6-16.8-21.1s-10.2,1.5-15.5,5.8c-14.1,11.7,3.9,29.3,6.9,36.1c1.9,4.2,16.1,17,17.7,19.8l7.1,10.4L802.7,356.4z"
			/>
	</g>
	<g>
		<path class="st36" d="M775.2,316.9c-0.2,0-0.4-0.1-0.5-0.3l-11.4-21c-0.1-0.3,0-0.6,0.2-0.7c0.3-0.1,0.6,0,0.7,0.2l11.4,21
			c0.1,0.3,0,0.6-0.2,0.7C775.4,316.9,775.3,316.9,775.2,316.9z"/>
	</g>
	<g>
		<path class="st36" d="M767.7,320.3c-0.2,0-0.4-0.1-0.5-0.3l-12.4-19.6c-0.2-0.3-0.1-0.6,0.2-0.7c0.3-0.2,0.6-0.1,0.7,0.2
			l12.4,19.6c0.2,0.3,0.1,0.6-0.2,0.7C767.9,320.3,767.8,320.3,767.7,320.3z"/>
	</g>
	<g>
		<path class="st36" d="M758.9,324.1c-0.2,0-0.4-0.1-0.5-0.3l-7.1-11.9c-0.2-0.3-0.1-0.6,0.2-0.7c0.3-0.2,0.6-0.1,0.7,0.2l7.1,11.9
			c0.2,0.3,0.1,0.6-0.2,0.7C759.1,324.1,759,324.1,758.9,324.1z"/>
	</g>
	<g>
		<path class="st36" d="M778,335.5C778,335.5,778,335.5,778,335.5c-0.3,0-0.5-0.2-0.5-0.5c0.1-7.3,4.3-16,4.5-16.3
			c0.1-0.3,0.5-0.4,0.7-0.2c0.3,0.1,0.4,0.5,0.2,0.7c0,0.1-4.2,8.8-4.3,15.9C778.5,335.3,778.3,335.5,778,335.5z"/>
	</g>
	<g>
		<path class="st29" d="M870.4,438.7l-68.6-91.3c-0.4-0.5-1.1-0.9-1.7-1c-0.7-0.1-1.4,0-2,0.4l-18,11.9c-0.9,0.6-1.5,1.5-1.7,2.5
			s-0.1,2.1,0.4,3L834,465.8L870.4,438.7z"/>
	</g>
	<g>
		<path class="st29" d="M853.7,477.3c12.7,0,23-10.3,23-23s-10.3-23-23-23s-23,10.3-23,23S841.1,477.3,853.7,477.3z"/>
	</g>
	<g>
		<path class="st27" d="M949.7,336.2c0,0-33.5,10.6-40.1,13.4s-7,13.8-7.5,21.6c-0.3,5.5,5.9,95.6,6.3,147.7
			c0.1,11.1-2,18.2-3.3,24.4s0,9.6,0,9.6l143.4,1.3c0,0-4.3-181.2-5.2-187.7c-0.9-6.4,6-12-1.5-15.2L987,336.2L949.7,336.2
			L949.7,336.2z"/>
	</g>
	<g>
		<path class="st29" d="M931.7,342c0,0,5.5,25,9,45s4.7,185.6,4.7,185.6s-41.9-8.1-47.6-17.8c-5.7-9.6,5.3-52.9,6.1-92.2
			c0.9-39.3-7.4-100.3,1.3-110.9C905.2,351.8,907.4,349.6,931.7,342z"/>
	</g>
	<g>
		<path class="st29" d="M1002.1,340.4c0,0-19.9,41.4-18.7,54.1c1.2,12.6,1.3,120.3,0,142.8c-0.8,13.7-2.9,27.3-6.2,40.5
			c0,0,54.3,3.8,75.2-2.7c0,0,10-62.7,3.4-85c-6.5-22.4-11.5-138.7-11.5-138.7L1002.1,340.4z"/>
	</g>
	<g class="st38">
		<path class="st39" d="M1016.8,396.1c0,0,2,75.1,1.6,100.1c-0.3,15.6-18.1,22.2-18.1,31.2c0,5.3,14.1-0.9,17.9,4.6
			c3.8,5.5-2.7,22.8-2.7,22.8l33.1-0.7l13.2-64.3l-27.9-97.7L1016.8,396.1z"/>
	</g>
	<g>
		<path class="st35" d="M950.4,319.5l-3.1,35c0,0-0.8,5.4,8.6,7.2c7.5,1.4,23.1-7.4,26.6-10.3c7.8-6.5,8.5-10.4,7.7-13.3
			c-1.2-4.3-5.1-34.5-5.1-34.5L950.4,319.5z"/>
	</g>
	<g>
		<path class="st36" d="M948.3,348.1l1.9-21.6l16.7-8.2L948.3,348.1z"/>
		<path class="st36" d="M948.7,348.4l-0.9-0.3l1.9-21.9l18.5-9.1L948.7,348.4z M950.7,326.8l-1.7,19.2l16.6-26.5L950.7,326.8z"/>
	</g>
	<g>
		<path class="st35" d="M931.8,253.2c0,0-6.4,28.6-7.2,48.1c-0.9,19.6,6.2,23.4,14.9,24.9c6.9,1.2,17.5,1.2,24.3-2.1
			c12.2-6.1,32.3-21,35-23.8c4.1-4.5,3.8-24.3-11.8-29.3C975.6,267.4,946.8,237,931.8,253.2z"/>
	</g>
	<g>
		<path class="st39" d="M931.9,256.3c9.3,3.6,26.8,1.2,36.4,4.4c9.6,3.1,0.9,6.4,1.3,15.7c0.3,6,0.7,17.5,4.4,17.3
			s5.8-13.2,13.6-12.7s11.4,3.8,11.2,8.8s-5.7,9.3-10.1,11.6c-5.5,2.9-7.8,1.7-7.8,1.7s6.2,22.8,7.1,21.9c0,0,6.7-3.8,7.9-10.4
			c0,0,8.9-1.9,6.9-10.8c0,0,5.5-1.8,2.9-6.9c0,0,14.3-9.6,6.8-21.4c0,0,6.8-6.8-1.3-9.6c0,0,10.7-15.7-4.5-19c0,0,1-7.4-6-7.1
			c0,0-3-12.7-18.3-7.7c-0.1-2.5-0.9-5-2.4-7.1s-3.6-3.6-6-4.5c-8.6-3.5-14.2,1.3-14.2,1.3s-9.1-7.4-13.8,3.4c0,0-6.8-3.5-12,0.2
			c-5.1,3.7-2.6,11.5-2.6,11.5s-5.9-1.4-8,3.5c-3,6.8,1.2,9.3,1.2,9.3s-9.6,11.3,3.9,22L931.9,256.3z"/>
	</g>
	<g>
		<path class="st36" d="M935.2,296.6c-0.1,0-0.2,0-0.4-0.1c-2.1-1.9-2.2-3.2-1.9-4.1c0.5-1.2,2.1-2,4.4-2c0.7,0,1.1-0.2,1.3-0.6
			c0.6-1-0.3-3.1-0.6-3.7c-0.1-0.3,0-0.6,0.2-0.7c0.3-0.1,0.6,0,0.7,0.2c0.2,0.3,1.6,3.1,0.6,4.8c-0.4,0.7-1.2,1.1-2.2,1.1
			c-1.8,0-3.1,0.5-3.4,1.3c-0.3,0.7,0.3,1.8,1.6,2.9c0.2,0.2,0.3,0.5,0.1,0.8C935.5,296.6,935.4,296.6,935.2,296.6z"/>
	</g>
	<g>
		<path class="st36" d="M935.9,300.7L935.9,300.7L935.9,300.7c2.2,0.2,6.7,0.5,9.6,0.7l0,0l0,0c0.1,0,0.2,0,0.2,0.1
			c0.1,0.1,0.1,0.1,0.2,0.2c0,0.1,0,0.2,0,0.3c0,0.1,0,0.2-0.1,0.2c-0.6,0.7-1.5,1.6-2.4,2.3c-1,0.7-2,1.3-3,1.6
			c-1,0.2-1.9,0.1-2.7-0.5c-0.8-0.7-1.6-2-2.2-4.2l0,0l0,0c0-0.1,0-0.1,0-0.2s0-0.1,0.1-0.2c0-0.1,0.1-0.1,0.2-0.1
			C935.8,300.7,935.8,300.7,935.9,300.7z"/>
		<path class="st36" d="M939.5,306.7c-0.8,0-1.5-0.2-2.1-0.7c-1-0.9-1.8-2.4-2.4-4.5l0-0.1v-0.2c0-0.2,0.1-0.3,0.2-0.5
			c0-0.1,0.1-0.2,0.2-0.2c0.1-0.2,0.3-0.3,0.5-0.3l0,0c1.9,0.2,5.5,0.4,8.3,0.6l1.3,0.1c0,0,0,0,0,0c0.4,0,0.5,0.2,0.6,0.3l0.3,0.3
			v0.5c0,0.4-0.2,0.5-0.3,0.6c-0.7,0.8-1.6,1.7-2.4,2.3c-1.3,0.9-2.2,1.4-3.2,1.7C940.2,306.7,939.8,306.7,939.5,306.7z M936,301.4
			c0.6,2.3,1.4,3.4,2,3.9c0.6,0.4,1.3,0.6,2.3,0.4c0.8-0.2,1.6-0.7,2.8-1.5c0.9-0.7,1.8-1.6,2.3-2.2l0,0l-1.2-0.1
			c-2.7-0.2-5.9-0.4-7.9-0.6v0.1L936,301.4z"/>
	</g>
	<g>
		<path class="st29" d="M1045.4,369.4c-14.8-13.5-19.1-5.2-23.4-4.1c0,0-14.2,5.1-11.1,17.3c3.3,12.9,38.8,97,38.8,97l44.8-10.6
			l-4.1-11.7L1082,433l-8.9-25.8l-0.9-3.1l-10.8-34.1C1061.3,370,1053.1,376.6,1045.4,369.4z"/>
	</g>
	<g>
		<path class="st29" d="M1052.7,395.5c10.9-9.3,12.1-25.7,2.8-36.5c-9.3-10.9-25.7-12.1-36.5-2.8c-10.9,9.3-12.1,25.7-2.8,36.5
			C1025.5,403.6,1041.8,404.8,1052.7,395.5z"/>
	</g>
	<g>
		<path class="st29" d="M1049.3,467.7l-39.6,107.1c-0.2,0.7-0.2,1.4,0.1,2s0.8,1.1,1.4,1.4l19.7,8.7c1,0.4,2,0.4,3,0.1
			c1-0.3,1.8-1,2.3-1.9l55.6-101.4L1049.3,467.7z"/>
	</g>
	<g>
		<path class="st29" d="M1071.5,496.2c12.7,0,23-10.3,23-23s-10.3-23-23-23s-23,10.3-23,23S1058.8,496.2,1071.5,496.2z"/>
	</g>
</g>
<g id="mesa">
	<g>
		<path class="st27" d="M450.9,612.2l-93.6,335.9h19.1l108.2-335.9L450.9,612.2L450.9,612.2z"/>
	</g>
	<g>
		<g>
			<defs>
				<path id="SVGID_00000150065719302082043060000013228013282099676085_" d="M1164.2,595.9H291.5v16.2h872.8v-16.2H1164.2z"/>
			</defs>
			<clipPath id="SVGID_00000178201971830558207300000014063651310333881754_">
				<use xlink:href="#SVGID_00000150065719302082043060000013228013282099676085_"  style="overflow:visible;"/>
			</clipPath>
			<polygon style="clip-path:url(#SVGID_00000178201971830558207300000014063651310333881754_);fill:#FFFFFF;" points="699.7,595.9 
				291.5,596.7 291.5,595.9 			"/>
			<polygon style="clip-path:url(#SVGID_00000178201971830558207300000014063651310333881754_);fill:#FFFFFF;" points="832.4,595.9 
				291.5,597 291.5,596.7 699.7,595.9 			"/>
			<polygon style="clip-path:url(#SVGID_00000178201971830558207300000014063651310333881754_);fill:#FEFFFF;" points="965.1,595.9 
				291.5,597.3 291.5,597 832.4,595.9 			"/>
			<polygon style="clip-path:url(#SVGID_00000178201971830558207300000014063651310333881754_);fill:#FDFEFF;" points="
				1097.9,595.9 291.5,597.5 291.5,597.3 965.1,595.9 			"/>
			<polygon style="clip-path:url(#SVGID_00000178201971830558207300000014063651310333881754_);fill:#FCFEFF;" points="1164.3,596 
				291.5,597.8 291.5,597.5 1097.9,595.9 1164.3,595.9 			"/>
			<polygon style="clip-path:url(#SVGID_00000178201971830558207300000014063651310333881754_);fill:#FBFDFF;" points="
				1164.3,596.3 291.5,598.1 291.5,597.8 1164.3,596 			"/>
			<polygon style="clip-path:url(#SVGID_00000178201971830558207300000014063651310333881754_);fill:#FAFDFF;" points="
				1164.3,596.6 291.5,598.3 291.5,598.1 1164.3,596.3 			"/>
			<polygon style="clip-path:url(#SVGID_00000178201971830558207300000014063651310333881754_);fill:#F9FCFE;" points="
				1164.3,596.8 291.5,598.6 291.5,598.3 1164.3,596.6 			"/>
			<polygon style="clip-path:url(#SVGID_00000178201971830558207300000014063651310333881754_);fill:#F8FCFE;" points="
				1164.3,597.1 291.5,598.9 291.5,598.6 1164.3,596.8 			"/>
			<polygon style="clip-path:url(#SVGID_00000178201971830558207300000014063651310333881754_);fill:#F7FBFE;" points="
				1164.3,597.4 291.5,599.1 291.5,598.9 1164.3,597.1 			"/>
			<polygon style="clip-path:url(#SVGID_00000178201971830558207300000014063651310333881754_);fill:#F6FBFE;" points="
				1164.3,597.6 291.5,599.4 291.5,599.1 1164.3,597.4 			"/>
			<polygon style="clip-path:url(#SVGID_00000178201971830558207300000014063651310333881754_);fill:#F5FBFE;" points="
				1164.3,597.9 291.5,599.7 291.5,599.4 1164.3,597.6 			"/>
			<polygon style="clip-path:url(#SVGID_00000178201971830558207300000014063651310333881754_);fill:#F4FAFE;" points="
				1164.3,598.2 291.5,599.9 291.5,599.7 1164.3,597.9 			"/>
			<polygon style="clip-path:url(#SVGID_00000178201971830558207300000014063651310333881754_);fill:#F3FAFE;" points="
				1164.3,598.4 291.5,600.2 291.5,599.9 1164.3,598.2 			"/>
			<polygon style="clip-path:url(#SVGID_00000178201971830558207300000014063651310333881754_);fill:#F2F9FE;" points="
				1164.3,598.7 291.5,600.5 291.5,600.2 1164.3,598.4 			"/>
			<polygon style="clip-path:url(#SVGID_00000178201971830558207300000014063651310333881754_);fill:#F1F9FE;" points="1164.3,599 
				291.5,600.7 291.5,600.5 1164.3,598.7 			"/>
			<polygon style="clip-path:url(#SVGID_00000178201971830558207300000014063651310333881754_);fill:#F0F8FE;" points="
				1164.3,599.2 291.5,601 291.5,600.7 1164.3,599 			"/>
			<polygon style="clip-path:url(#SVGID_00000178201971830558207300000014063651310333881754_);fill:#EFF8FD;" points="
				1164.3,599.5 291.5,601.3 291.5,601 1164.3,599.2 			"/>
			<polygon style="clip-path:url(#SVGID_00000178201971830558207300000014063651310333881754_);fill:#EEF8FD;" points="
				1164.3,599.8 291.5,601.5 291.5,601.3 1164.3,599.5 			"/>
			<polygon style="clip-path:url(#SVGID_00000178201971830558207300000014063651310333881754_);fill:#EDF7FD;" points="1164.3,600 
				291.5,601.8 291.5,601.5 1164.3,599.8 			"/>
			<polygon style="clip-path:url(#SVGID_00000178201971830558207300000014063651310333881754_);fill:#ECF7FD;" points="
				1164.3,600.3 291.5,602.1 291.5,601.8 1164.3,600 			"/>
			<polygon style="clip-path:url(#SVGID_00000178201971830558207300000014063651310333881754_);fill:#EBF6FD;" points="
				1164.3,600.6 291.5,602.3 291.5,602.1 1164.3,600.3 			"/>
			<polygon style="clip-path:url(#SVGID_00000178201971830558207300000014063651310333881754_);fill:#EAF6FD;" points="
				1164.3,600.8 291.5,602.6 291.5,602.3 1164.3,600.6 			"/>
			<polygon style="clip-path:url(#SVGID_00000178201971830558207300000014063651310333881754_);fill:#E9F5FD;" points="
				1164.3,601.1 291.5,602.9 291.5,602.6 1164.3,600.8 			"/>
			<polygon style="clip-path:url(#SVGID_00000178201971830558207300000014063651310333881754_);fill:#E8F5FD;" points="
				1164.3,601.4 291.5,603.1 291.5,602.9 1164.3,601.1 			"/>
			<polygon style="clip-path:url(#SVGID_00000178201971830558207300000014063651310333881754_);fill:#E7F4FD;" points="
				1164.3,601.6 291.5,603.4 291.5,603.1 1164.3,601.4 			"/>
			<polygon style="clip-path:url(#SVGID_00000178201971830558207300000014063651310333881754_);fill:#E6F4FD;" points="
				1164.3,601.9 291.5,603.7 291.5,603.4 1164.3,601.6 			"/>
			<polygon style="clip-path:url(#SVGID_00000178201971830558207300000014063651310333881754_);fill:#E4F4FC;" points="
				1164.3,602.2 291.5,603.9 291.5,603.7 1164.3,601.9 			"/>
			<polygon style="clip-path:url(#SVGID_00000178201971830558207300000014063651310333881754_);fill:#E3F3FC;" points="
				1164.3,602.4 291.5,604.2 291.5,603.9 1164.3,602.2 			"/>
			<polygon style="clip-path:url(#SVGID_00000178201971830558207300000014063651310333881754_);fill:#E2F3FC;" points="
				1164.3,602.7 291.5,604.5 291.5,604.2 1164.3,602.4 			"/>
			<polygon style="clip-path:url(#SVGID_00000178201971830558207300000014063651310333881754_);fill:#E1F2FC;" points="1164.3,603 
				291.5,604.7 291.5,604.5 1164.3,602.7 			"/>
			<polygon style="clip-path:url(#SVGID_00000178201971830558207300000014063651310333881754_);fill:#E0F2FC;" points="
				1164.3,603.2 291.5,605 291.5,604.7 1164.3,603 			"/>
			<polygon style="clip-path:url(#SVGID_00000178201971830558207300000014063651310333881754_);fill:#DFF1FC;" points="
				1164.3,603.5 291.5,605.3 291.5,605 1164.3,603.2 			"/>
			<polygon style="clip-path:url(#SVGID_00000178201971830558207300000014063651310333881754_);fill:#DEF1FC;" points="
				1164.3,603.8 291.5,605.5 291.5,605.3 1164.3,603.5 			"/>
			<polygon style="clip-path:url(#SVGID_00000178201971830558207300000014063651310333881754_);fill:#DDF0FC;" points="1164.3,604 
				291.5,605.8 291.5,605.5 1164.3,603.8 			"/>
			<polygon style="clip-path:url(#SVGID_00000178201971830558207300000014063651310333881754_);fill:#DCF0FC;" points="
				1164.3,604.3 291.5,606.1 291.5,605.8 1164.3,604 			"/>
			<polygon style="clip-path:url(#SVGID_00000178201971830558207300000014063651310333881754_);fill:#DBF0FC;" points="
				1164.3,604.6 291.5,606.3 291.5,606.1 1164.3,604.3 			"/>
			<polygon style="clip-path:url(#SVGID_00000178201971830558207300000014063651310333881754_);fill:#DAEFFB;" points="
				1164.3,604.8 291.5,606.6 291.5,606.3 1164.3,604.6 			"/>
			<polygon style="clip-path:url(#SVGID_00000178201971830558207300000014063651310333881754_);fill:#D9EFFB;" points="
				1164.3,605.1 291.5,606.9 291.5,606.6 1164.3,604.8 			"/>
			<polygon style="clip-path:url(#SVGID_00000178201971830558207300000014063651310333881754_);fill:#D8EEFB;" points="
				1164.3,605.4 291.5,607.1 291.5,606.9 1164.3,605.1 			"/>
			<polygon style="clip-path:url(#SVGID_00000178201971830558207300000014063651310333881754_);fill:#D7EEFB;" points="
				1164.3,605.6 291.5,607.4 291.5,607.1 1164.3,605.4 			"/>
			<polygon style="clip-path:url(#SVGID_00000178201971830558207300000014063651310333881754_);fill:#D6EDFB;" points="
				1164.3,605.9 291.5,607.7 291.5,607.4 1164.3,605.6 			"/>
			<polygon style="clip-path:url(#SVGID_00000178201971830558207300000014063651310333881754_);fill:#D5EDFB;" points="
				1164.3,606.2 291.5,607.9 291.5,607.7 1164.3,605.9 			"/>
			<polygon style="clip-path:url(#SVGID_00000178201971830558207300000014063651310333881754_);fill:#D4EDFB;" points="
				1164.3,606.4 291.5,608.2 291.5,607.9 1164.3,606.2 			"/>
			<polygon style="clip-path:url(#SVGID_00000178201971830558207300000014063651310333881754_);fill:#D3ECFB;" points="
				1164.3,606.7 291.5,608.5 291.5,608.2 1164.3,606.4 			"/>
			<polygon style="clip-path:url(#SVGID_00000178201971830558207300000014063651310333881754_);fill:#D2ECFB;" points="1164.3,607 
				291.5,608.7 291.5,608.5 1164.3,606.7 			"/>
			<polygon style="clip-path:url(#SVGID_00000178201971830558207300000014063651310333881754_);fill:#D1EBFB;" points="
				1164.3,607.2 291.5,609 291.5,608.7 1164.3,607 			"/>
			<polygon style="clip-path:url(#SVGID_00000178201971830558207300000014063651310333881754_);fill:#D0EBFA;" points="
				1164.3,607.5 291.5,609.3 291.5,609 1164.3,607.2 			"/>
			<polygon style="clip-path:url(#SVGID_00000178201971830558207300000014063651310333881754_);fill:#CFEAFA;" points="
				1164.3,607.8 291.5,609.5 291.5,609.3 1164.3,607.5 			"/>
			<polygon style="clip-path:url(#SVGID_00000178201971830558207300000014063651310333881754_);fill:#CEEAFA;" points="1164.3,608 
				291.5,609.8 291.5,609.5 1164.3,607.8 			"/>
			<polygon style="clip-path:url(#SVGID_00000178201971830558207300000014063651310333881754_);fill:#CDE9FA;" points="
				1164.3,608.3 291.5,610.1 291.5,609.8 1164.3,608 			"/>
			<polygon style="clip-path:url(#SVGID_00000178201971830558207300000014063651310333881754_);fill:#CCE9FA;" points="
				1164.3,608.6 291.5,610.3 291.5,610.1 1164.3,608.3 			"/>
			<polygon style="clip-path:url(#SVGID_00000178201971830558207300000014063651310333881754_);fill:#CCE9FA;" points="291.5,610.3 
				1164.3,608.6 1164.3,612.1 291.5,612.1 			"/>
		</g>
	</g>
	<g>
		<path class="st27" d="M321.9,612.2l-93.6,335.9h19.1l108.2-335.9L321.9,612.2L321.9,612.2z"/>
	</g>
	<g>
		<path class="st29" d="M321.9,612.2l-6.9,24.7l35.9-10.2l4.7-14.5H321.9z"/>
	</g>
	<g>
		<path class="st91" d="M1119.6,612.2l93.6,335.9h-19.1l-108.2-335.9L1119.6,612.2L1119.6,612.2z"/>
	</g>
	<g>
		<path class="st29" d="M1119.6,612.2l5.2,18.9l-34-3.8l-4.8-15.1L1119.6,612.2L1119.6,612.2z"/>
	</g>
	<g>
		<path class="st29" d="M1164.2,595.9h-143.7v16.2h143.7V595.9z"/>
	</g>
	<g>
		<path class="st27" d="M990.6,612.2l93.6,335.9h-19.1L957,612.2H990.6z"/>
	</g>
	<g>
		<path class="st29" d="M990.6,612.2l6.9,24.7l-35.9-10.2l-4.7-14.5H990.6z"/>
	</g>
</g>
<g id="pessoa_2">
	<g>
		<path class="st92" d="M618.4,512.2c11.2-12.4,8-15.7,13.3-23c5.1-7.1,4-28.1,8.9-24.1s4.9,11.5,4.9,11.5
			c5.4-5.8,11.8-17.3,21.3-16.6c9.4,0.8,9.5,3.8,13.7,9.3c11,14.7-10.6,27.6-15.1,33.5c-2.9,3.6-19.6,12.8-21.8,15.2l-9.3,8.4
			L618.4,512.2z"/>
	</g>
	<g>
		<path class="st93" d="M654.4,480.2c-0.1,0-0.3,0-0.4-0.1c-0.2-0.2-0.2-0.5,0-0.8l16-17.8c0.2-0.2,0.5-0.2,0.8,0
			c0.2,0.2,0.2,0.5,0,0.8l-16,17.8C654.7,480.2,654.5,480.2,654.4,480.2z"/>
	</g>
	<g>
		<path class="st93" d="M660.9,485.3c-0.1,0-0.3-0.1-0.4-0.2c-0.2-0.2-0.2-0.6,0-0.8l16.6-16.2c0.2-0.2,0.6-0.2,0.8,0
			c0.2,0.2,0.2,0.6,0,0.8l-16.6,16.2C661.2,485.3,661,485.3,660.9,485.3z"/>
	</g>
	<g>
		<path class="st93" d="M668.6,491c-0.1,0-0.3-0.1-0.4-0.2c-0.2-0.2-0.2-0.5,0-0.8l9.7-9.9c0.2-0.2,0.5-0.2,0.8,0
			c0.2,0.2,0.2,0.5,0,0.8l-9.7,9.9C668.9,491,668.7,491,668.6,491z"/>
	</g>
	<g>
		<path class="st94" d="M450.9,612.2l-6.9,24.7l35.9-10.2l4.7-14.5H450.9z"/>
	</g>
	<g>
		<path class="st95" d="M710.3,931c-12.9-4.6-26.2-9.3-38.4-8.4c-0.3,0-0.5,0.1-0.8,0.2c-0.2,0.1-0.5,0.3-0.6,0.5
			c-0.2,0.2-0.3,0.5-0.3,0.7c-0.1,0.3-0.1,0.6,0,0.8l5.1,21.7c0.1,0.4,0.4,0.8,0.7,1.1c0.4,0.3,0.8,0.4,1.3,0.3l83.3-8
			c6.1-0.6,9.1-4.2,9.5-9.2c0-0.2,0-0.3-0.1-0.5s-0.2-0.3-0.4-0.4c-0.2-0.1-0.3-0.1-0.5-0.1s-0.3,0.1-0.5,0.2
			c-9.2,6.9-20.7,9.9-32.1,8.4C728.4,937.4,719.4,934.2,710.3,931z"/>
	</g>
	<g>
		<path class="st96" d="M665.2,868.4c0,0,8.6,34.1,8.8,37.7c0,2-0.1,4.1-0.4,6.1c-0.4,3.6-0.8,7.6-0.2,10.3
			c11.8-0.4,24.5,4.1,36.8,8.5c9.1,3.2,18.1,6.4,26.3,7.4c10.8,1.4,21.8-1.2,30.8-7.5c-0.4-6.2-6.3-11.5-17.2-11.4
			c-19.5,0.2-30.3-0.2-41.1-13.3c-7.6-9.3-11.3-48.7-11.3-48.7L665.2,868.4z"/>
	</g>
	<g>
		<path class="st97" d="M706.7,900.8c-3.6,0.8-17.9,4.1-31.8,6.4c-2.7,0.4-3.6,6-1.5,8.8c1.4,2.1,2.7,4.2,3.7,6.5
			c4.9,0.3,9.7,1.1,14.4,2.4c-2.5-5.3,0.2-8.8,5.3-10c4-1,13.8-1.2,18.8-1.2c0.3,0,0.5-0.1,0.8-0.2c0.2-0.2,0.4-0.4,0.5-0.6
			c0.1-0.3,0.2-0.5,0.1-0.8c0-0.3-0.2-0.5-0.3-0.7l-8.5-10c-0.2-0.2-0.4-0.4-0.7-0.4C707.2,900.8,706.9,900.8,706.7,900.8z"/>
	</g>
	<g>
		<path class="st97" d="M757.7,936c-8.9,3.5-15.2,2.7-15.2,2.7l-1.9-19.7l15.4-0.8L757.7,936z"/>
	</g>
	<g>
		<path class="st92" d="M657.1,731c14.8-4.4,23.2-20,18.8-34.8s-20-23.2-34.8-18.8s-23.2,20-18.8,34.8S642.3,735.4,657.1,731z"/>
	</g>
	<g>
		<path class="st92" d="M657.3,677.5L611,661.6l-21.6,58.1l60,10.4L657.3,677.5z"/>
	</g>
	<g>
		<path class="st92" d="M676.8,700.5l23.5,175.9L669.8,887l-46.2-167L676.8,700.5z"/>
	</g>
	<g>
		<path class="st95" d="M580.1,943.2c-12.2-6.2-24.7-12.6-37-13.4c-0.3,0-0.6,0-0.8,0.1c-0.3,0.1-0.5,0.3-0.7,0.5s-0.3,0.4-0.4,0.7
			s-0.1,0.5-0.1,0.8l2.2,22.2c0,0.5,0.3,0.9,0.6,1.2s0.8,0.5,1.2,0.5l83.6,3c6.2,0.2,9.6-3,10.7-7.9c0-0.2,0-0.3,0-0.5
			c-0.1-0.2-0.2-0.3-0.3-0.4c-0.1-0.1-0.3-0.2-0.5-0.2s-0.3,0-0.5,0.1c-10,5.6-21.8,7.1-32.9,4.1
			C597.2,951.9,588.7,947.6,580.1,943.2z"/>
	</g>
	<g>
		<path class="st98" d="M543.7,875.2c0,0,4,34.9,3.8,38.6c-0.2,2-0.6,4-1.2,6c-0.9,3.5-1.8,7.5-1.5,10.2
			c11.7,1.2,23.7,7.3,35.3,13.2c8.6,4.4,17.1,8.7,25.1,10.8c10.6,2.8,21.8,1.6,31.5-3.3c0.4-6.2-4.7-12.2-15.5-13.5
			c-19.4-2.4-30-4.2-39-18.6c-6.4-10.3-4.8-49.8-4.8-49.8L543.7,875.2z"/>
	</g>
	<g>
		<path class="st97" d="M580.5,912.8c-3.7,0.4-18.3,1.7-32.4,2.1c-2.7,0.1-4.3,5.5-2.7,8.5c1.1,2.2,2.1,4.5,2.8,6.9
			c4.8,0.9,9.5,2.3,13.9,4.2c-1.8-5.6,1.3-8.7,6.6-9.3c4.1-0.5,13.8,0.7,18.8,1.3c0.3,0,0.6,0,0.8-0.1c0.3-0.1,0.5-0.3,0.6-0.5
			s0.2-0.5,0.2-0.8s-0.1-0.5-0.2-0.8l-7.1-11c-0.1-0.2-0.3-0.4-0.6-0.5C581,912.8,580.8,912.8,580.5,912.8z"/>
	</g>
	<g>
		<path class="st97" d="M626.4,954.4c-9.3,2.2-15.4,0.7-15.4,0.7l0.7-19.8l15.3,1.3L626.4,954.4z"/>
	</g>
	<g>
		<path class="st94" d="M549.3,738.8c-13.7,0-25.8-10-28.1-24c-2.5-15.6,8.2-30.3,23.7-32.7c15.6-2.4,30.3,8.2,32.7,23.7
			c2.4,15.6-8.2,30.3-23.7,32.7C552.3,738.7,550.8,738.8,549.3,738.8z M549.3,682.8c-1.4,0-2.9,0.1-4.3,0.3c-7.2,1.1-13.6,5-17.9,11
			c-4.3,5.9-6,13.2-4.9,20.5c2.4,15,16.6,25.2,31.5,22.7l0,0c14.9-2.3,25.1-16.5,22.7-31.5C574.3,692.4,562.6,682.8,549.3,682.8z"/>
	</g>
	<g>
		<path class="st99" d="M577.3,710.3l0.1,177.5l-31.7,6.4L522,722.5L577.3,710.3z"/>
	</g>
	<g>
		<path class="st30" d="M494.4,645.5c0,0-8.5,41.7,2.6,59.1c14.1,22,31.4,25.4,44.2,25.6l69-5.9c0,0-0.5-39.6,25.1-54.5
			C635.3,669.8,530.6,631.1,494.4,645.5z"/>
	</g>
	<g>
		<path class="st92" d="M467.9,432.9l-5.5,28l-31.7-2.2l6.1-29.7L467.9,432.9z"/>
	</g>
	<g>
		<path class="st99" d="M467.5,434.5l-2.7,13.6c0,0-7.3-6.2-8.7-15.9L467.5,434.5z"/>
	</g>
	<g>
		<path class="st29" d="M420.9,466.7c0,0,7.2-18.8,11.5-16.6c10.2,5.4,25.2,4.4,31.8,1.2c4-2,4.1,15.4,4.1,15.4H420.9z"/>
	</g>
	<g>
		<path class="st29" d="M420.9,466.7l-30.4,4.1c-0.8,0.1-1.6,0.5-2.1,1.2s-0.8,1.5-0.7,2.3l21.2,201.5l109-10.7l-13.5-191.8
			l-36.1-6.7L420.9,466.7L420.9,466.7z"/>
	</g>
	<g class="st38">
		<path class="st39" d="M498.5,524.1l-8.5-15.5l2.1,15.5H498.5z"/>
	</g>
	<g>
		<path class="st29" d="M502.6,473c11.5,1.8,21.1,9.4,24.3,16.1l28.4,64.8l69.8-55.8L645,519l-62.8,77.5
			c-12.6,16.6-34.5,23.5-49.3,1.8L509.2,561L502.6,473z"/>
	</g>
	<g class="st38">
		<path class="st39" d="M555.3,553.9l7.9,15.6l6-26.8L555.3,553.9z"/>
	</g>
	<g>
		<path class="st29" d="M390.7,470.7c0,0-8.2-0.1-15.1,11.9c-6.9,12.1-34.9,85.2-34.9,85.2s-12.8,27.6,13.1,28.6H408L390.7,470.7z"
			/>
	</g>
	<g class="st38">
		<path class="st39" d="M396.8,524.1l-2.3-10.1l-5.7,10.1H396.8z"/>
	</g>
	<g>
		<path class="st94" d="M540.2,730.1H421.8c-3.7,0-7.3-1.3-10.1-3.8c-2.8-2.4-4.7-5.8-5.2-9.5l-25-175c-0.3-2.2-0.2-4.4,0.5-6.6
			c0.6-2.1,1.7-4.1,3.2-5.8s3.2-3,5.3-3.9c2-0.9,4.2-1.4,6.4-1.4h118.3c3.7,0,7.3,1.3,10.1,3.8c2.8,2.4,4.7,5.8,5.2,9.5l25,175
			c0.3,2.2,0.2,4.4-0.5,6.6c-0.6,2.1-1.7,4.1-3.2,5.8s-3.2,3-5.3,3.9C544.6,729.6,542.4,730.1,540.2,730.1z"/>
	</g>
	<g>
		<path class="st94" d="M532.2,730.1h90.6c0.8,0,1.5-0.2,2.2-0.6c0.7-0.4,1.2-1,1.6-1.6s0.6-1.4,0.6-2.2s-0.2-1.5-0.6-2.2
			c-0.3-0.5-0.7-1-1.2-1.3c-0.5-0.4-1.1-0.6-1.6-0.7l-73.4-15.9L532.2,730.1z"/>
	</g>
	<g>
		<path class="st27" d="M532.2,730.1H413.9c-3.7,0-7.3-1.3-10.1-3.8c-2.8-2.4-4.7-5.8-5.2-9.5l-25-175c-0.3-2.2-0.2-4.4,0.5-6.6
			c0.6-2.1,1.7-4.1,3.2-5.8s3.2-3,5.3-3.9c2-0.9,4.2-1.4,6.4-1.4h118.3c3.7,0,7.3,1.3,10.1,3.8c2.8,2.4,4.7,5.8,5.2,9.5l25,175
			c0.3,2.2,0.2,4.4-0.5,6.6c-0.6,2.1-1.7,4.1-3.2,5.8s-3.2,3-5.3,3.9C536.6,729.6,534.4,730.1,532.2,730.1z"/>
	</g>
	<g>
		<path class="st100" d="M451.5,730.1h86.3c0,9.5-3.8,18.6-10.5,25.4c-6.7,6.7-15.9,10.5-25.4,10.5h-14.5c-9.5,0-18.6-3.8-25.4-10.5
			C455.3,748.7,451.5,739.6,451.5,730.1z"/>
	</g>
	<g>
		<path class="st100" d="M496.5,766h-3.8v172.5h3.8V766z"/>
	</g>
	<g>
		<path class="st30" d="M492.7,938.5l-52.6,17h108.2l-51.8-17H492.7z"/>
	</g>
	<g>
		<path class="st92" d="M469.3,373.6c0,0,12.6,22.7,16.9,32.1c4.4,9.4,5.9,19.5-1.4,24.1c-9.9,6.3-20.8,4.9-32.6,3.6
			c-10.2-1.1-23-29.9-21.4-36.9C432.4,389.4,450.1,361.2,469.3,373.6z"/>
	</g>
	<g>
		<path class="st93" d="M480.1,415.4c-1.6,0-3.2-0.4-4.6-1.3c-0.2-0.1-0.3-0.5-0.2-0.7c0.1-0.2,0.5-0.3,0.7-0.2
			c2.4,1.5,5.7,1.5,8.1,0c0.2-0.1,0.5-0.1,0.7,0.2c0.1,0.2,0.1,0.5-0.2,0.7C483.3,415,481.7,415.4,480.1,415.4z"/>
	</g>
	<g>
		<path class="st39" d="M460.3,387.2l20.6-10.4c0,0-7.5-24.2-34.8-26.8c-20-1.9-38.7,9.2-45.9,26.4c-7.2,17.3-1,45.7,17.3,52.5
			c15.5,5.8,15,21.1,15,21.1l22.7-29.7c0,0-15.7-7.6-11.9-16.9c5.1-12.6,17.9,2,17.9,2l-8.7-25.2L460.3,387.2z"/>
	</g>
	<g>
		<path class="st92" d="M482,397.2c0,0,3.4,4.5,5.5,5.3c2.1,0.9,0.2,4-1.2,4.5C485,407.4,481.2,399.3,482,397.2z"/>
	</g>
	<g>
		<path class="st37" d="M397.3,421.5c13.5,0,24.4-10.9,24.4-24.4s-10.9-24.4-24.4-24.4s-24.4,10.9-24.4,24.4
			S383.8,421.5,397.3,421.5z"/>
	</g>
	<g>
		<path class="st39" d="M394.6,422.6c13.5,0,24.4-10.9,24.4-24.4s-10.9-24.4-24.4-24.4s-24.4,10.9-24.4,24.4
			S381.1,422.6,394.6,422.6z"/>
	</g>
</g>
<g>
	<g>
		<path class="st32" d="M1111.8,323.2c39,0,70.6-31.6,70.6-70.6s-31.6-70.6-70.6-70.6s-70.6,31.6-70.6,70.6
			C1041.2,291.6,1072.8,323.2,1111.8,323.2z"/>
	</g>
	<g>
		<path class="st28" d="M1121.2,284.4h-19c-1,0-1.9-0.8-1.9-1.9v-7.1c-4.2-1.9-7.7-4.7-10.3-8.3c-2.8-3.8-4.7-8.5-5.2-13.4
			c-0.5-4.9,0.3-9.8,2.4-14.3c2.2-4.6,5.5-8.4,9.5-11c4.1-2.8,8.8-4.4,13.7-4.6c4.6-0.3,9.6,0.8,14,3.1c4.4,2.4,8.1,5.8,10.5,10
			c2.6,4.3,3.9,9,3.9,13.9c0,5.4-1.6,10.6-4.6,15c-2.7,4.1-6.5,7.4-11.1,9.5v7.1C1123.1,283.5,1122.2,284.4,1121.2,284.4z
			 M1104.1,280.6h15.3v-6.4c0-0.8,0.5-1.4,1.1-1.7c4.4-1.8,8-4.8,10.6-8.6c2.6-3.8,4-8.3,4-13c0-4.3-1.1-8.4-3.3-12
			c-2.1-3.6-5.3-6.6-9.1-8.6c-3.8-2-8.1-2.9-12.1-2.7c-4.2,0.2-8.3,1.6-11.9,4c-3.4,2.3-6.3,5.5-8.2,9.5c-1.8,3.8-2.5,8.1-2,12.3
			c0.5,4.2,2.1,8.3,4.5,11.6c2.5,3.4,5.9,6,9.9,7.6c0.7,0.3,1.2,1,1.2,1.7V280.6z"/>
	</g>
	<g>
		<path class="st28" d="M1114.8,295h-6.1c-2.2,0-4.4-0.9-5.9-2.4c-1.6-1.6-2.4-3.7-2.4-5.9v-4.1c0-1,0.8-1.9,1.9-1.9h19.1
			c1,0,1.9,0.8,1.9,1.9v4.1c0,2.2-0.9,4.4-2.4,5.9C1119.2,294.1,1117,295,1114.8,295z M1104.1,284.4v2.2c0,1.2,0.5,2.4,1.4,3.3
			c0.8,0.8,2.1,1.4,3.3,1.4h6.1c1.2,0,2.4-0.5,3.3-1.4c0.8-0.8,1.4-2.1,1.4-3.3v-2.2H1104.1z"/>
	</g>
	<g>
		<path class="st28" d="M1115.9,284.4c-1,0-1.9-0.8-1.9-1.9v-24.4h-4.7v24.4c0,1-0.8,1.9-1.9,1.9s-1.9-0.8-1.9-1.9v-24.4h-0.8
			c-0.6,0-1.2-0.2-1.6-0.3c-0.2-0.1-0.3-0.1-0.4-0.2c-0.3-0.2-0.7-0.4-1-0.7c-0.5-0.4-1-1-1.2-1.6c-0.1-0.4-0.3-1-0.3-1.6
			c0-1.1,0.5-2.2,1.3-3c0.8-0.9,1.9-1.4,3.2-1.4h0.1c1.3,0,2.4,0.8,3,1.2c0.9,0.8,1.5,2,1.5,3.3v0.7h4.7v-0.7c0-1.1,0.5-2.3,1.3-3.1
			c0.9-0.9,2-1.3,3.1-1.3h0.2c1.3,0,2.4,0.8,3,1.2c0.9,0.8,1.5,2,1.5,3.3c0,0.6-0.2,1.2-0.3,1.6c-0.1,0.2-0.1,0.3-0.2,0.4
			c-0.2,0.3-0.4,0.7-0.7,1c-0.4,0.5-1,1-1.6,1.2c-0.4,0.1-1,0.3-1.6,0.3h-0.9v24.4C1117.8,283.5,1116.9,284.4,1115.9,284.4z
			 M1119,254.4L1119,254.4L1119,254.4z M1104.6,254.3c0.1,0,0.2,0,0.2,0h0.8v-0.7c0-0.2-0.1-0.3-0.1-0.4c-0.3-0.3-0.6-0.4-0.7-0.4
			l0,0c-0.2,0-0.3,0.1-0.4,0.1c0,0.1-0.1,0.1-0.1,0.1c-0.2,0.2-0.3,0.4-0.3,0.5c0,0,0,0.2,0.1,0.3c0.1,0,0.1,0.1,0.2,0.2
			C1104.4,254.1,1104.5,254.2,1104.6,254.3z M1118.6,252.9l-0.1,0c-0.1,0-0.2,0-0.5,0.3c-0.2,0.2-0.3,0.4-0.3,0.5v0.7h0.9
			c0,0,0.2,0,0.3-0.1c0-0.1,0.1-0.1,0.2-0.2c0,0,0.1-0.2,0.2-0.3c0-0.1,0-0.2,0-0.2c0-0.2-0.1-0.3-0.1-0.3
			C1119,253,1118.7,252.9,1118.6,252.9z M1104,253.9C1104,253.9,1104,253.9,1104,253.9C1104,253.9,1104,253.9,1104,253.9z"/>
	</g>
	<g>
		<path class="st28" d="M1111.8,220.6c-1,0-1.9-0.8-1.9-1.9v-6.5c0-1,0.8-1.9,1.9-1.9s1.9,0.8,1.9,1.9v6.5
			C1113.7,219.7,1112.8,220.6,1111.8,220.6z"/>
	</g>
	<g>
		<path class="st28" d="M1091.7,225.9c-0.6,0-1.3-0.3-1.6-0.9l-3.2-5.6c-0.5-0.9-0.2-2,0.7-2.5c0.9-0.5,2-0.2,2.5,0.7l3.2,5.6
			c0.5,0.9,0.2,2-0.7,2.5C1092.3,225.8,1092,225.9,1091.7,225.9z"/>
	</g>
	<g>
		<path class="st28" d="M1077,240.6c-0.3,0-0.6-0.1-0.9-0.2l-5.6-3.2c-0.9-0.5-1.2-1.6-0.7-2.5c0.5-0.9,1.6-1.2,2.5-0.7l5.6,3.2
			c0.9,0.5,1.2,1.6,0.7,2.5C1078.3,240.2,1077.6,240.6,1077,240.6z"/>
	</g>
	<g>
		<path class="st28" d="M1146.5,240.6c-0.6,0-1.3-0.3-1.6-0.9c-0.5-0.9-0.2-2,0.7-2.5l5.6-3.2c0.9-0.5,2-0.2,2.5,0.7
			c0.5,0.9,0.2,2-0.7,2.5l-5.6,3.2C1147.1,240.5,1146.8,240.6,1146.5,240.6z"/>
	</g>
	<g>
		<path class="st28" d="M1131.9,226c-0.3,0-0.6-0.1-0.9-0.2c-0.9-0.5-1.2-1.6-0.7-2.5l3.2-5.6c0.5-0.9,1.6-1.2,2.5-0.7
			c0.9,0.5,1.2,1.6,0.7,2.5l-3.2,5.6C1133.2,225.6,1132.5,226,1131.9,226z"/>
	</g>
</g>
</svg>
