<?xml version="1.0" encoding="UTF-8" ?>
<!DOCTYPE svg PUBLIC "-//W3C//DTD SVG 1.1//EN"
  "http://www.w3.org/Graphics/SVG/1.1/DTD/svg11.dtd">
<!-- Creator: CorelDRAW 2020 (64 Bit) -->
<svg
  xmlns="http://www.w3.org/2000/svg"
  xml:space="preserve"
  width="917.13mm"
  height="638.431mm"
  version="1.1"
  style="shape-rendering:geometricPrecision; text-rendering:geometricPrecision; image-rendering:optimizeQuality; fill-rule:evenodd; clip-rule:evenodd"
  viewBox="0 0 97908.2 68155.69"
  xmlns:xlink="http://www.w3.org/1999/xlink"
  xmlns:xodm="http://www.corel.com/coreldraw/odm/2003"
>
 <defs>
  <style type="text/css">
   <![CDATA[
    .fil2 {fill:#07345A;fill-rule:nonzero}
    .fil26 {fill:#0E2E35;fill-rule:nonzero}
    .fil38 {fill:#103D46;fill-rule:nonzero}
    .fil15 {fill:#13375B;fill-rule:nonzero}
    .fil8 {fill:#184655;fill-rule:nonzero}
    .fil7 {fill:#335691;fill-rule:nonzero}
    .fil4 {fill:#355389;fill-rule:nonzero}
    .fil6 {fill:#466EB6;fill-rule:nonzero}
    .fil1 {fill:#50BFA5;fill-rule:nonzero}
    .fil5 {fill:#5184CE;fill-rule:nonzero}
    .fil29 {fill:#815147;fill-rule:nonzero}
    .fil19 {fill:#89B3F7;fill-rule:nonzero}
    .fil20 {fill:#96D9C9;fill-rule:nonzero}
    .fil12 {fill:#9AC1F9;fill-rule:nonzero}
    .fil16 {fill:#9BC1F9;fill-rule:nonzero}
    .fil21 {fill:#A34B3D;fill-rule:nonzero}
    .fil11 {fill:#AFD0FB;fill-rule:nonzero}
    .fil34 {fill:#B4D2F9;fill-rule:nonzero}
    .fil22 {fill:#B75742;fill-rule:nonzero}
    .fil13 {fill:#BADAFB;fill-rule:nonzero}
    .fil33 {fill:#BCD8FA;fill-rule:nonzero}
    .fil32 {fill:#C8E1FB;fill-rule:nonzero}
    .fil9 {fill:#CCE6FF;fill-rule:nonzero}
    .fil37 {fill:#D6E7FC;fill-rule:nonzero}
    .fil17 {fill:#DABD7E;fill-rule:nonzero}
    .fil36 {fill:#DBEBFC;fill-rule:nonzero}
    .fil25 {fill:#DD513A;fill-rule:nonzero}
    .fil24 {fill:#E0973F;fill-rule:nonzero}
    .fil18 {fill:#E1ECFD;fill-rule:nonzero}
    .fil27 {fill:#E25A44;fill-rule:nonzero}
    .fil35 {fill:#E2F0FD;fill-rule:nonzero}
    .fil10 {fill:#E9FFFF;fill-rule:nonzero}
    .fil28 {fill:#F38B80;fill-rule:nonzero}
    .fil3 {fill:#F47458;fill-rule:nonzero}
    .fil31 {fill:#F48C7F;fill-rule:nonzero}
    .fil30 {fill:#F58C74;fill-rule:nonzero}
    .fil23 {fill:#F7A491;fill-rule:nonzero}
    .fil0 {fill:#F7CC7F;fill-rule:nonzero}
    .fil39 {fill:#F8A492;fill-rule:nonzero}
    .fil14 {fill:white;fill-rule:nonzero}
   ]]>
  </style>
 </defs>
 <g id="Camada_x0020_1">
  <metadata id="CorelCorpID_0Corel-Layer" />
  <path
      class="fil0"
      d="M72511.57 15430.44l0.73 -0.07c1282.36,-4263.52 5778.99,-6679.78 10042.8,-5396.84 4263.81,1283.09 6679.63,5779.43 5396.55,10043.02l0 0c-1283.09,4263.59 -5779,6679.85 -10042.8,5396.84 -4263.81,-1282.94 -6679.63,-5779.35 -5397.27,-10042.94zm-2639.89 -309.75c-1451.68,5712.64 2015.13,11541.19 7727.7,12992.87 5712.58,1451.75 11540.46,-2014.84 12992.87,-7727.33 1451.69,-5712.58 -2015.13,-11541.12 -7727.69,-12992.81 -5712.58,-1451.75 -11541.19,2014.77 -12992.88,7727.27z"
    />
  <path
      class="fil0"
      d="M69504.57 15027.48c728.39,-2865.34 2528.21,-5275.61 5069.57,-6786.84 2540.62,-1511.23 5518.43,-1942.51 8383.84,-1214.34 2865.41,728.18 5275.38,2528.51 6786.91,5069.51 1510.8,2540.98 1942.14,5518.36 1214.48,8383.69 -728.39,2865.34 -2528.94,5275.61 -5069.57,6786.84 -2541.36,1511.24 -5518.43,1942.44 -8383.84,1214.34 -2865.41,-728.18 -5275.39,-2528.59 -6786.91,-5069.49 -1511.53,-2540.99 -1942.14,-5518.37 -1214.48,-8383.7zm-7039.97 109.78c50.44,255.3 281.73,344.49 851.89,570.67 1019.82,404.56 2040.3,809.27 3045.31,1249.15 158.38,69.26 316.03,315.66 335.73,495.28 116.05,1067.85 167.87,2143 294.87,3209.25 39.4,330.4 7.29,506.07 -289.75,692.7 -1186.74,745.77 -2353.12,1524.89 -3513.89,2283.28 290.05,1244.84 1752.38,4042.89 2533.69,4825.37 1231.27,-518.06 2496.84,-1028.22 3741.24,-1587.36 387.55,-174 585.35,-140.57 907.94,167.94 748.1,715.47 1564.8,1364.9 2388.81,1994.18 333.55,254.87 512.36,454.63 403.61,913.71 -280.26,1190.09 -488.27,2396.99 -748.83,3592.05 -70.06,321.14 -8.75,521.99 308,620.16 1492.55,461.92 2985.11,921.73 4476.93,1383.07 367.12,113.34 423.32,-188.31 514.55,-404.12 464.19,-1093.26 933.49,-2184.53 1359.72,-3292.23 159.84,-415.87 375.15,-552.8 826.93,-566.95 1195.5,-37.51 2388.81,-152.98 3674.82,-243.91 761.24,1154.99 1600.57,2430.12 2463.99,3740.79 1733.4,-573.81 3293.83,-1432.99 4771.79,-2569.53 -584.61,-1406.5 -1170.69,-2813.58 -1686.7,-4053.6 885.32,-1121.43 1728.3,-2141.99 2509.24,-3208.01 225.52,-308.51 402.88,-359.31 742.26,-284.79 1177.26,258.59 2362.54,480.46 3541.99,730.95 254.72,54.16 441.56,64.01 572.21,-214.5 659.79,-1407.23 1191.84,-2851.03 1407.16,-4402.85 48.17,-345.88 -76.64,-482.43 -361.28,-600.16 -1147.33,-473.75 -2285.18,-969.46 -3433.97,-1438.47 -278.8,-113.64 -394.85,-231.73 -420.4,-571.18 -87.58,-1177.7 -226.25,-2353.05 -394.12,-3522.21 -43.06,-298.66 51.82,-414.85 262.02,-553.3 1171.41,-771.39 2336.99,-1551.38 3533.95,-2348.39 -607.23,-1705.74 -1382.34,-3289.01 -2492.45,-4744.85 -1434.89,597.17 -2860.3,1190.39 -4224.4,1758.07 -1149.52,-953.34 -2262.54,-1876.45 -3452.94,-2864.25 210.93,-1052.82 462.73,-2263.93 694.09,-3478.99 189.76,-997.2 332.81,-866.11 -669.28,-1286.51 -95.61,-40.14 -176.63,-114.95 -264.21,-173.64 -895.52,-269.67 -1792.52,-539.28 -2688.05,-808.97 -209.47,-23.72 -429.15,-15.03 -626.22,-77.5 -513.09,-162.55 -802.1,-45.92 -1006.46,503.45 -426.24,1144.85 -924,2263.58 -1418.84,3381.13 -64.96,146.4 -278.08,299.02 -438.65,319.38 -1048.07,132.69 -2111.46,174.8 -3148.59,361.72 -507.98,91.45 -721.1,-47.29 -972.16,-443.1 -710.16,-1122.37 -1467.02,-2215.61 -2279.34,-3431.34 -1607.14,843.93 -3175.6,1667.14 -4760.84,2499.75 124.81,315.95 192.68,498.93 268.58,679.35 462.73,1112.38 915.97,2229.13 1399.13,3332.89 136.49,313.46 67.15,489.58 -147.43,744.59 -737.15,876.12 -1418.11,1799.68 -2149.43,2680.97 -113.85,136.71 -394.12,232.68 -572.21,201.81 -973.63,-169.19 -1937.76,-392.23 -2908.39,-580.82 -785.18,-152.61 -1077.41,-206.47 -1326,49.93l-1435.63 4769.96z"
    />
  <path
      class="fil1"
      d="M6289.45 26161.85c-1064.2,-2122.71 -1237.97,-4532.76 -489.44,-6786.19 748.47,-2253.43 2329.7,-4080.46 4452.41,-5144.67 2122.64,-1064.12 4532.76,-1237.97 6786.19,-489.44 2253.43,748.47 4080.55,2329.77 5144.67,4452.48 1064.13,2122.71 1237.91,4532.76 489.44,6786.11 -748.53,2253.5 -2329.77,4080.54 -4452.47,5144.67 -2122.64,1064.12 -4532.7,1237.97 -6786.12,489.51 -2253.49,-748.54 -4080.54,-2329.77 -5144.67,-4452.48zm-4217.17 3767.59c164.81,128.52 351.94,61.23 817.08,-101.16 832.1,-290.63 1664.58,-581.25 2505.96,-842.47 132.46,-41.09 358.07,25.47 464.33,124.22 631.9,587.31 1228.42,1213.01 1866.02,1793.69 197.71,179.99 270.47,303.55 188.22,573.02 -328.65,1076.83 -627.16,2162.92 -933.4,3233.91 830.64,602.93 3189.39,1533.5 4075.29,1597.94 475.35,-961.87 975.82,-1937.18 1437.31,-2930.58 143.63,-309.24 281.35,-392.95 639.42,-375.21 830.72,40.94 1667.72,6.2 2499.17,-45.1 336.76,-20.81 549.8,6.93 725.41,342.66 455.28,869.99 963.34,1712.31 1433.43,2574.78 126.33,231.95 269.02,321.94 513.24,214.65 1148.79,-503.89 2296.78,-1009.31 3445.35,-1513.57 282.39,-123.93 158.17,-336.68 100.21,-516.01 -293.26,-907.5 -581.7,-1817.04 -905.02,-2713.82 -121.46,-336.76 -63.06,-532.72 203.85,-778.89 706.42,-651.32 1370.3,-1348.77 2103.44,-2080.09 1069.1,301.43 2249.49,634.24 3462.73,976.33 750.66,-1259.58 1246.74,-2601.86 1546.92,-4069.02 -1094.92,-546.36 -2190.14,-1092.96 -3155.38,-1574.58 -51.97,-1146.39 -76.56,-2209.2 -162.76,-3267.05 -25.03,-306.17 55.91,-430.17 301.07,-563.23 850.78,-461.84 1687.13,-950.27 2534.85,-1417.96 183.19,-101.15 301.95,-193.48 234.8,-431.19 -339.1,-1201.35 -774.89,-2357.94 -1460.15,-3413.17 -152.76,-235.22 -299.9,-252.89 -534.83,-174.58 -945.6,315.3 -1897.19,612.5 -2841.4,931.74 -228.73,77.29 -361.57,66.92 -555.41,-125.98 -672.27,-669.05 -1374.32,-1309.94 -2091.18,-1931.34 -183.13,-158.82 -186.55,-279.17 -131.67,-473.75 305.66,-1084.13 603.3,-2170.45 911.44,-3283.91 -1265.57,-716.42 -2568.43,-1270.46 -4007.85,-1570.94 -557.24,1116.75 -1110.99,2226.43 -1640.93,3288.29 -1199.16,25.33 -2360.13,49.85 -3602.56,76.05 -425.35,-750.22 -909.1,-1618.09 -1407.31,-2477.56 -408.94,-705.4 -253.18,-700.89 -1082.59,-429.53 -79.12,25.85 -167.65,23.07 -251.8,33.57 -685.91,307.35 -1371.76,614.68 -2057.61,921.96 -139.69,95.76 -268.51,216.48 -421.05,282.24 -396.97,170.93 -511.11,393.61 -346.39,834.65 343.17,919.11 628.99,1860.11 915.89,2799.07 37.51,122.98 -11.6,327.63 -98.52,424.48 -566.95,631.77 -1190.25,1216.15 -1722.02,1875 -260.12,322.44 -462.73,350.48 -822.91,241.87 -1021.43,-308.15 -2055.57,-574.26 -3188.15,-885.32 -532.28,1357.45 -1051.65,2681.63 -1576.78,4020.69 241.73,126.34 379.67,201.37 520.1,271.36 866.04,432.08 1728.29,871.96 2601.85,1288.34 248,118.24 298.15,261.88 301.87,529.52 12.92,919.62 85.03,1838.35 104.15,2758.05 2.91,142.61 -116.78,348.29 -241.07,423.03 -680.22,409.15 -1383,780.72 -2071.55,1176.45 -557.09,320.12 -762.76,440.97 -779.04,727.44l1635.97 3651.03z"
    />
  <path
      class="fil0"
      d="M12365.64 5584.63l338.06 -620.75 -318.14 -631.25c-36.2,-71.89 25.47,-154.14 104.44,-139.33l693.15 130.72 500.24 -498.49c57,-56.86 154.14,-23.43 164.43,56.42l90.28 701.45 627.38 323.18c71.39,36.79 69.78,139.77 -2.76,174.29l-637.38 302.9 -112.55 698.18c-12.84,79.48 -111,109.77 -166.19,51.23l-484.11 -514.32 -696.94 108.45c-79.4,12.34 -138.38,-71.96 -99.91,-142.68z"
    />
  <path
      class="fil2"
      d="M50308.07 8150.51l258.01 -421.05 -410.54 -166.48 -258.01 421.05 410.54 166.48zm-1046.24 375.72l288.88 -468.93 -232.02 -94.01c-50.44,-20.58 -74.96,-78.38 -54.59,-129.11 20.72,-50.72 78.32,-75.18 129.18,-54.59l267.35 108.39 258.01 -421.13 -247.43 -100.36c-50.79,-20.58 -75.32,-78.38 -54.59,-129.11 20.73,-50.72 78.32,-75.18 129.18,-54.66l283.19 114.88 299.75 -482.22c25.26,-40.94 76.49,-57.66 121.31,-39.55l43.28 17.58c56.49,23 79.12,91.38 47.08,143.64l-278.66 454.99 410.55 166.48 299.75 -482.21c25.62,-40.95 76.78,-57.66 121.23,-39.56l47.52 19.19c56.48,23 79.04,91.46 47.07,143.64l-278.73 454.99 232.02 94.01c50.43,20.58 74.95,78.38 54.59,129.11 -20.73,50.79 -78.39,75.18 -129.18,54.67l-267.42 -108.46 -254.14 422.74 247.79 100.35c50.43,20.58 74.95,78.39 54.59,129.11 -20.73,50.8 -78.75,75.25 -129.18,54.67l-283.25 -114.88 -306.11 497.32c-25.61,41.24 -76.85,58.1 -121.67,39.85l-50.51 -20.43c-56.85,-23.06 -79.4,-91.67 -47.43,-143.85l288.87 -468.86 -410.46 -166.48 -306.17 497.25c-25.7,41.16 -76.86,58.1 -121.67,39.85l-50.51 -20.44c-56.86,-23.06 -79.49,-91.67 -47.44,-143.85z"
    />
  <path
      class="fil3"
      d="M51271.41 18438.24c349.53,-1856.9 2138.04,-3078.89 3994.72,-2729.51 1857.05,349.39 3078.75,2137.9 2729.65,3994.72l0 0c-349.53,1856.9 -2138.04,3078.89 -3994.71,2729.51 -1857.05,-349.38 -3079.11,-2137.89 -2729.66,-3994.72l0 0zm-3862.1 -1748.73l-390.54 2077.46c32.4,105.46 134.07,132.61 384.93,202.39 448.49,124.81 897.42,249.61 1341.03,389.97 70.06,22.11 148.01,119.04 164.21,193.92 97.22,445.36 167.21,896.7 268.88,1340.89 31.67,137.65 26.05,213.19 -91.08,305.3 -467.41,368.22 -924.22,749.42 -1379.94,1121.72 178.52,512.21 921.58,1627.06 1286.5,1922 496.38,-273.99 1007.43,-546.29 1507.23,-838.23 155.53,-90.8 240.63,-85.62 390.54,30 347.93,268.22 721.54,505.5 1097.77,733.94 152.54,92.47 236.55,168.74 211.66,367.33 -64.74,514.76 -98.31,1033.4 -154.44,1549.41 -15.03,138.67 20.01,220.71 158.23,247.85 650.01,127.73 1300.75,254.5 1951.19,382.01 159.69,31.31 169.84,-98.46 198.82,-193.78 146.55,-482.14 295.66,-963.77 425.58,-1450.36 48.97,-182.75 133.34,-250.13 323.1,-276.47 503.16,-69.63 1001.44,-172.1 1539.99,-268.36 372.81,453.09 784.81,953.33 1208.12,1467.59 705.4,-320.19 1325.27,-753.07 1897.77,-1299.22 -310.34,-567.09 -620.67,-1134.49 -894.07,-1634.51 323.1,-513.09 632.7,-981.65 913.99,-1466.64 81.74,-140.35 154.07,-169.76 300.56,-153.63 508.41,56.13 1018.73,96.41 1527.51,148.97 109.99,11.38 189.03,7.15 231.65,-116.27 215.02,-623.51 374.71,-1256.74 395.8,-1921.19 4.53,-148.09 -54.23,-200.13 -179.69,-236.99 -505.36,-148.3 -1007.79,-306.17 -1513.57,-452.36 -122.76,-35.4 -177.35,-79.99 -203.34,-222.09 -90.07,-493.02 -201.15,-982.68 -325.08,-1468.39 -31.6,-124.16 3.43,-177.43 85.91,-245.31 459.44,-378.21 915.89,-759.92 1385.55,-1150.1 -333.32,-692.41 -731.39,-1325.56 -1265.42,-1889.96 -578.48,316.61 -1153.53,631.1 -1703.4,932.1 -527.98,-350.48 -1039.02,-689.94 -1585.91,-1053.11 41.46,-453.75 93.06,-976.18 135.97,-1499.27 35.4,-429.38 101.67,-380.47 -340.04,-512.8 -42.19,-12.63 -79.84,-40.5 -119.41,-61.31 -390.18,-73.43 -780.36,-146.92 -1170.91,-220.27 -27.8,-0.22 -56.12,0.95 -84.37,2.19 -62.11,2.63 -124.22,5.25 -183.42,-6.71 -223.62,-45.54 -340.4,16.72 -401.78,257.71 -128.08,502.29 -287.78,996.77 -446.3,1490.66 -21.09,64.66 -103.94,138.67 -170.94,154.43 -436.52,103.2 -883.19,168.9 -1312.5,294.5 -210.2,61.45 -306.25,12.54 -429.73,-143.2 -350.63,-441.71 -718.98,-868.96 -1116.61,-1345.35 -640.29,428.58 -1264.68,846.49 -1896.24,1269.22 66.64,127.72 103.94,201.88 143.86,274.57 245.52,448.56 486.95,899.4 740.36,1343.37 71.96,126.12 50.51,203.55 -28.61,320.84 -271.5,402.88 -517.46,823.2 -786.34,1228.06 -41.83,62.76 -155.54,115.89 -232.02,110.87 -418.36,-27.52 -835.69,-78.17 -1253.68,-114.08 -338.21,-29.05 -463.97,-38.61 -557.39,80.72z"
    />
  <polygon
      class="fil4"
      points="33826.94,5301.73 35056.89,5450.18 34532.34,4495.25 "
    />
  <path
      class="fil3"
      d="M38344.74 15902.95c-38.39,415.5 318.94,795.46 715.18,864.8 410.47,71.82 776.2,-195.67 917.36,-573.88 278.73,-746.06 -537.76,-1334.47 -980.27,-883.12 -413.17,421.42 -282.45,1047.55 163.41,1047.7 168.38,0.15 439.16,-141.01 331.79,-345.07 -24.08,-45.69 -91.88,-42.4 -116.7,0 -54.23,92.26 -49.71,95.54 -75.32,116.12 -40.29,32.26 -96.06,43.06 -146.13,42.19 -454.55,-7.74 -152.53,-1047.13 382.96,-795.32 294.21,138.16 380.76,472.66 278.73,764.45 -97.95,280.99 -361.57,498.78 -666.58,479.22 -364.19,-23.43 -669.64,-358.29 -692.99,-717.08 -4.89,-72.33 -104.66,-71.24 -111.45,0z"
    />
  <path
      class="fil1"
      d="M60812.43 508.71l367.92 157.87c0,0 613.88,-137 682.42,-252.32 68.9,-115.39 108.82,-406.9 194.72,-407.04 85.83,-0.15 248.15,42.33 271.51,246.47 16.57,148.17 -232.38,549.07 -202.25,597.03 18.83,29.92 227.49,126.7 381.14,194.87 101.3,44.81 169.1,142.18 176.25,252.82l0 0.29c4.89,74.81 -43.28,142.76 -115.24,163.06l-111.82 31.52 25.91 114.15c19.27,85.09 -33.86,169.69 -118.23,189.47l-86.19 20.14 21.46 70.06c27.51,90.28 -29.05,184.58 -121.67,202.32l-74.95 14.37 1.53 19.71c5.99,81.97 -51.59,155.03 -132.17,168.31l-74.59 12.26 -979.18 -420.75c-91.88,-39.49 -174.73,-97.22 -243.26,-169.91l-320.12 -205.09c-34.3,-22.04 -47.51,-65.99 -30.87,-103.35l379.96 -854.01c18.47,-41.16 66.27,-60.06 107.73,-42.25z"
    />
  <path
      class="fil5"
      d="M50475.65 18032l-6646.41 0c-680.16,0 -1231.85,551.47 -1231.85,1231.71l0 2177.66c0,680.16 551.69,1231.63 1231.85,1231.63l6646.41 0c680.16,0 1231.49,-551.47 1231.49,-1231.63l0 -2177.66c0,-680.23 -551.34,-1231.71 -1231.49,-1231.71z"
    />
  <polygon
      class="fil6"
      points="41670.9,63779.88 34631.39,67024.73 34631.39,67743.3 59701.02,67743.3 59701.02,67024.73 52598.21,63779.88 "
    />
  <polygon
      class="fil6"
      points="41670.9,63785.86 52602.3,63785.86 52602.3,49872.86 41670.9,49872.86 "
    />
  <path
      class="fil6"
      d="M80215.92 54237.39l0 -31374.05c0,-1490.73 -1208.64,-2699.15 -2699,-2699.15l-60831.49 0c-1490.65,0 -2699.15,1208.42 -2699.15,2699.15l0 31374.05 66229.64 0z"
    />
  <polygon
      class="fil7"
      points="34631.39,67743.3 59701.09,67743.3 59701.09,67024.73 34631.39,67024.73 "
    />
  <polygon
      class="fil7"
      points="41670.9,63779.88 52598.21,63779.88 52598.21,62147.28 41670.9,62147.28 "
    />
  <path
      class="fil5"
      d="M13986.28 54237.39l0 5027.67c0,1045.45 691.25,1893.25 1544.01,1893.25l63141.99 0c852.47,0 1543.64,-847.79 1543.64,-1893.25l0 -5027.67 -66229.64 0z"
    />
  <path
      class="fil8"
      d="M47820.59 19264.58c0,339.6 -275.3,614.9 -615.05,614.9 -339.67,0 -614.61,-275.3 -614.61,-614.9 0,-339.53 274.94,-614.83 614.61,-614.83 339.75,0 615.05,275.3 615.05,614.83z"
    />
  <path
      class="fil9"
      d="M78665.71 52874.83l0 -29927.69c0,-784.52 -659.06,-1420.52 -1471.39,-1420.52l-60185.99 0c-812.77,0 -1471.61,636 -1471.61,1420.52l0 29927.69 63128.99 0z"
    />
  <polygon
      class="fil10"
      points="18308.99,50418.58 56252.45,50418.58 56252.45,23942.59 18308.99,23942.59 "
    />
  <polygon
      class="fil5"
      points="18308.99,27042.5 56252.45,27042.5 56252.45,23942.64 18308.99,23942.64 "
    />
  <path
      class="fil11"
      d="M58904.53 50613.66l0 -11482.07 1742.89 0c208.66,633.52 491.12,1247.4 847.07,1829.6l0 816.86 -2589.96 0 0 8835.62z"
    />
  <path
      class="fil12"
      d="M72345.9 50613.66l-2590.26 0 0 -5463.11c884.58,-75.32 1758.95,-284.72 2590.26,-627.82l0 6090.93z"
    />
  <path
      class="fil12"
      d="M68728.73 50613.66l-2590.25 0 0 -5912.77c840.07,289.98 1713.69,448.94 2590.25,476.82l0 5435.95zm-394.84 -6470.53c-747.38,-64.37 -1487.45,-236.84 -2195.41,-517.46l0 0c707.96,280.63 1448.76,453.09 2195.41,517.46z"
    />
  <path
      class="fil12"
      d="M76014.87 50613.66l-2590.26 0 0 -6627.96c65.69,-38.75 131.37,-78.32 195.61,-118.59 261.28,221.79 526.23,449.29 594.83,532.49 0,0 971.44,1111.35 1799.82,2028.05l0 4186.01zm0 -5592.66l-1221.78 -973.91 -0.73 0.44c-18.98,-61.02 -219.69,-718.61 -229.91,-836.13 0,-6.78 -2.19,-13.93 -4.38,-21.08 58.38,-48.18 116.04,-97.51 172.98,-147.22l1283.81 1253.3 0 724.6zm0 -2664.84l-313.84 -306.61c108.75,-131.01 213.11,-263.99 313.84,-399.53l0 706.14zm-1534.15 -468.13c2.19,-2.26 5.1,-4.89 7.29,-7.15 -2.19,2.26 -5.1,4.89 -7.29,7.15z"
    />
  <path
      class="fil12"
      d="M65111.8 50613.66l-2589.97 0 0 -8291c109.26,119.33 222.98,236.47 340.05,350.98 680.58,664.68 1441.31,1197.18 2249.92,1597.59l0 6342.43zm0 -7485.46c-512.58,-296.77 -999.17,-657.16 -1448.11,-1080.85 448.94,423.69 935.53,783.72 1448.11,1080.85l0 0zm-1519.64 -1149.01c0,-0.36 0.36,0 0,-0.36 0.36,0.36 0,0 0,0.36z"
    />
  <polygon
      class="fil12"
      points="58904.53,50613.66 61494.45,50613.66 61494.45,41778.04 58904.53,41778.04 "
    />
  <polygon
      class="fil13"
      points="19618.06,32814.12 54640.13,32814.12 54640.13,28319.04 19618.06,28319.04 "
    />
  <polygon
      class="fil13"
      points="32098.65,35242.78 54640.13,35242.78 54640.13,34090.71 32098.65,34090.71 "
    />
  <polygon
      class="fil5"
      points="19618.06,47386.53 30707.11,47386.53 30707.11,34090.78 19618.06,34090.78 "
    />
  <path
      class="fil13"
      d="M54640.2 37671.51l-12139.96 0c-290.78,-448.93 -741.97,-709.12 -1256.38,-770.14 -95.24,-11.31 -183.77,-16.57 -266.68,-16.57 -698.18,0 -972.75,382.96 -1398.26,786.71l-7480.28 0 0 -1151.99 22541.56 0 0 1151.99z"
    />
  <path
      class="fil13"
      d="M54640.2 44957.73l-22541.56 0 0 -1152 4023.75 0c424.42,312.23 894.07,438.35 1373.81,438.35 574.32,0 1163.39,-180.78 1708.67,-438.35l15435.33 0 0 1152z"
    />
  <polygon
      class="fil13"
      points="32098.65,47386.53 54640.13,47386.53 54640.13,46234.48 32098.65,46234.48 "
    />
  <path
      class="fil0"
      d="M3787.58 38858.55l21053.53 -38.03c316.18,-0.36 572.94,255.38 573.52,571.69l49.93 27742.09c0.58,316.35 -255.23,572.83 -571.41,573.56l-21053.61 38.07c-316.18,0.37 -572.93,-255.37 -573.52,-571.72l-49.92 -27742.08c-0.59,-316.33 255.23,-572.79 571.47,-573.59z"
    />
  <polygon
      class="fil14"
      points="4371.98,39663.37 24259.56,39627.6 24308.39,66743.39 4420.81,66779.17 "
    />
  <path
      class="fil15"
      d="M18625.17 38448.81c-0.22,-122.03 -99.26,-220.64 -221.22,-220.28l-8350.42 15.04c-121.96,0 -220.63,99.04 -220.42,221.07l1.54 868.09 8792.04 -15.83 -1.53 -868.09z"
    />
  <path
      class="fil15"
      d="M14230.7 39342.15c-466.44,0.74 -845.24,-376.6 -846.12,-842.83 -0.8,-466.67 376.61,-845.54 843.05,-846.27 466.46,-0.74 845.24,376.6 846.12,843.19 0.88,466.31 -376.6,845.18 -843.05,845.9zm-3.86 -2161.32c-727.37,1.1 -1315.93,591.99 -1314.61,1319.21 1.31,727.23 591.99,1315.85 1319.35,1314.32 727.3,-1.1 1315.86,-591.63 1314.55,-1319.21 -1.31,-727.23 -591.99,-1315.85 -1319.29,-1314.32z"
    />
  <path
      class="fil4"
      d="M18489.92 38245.47c79.34,33.51 135.1,111.82 135.25,203.35l1.53 868.09 -8792.04 15.83c1.09,601.04 489.36,1087.63 1090.69,1086.54l6614.59 -11.68c601.33,-1.17 1087.85,-489.59 1086.75,-1090.69l-1.53 -868.09c-0.15,-91.53 -55.91,-169.84 -135.25,-203.35z"
    />
  <path
      class="fil16"
      d="M10053.53 38243.58l0 0c-76.27,0 -143.41,38.75 -182.98,97.57 39.56,-58.82 106.71,-97.57 182.98,-97.57z"
    />
  <path
      class="fil16"
      d="M9842.89 38399.11c4.31,-13.94 9.93,-27.08 16.64,-39.93 -6.71,12.84 -12.33,25.98 -16.64,39.93z"
    />
  <path
      class="fil8"
      d="M19267.21 47516.09l2596.02 -4.6 -4.68 -2595.95 -2596.01 4.6 4.67 2595.95zm2711.85 110.72l-2827.17 5.25 -5.1 -2827.23 2827.16 -5.25 5.11 2827.23z"
    />
  <path
      class="fil8"
      d="M19275.68 52220.22l2596.02 -4.45 -4.6 -2596.39 -2596.09 4.89 4.67 2595.95zm2711.85 110.79l-2827.17 4.89 -5.1 -2826.8 2827.16 -5.33 5.11 2827.23z"
    />
  <path
      class="fil8"
      d="M19284.15 56924.49l2596.09 -4.52 -4.68 -2596.31 -2596.01 4.81 4.6 2596.01zm2711.84 110.73l-2827.16 4.89 -5.11 -2826.87 2827.16 -5.26 5.11 2827.25z"
    />
  <path
      class="fil8"
      d="M19292.68 61628.7l2596.02 -4.89 -4.68 -2596.02 -2596.01 4.96 4.67 2595.95zm2711.78 110.72l-2827.16 4.89 -5.11 -2827.23 2827.16 -4.81 5.11 2827.16z"
    />
  <polygon
      class="fil16"
      points="5863.87,45293.31 17963.25,45271.49 17962.53,44864.75 5863.14,44886.57 "
    />
  <polygon
      class="fil16"
      points="5865.99,46445.75 17965.3,46423.86 17964.64,46017.11 5865.19,46038.64 "
    />
  <polygon
      class="fil16"
      points="5868.03,47598.2 17967.42,47576.3 17966.69,47169.19 5867.31,47191.01 "
    />
  <polygon
      class="fil16"
      points="5872.63,50158.31 17972.02,50136.49 17971.28,49729.37 5871.9,49751.26 "
    />
  <polygon
      class="fil16"
      points="5874.75,51310.39 17974.13,51288.93 17973.4,50881.81 5874.02,50903.63 "
    />
  <polygon
      class="fil16"
      points="5876.8,52462.82 17976.18,52440.92 17975.44,52034.25 5876.06,52056.07 "
    />
  <polygon
      class="fil16"
      points="5880.95,54767.62 17980.33,54745.8 17979.61,54338.69 5880.22,54360.51 "
    />
  <polygon
      class="fil16"
      points="5883.07,55919.7 17982.38,55898.25 17981.72,55491.13 5882.26,55512.96 "
    />
  <polygon
      class="fil16"
      points="5885.11,57072.07 17984.42,57050.25 17983.77,56643.5 5884.39,56665.4 "
    />
  <polygon
      class="fil16"
      points="5889.28,59376.95 17988.66,59355.06 17987.92,58948.02 5888.47,58969.84 "
    />
  <polygon
      class="fil16"
      points="5891.32,60529.39 17990.7,60507.5 17989.97,60100.39 5890.59,60122.21 "
    />
  <polygon
      class="fil16"
      points="5893.35,61681.4 17992.81,61659.58 17992.01,61252.83 5892.63,61274.65 "
    />
  <polygon
      class="fil16"
      points="5898.76,64660.74 19857.16,64635.55 19856.5,64228.8 5898.03,64253.99 "
    />
  <polygon
      class="fil16"
      points="5900.51,65646.72 22611.63,65616.59 22610.89,65209.84 5899.78,65239.97 "
    />
  <polygon
      class="fil3"
      points="20551.46,47164.66 19673.52,45658.24 19987.66,45475.19 20497.32,46349.71 21329.2,44353.7 21664.86,44493.76 "
    />
  <polygon
      class="fil3"
      points="20560.08,51930.25 19682.14,50424.19 19996.26,50241.14 20505.92,51115.29 21337.81,49119.65 21673.47,49259.35 "
    />
  <polygon
      class="fil3"
      points="20576.87,61248.3 19698.85,59741.88 20013.05,59558.83 20522.64,60432.91 21354.6,58437.26 21690.26,58577.04 "
    />
  <polygon
      class="fil3"
      points="21555.01,54911.12 21301.83,54655.38 20579.42,55371.37 19854.46,54658.08 19602.22,54914.55 20323.9,55624.41 19604.7,56337.33 19857.89,56592.71 20580.3,55876.71 21305.26,56590.08 21557.5,56333.6 20835.81,55623.67 "
    />
  <polygon
      class="fil17"
      points="8918.76,66771.27 8918.76,66771.27 9911.07,66769.39 9911.07,66769.39 "
    />
  <path
      class="fil18"
      d="M8918.76 66771.27c468.48,-302.03 878.96,-686.18 1210.83,-1132.07l731.02 -1.51c-207.93,334.42 -455.43,647.37 -740.14,932.84 -68.16,68.55 -138.09,134.83 -209.39,198.86l-992.31 1.88z"
    />
  <path
      class="fil18"
      d="M10400.51 65231.7c109.63,-185.32 206.55,-378.87 289.68,-579.58l647.16 -1.16c-70.8,198.09 -153.71,391.67 -248.23,579.6l-688.61 1.14zm436.31 -986.69c132.25,-430.11 203.04,-886.92 202.16,-1359.94 -0.73,-419.59 -57.8,-826.26 -164,-1212.73l621.7 -1.09c93.86,392.8 142.46,798.75 143.19,1212.65 0.8,465.51 -58.97,921.95 -175.75,1359.94l-627.3 1.16zm-94.37 -2978.98c-98.46,-260.27 -219.98,-509.58 -361.87,-744.96l690.3 -1.1c122.98,239.9 226.77,488.79 310.7,744.89l-639.13 1.16zm-637.17 -1151.34c-207.13,-273.41 -444.26,-523.09 -705.98,-744.16l868.01 -1.54c214.21,232.82 405.07,481.7 571.26,744.23l-733.29 1.46zm-1266.81 -1150.1c-701.47,-431.64 -1526.64,-680.96 -2408.67,-680.96 -2.76,0 -5.62,0 -8.39,0 -722.55,1.54 -1406.28,169.84 -2015.05,468.57l-0.88 -506.96 -0.36 -155.53c629.5,-265.52 1311.55,-405.58 2015.2,-406.75 3.2,0 6.34,0 9.63,0 1270.38,0 2471.87,451.93 3420.39,1279.73l-1011.87 1.9z"
    />
  <path
      class="fil19"
      d="M9399.29 59370.54c-176.26,-148.75 -363.54,-284.35 -560.83,-405.95l1011.87 -1.9c87.88,76.85 173.56,156.63 256.84,239.54 54.73,54.59 108.09,110.35 160.13,166.77l-868.01 1.54z"
    />
  <path
      class="fil19"
      d="M10380.58 60521.08c-84.66,-140.5 -176.55,-276.04 -275.3,-406.38l733.29 -1.46c83.78,132.17 161.22,268.15 232.31,406.75l-690.3 1.1z"
    />
  <path
      class="fil19"
      d="M10874.98 61672.34c-38.03,-138.16 -82.25,-273.76 -132.54,-406.31l639.13 -1.16c43.87,133.71 82.25,269.31 115.1,406.38l-621.7 1.09z"
    />
  <path
      class="fil19"
      d="M10690.19 64652.12c55.03,-132.61 104,-268.58 146.63,-407.11l627.3 -1.16c-36.7,137.43 -78.97,273.4 -126.77,407.11l-647.16 1.16z"
    />
  <path
      class="fil19"
      d="M10129.58 65639.2c97.29,-130.69 187.72,-266.65 270.92,-407.49l688.61 -1.14c-69.84,138.96 -146.12,274.93 -228.52,407.13l-731.02 1.51z"
    />
  <path
      class="fil17"
      d="M4419.56 66113.71l0 0 -0.58 -360.79 0 0 0.58 360.79zm-10.94 -6073.17l-0.59 -360.77 0 0 0.59 360.77 0 0z"
    />
  <path
      class="fil18"
      d="M6429.51 66690.67c-737.44,0 -1426.5,-211.28 -2009.95,-576.96l-0.58 -360.79c569.21,401.45 1262.87,637.59 2010.53,637.59 2.19,0 4.3,0 6.5,0 812.25,-1.51 1560.13,-281.33 2153.58,-748.69l458.85 -0.75c-680.22,648.52 -1600.13,1048.09 -2611.93,1049.59 -2.33,0 -4.59,0 -7,0zm2596.09 -1456.34c160.43,-177.76 302.97,-372.08 424.64,-579.95l343.83 -0.8c-107.73,205.27 -233.62,399.22 -375.51,580l-392.95 0.75zm628.63 -987.13c176.41,-418.79 273.55,-878.23 272.67,-1360.3 -0.73,-426.3 -78.09,-834.51 -218.95,-1212.29l318.73 -0.36c129.41,380.4 199.91,788.25 200.71,1211.93 0.8,479.07 -87.43,937.79 -249.18,1360.3l-323.98 0.73zm-128.31 -2979.34c-142.83,-270.7 -320.18,-520.83 -526.29,-744.16l395.21 -0.74c182.83,228.23 339.82,477.55 466.68,744.53l-335.59 0.36zm-970.93 -1150.47c-589.5,-452.36 -1326.58,-721.61 -2125.26,-721.61 -2.12,0 -4.24,0 -6.35,0 -750.07,1.54 -1445.33,240.27 -2014.77,644.76l-0.59 -360.77c440.83,-278.37 942.75,-468.93 1480.81,-545.71l0.44 242.89 1966.3 -3.79c432.81,176.25 826.12,429.73 1162.51,743.43l-463.09 0.8z"
    />
  <path
      class="fil19"
      d="M5889.28 59376.95l-0.44 -242.89c174.5,-25.26 352.74,-38.1 534.03,-38.46 2.41,0 4.6,0 7,0 503.82,0 985.23,98.67 1425.7,277.56l-1966.3 3.79z"
    />
  <path
      class="fil19"
      d="M8999.63 60523.7c-136.27,-147.58 -285.09,-283.55 -444.63,-406.31l463.09 -0.8c135.1,126.18 261.14,262.08 376.75,406.37l-395.21 0.74z"
    />
  <path
      class="fil19"
      d="M9707.94 61674.61c-52.18,-140.05 -113.05,-275.66 -182.03,-406.75l335.59 -0.36c62.55,131.45 117.87,267.42 165.16,406.75l-318.73 0.36z"
    />
  <path
      class="fil19"
      d="M9450.24 64654.38c76.48,-130.71 144.65,-266.68 203.99,-407.18l323.98 -0.73c-53.57,139.76 -115.09,275.74 -184.14,407.11l-343.83 0.8z"
    />
  <path
      class="fil19"
      d="M8589.59 65641.82c156.56,-123.16 302.6,-259.86 436.01,-407.49l392.95 -0.75c-113.49,144.61 -237.2,280.95 -370.11,407.49l-458.85 0.75z"
    />
  <polygon
      class="fil8"
      points="10091.92,43553.34 10091.92,42198.73 9552.05,42198.73 9552.05,42080.05 10801.93,42080.05 10801.93,42198.73 10262.05,42198.73 10262.05,43553.34 "
    />
  <polygon
      class="fil8"
      points="12181.28,43434.74 12181.28,43553.34 11097.73,43553.34 11097.73,42080.05 12143.04,42080.05 12143.04,42198.73 11266.69,42198.73 11266.69,42714.67 11901.09,42714.67 11901.09,42833.26 11266.69,42833.26 11266.69,43434.74 "
    />
  <path
      class="fil8"
      d="M12353.89 43200.89l146.63 -48.98c49.34,105.04 112.39,182.69 189.26,232.76 76.85,50.07 171.15,74.95 282.89,74.95 115.02,0 207.64,-25.98 277.93,-78.75 70.29,-52.33 105.46,-121.23 105.46,-207.13 0,-68.17 -23.06,-124.66 -69.05,-168.67 -46.04,-44.08 -124.07,-84.37 -234.21,-120.93 -59.99,-19.21 -139.54,-42.55 -238.59,-69.64 -98.96,-27.51 -162.46,-47.88 -190.42,-61.01 -87.94,-41.09 -150.42,-84.74 -187.28,-131.45 -37,-46.34 -55.54,-103.94 -55.54,-172.1 0,-122.39 46.43,-218.44 139.34,-288.52 92.83,-70.06 220.63,-105.1 383.31,-105.1 144.66,0 263.99,28.69 358.14,86.27 94.08,57.22 165.75,145.39 215.09,264.36l-143.05 36.93c-45.18,-91.88 -103.27,-159.68 -174.36,-203.34 -71.16,-43.72 -158.82,-65.54 -263.18,-65.54 -101.09,0 -183.05,23.36 -245.96,70.43 -62.85,47.44 -94.3,108.83 -94.3,184.52 0,56.92 20.36,105.09 61.01,144.22 40.73,39.19 103.79,71.24 189.26,95.68 32.84,9.78 80.5,23.72 142.98,40.65 179.1,49.41 294.64,88.17 346.39,116.78 82.99,43.64 143.13,91.88 180.57,143.85 37.37,52.33 56.13,113.78 56.13,184.94 0,128.75 -50.37,231.22 -151,307.71 -100.72,76.42 -236.91,114.44 -408.65,114.44 -154.52,0 -281.65,-30.51 -381.5,-91.52 -99.85,-61.02 -179.03,-156.27 -237.27,-285.82z"
    />
  <polygon
      class="fil8"
      points="14231.14,43553.34 14231.14,42198.73 13691.27,42198.73 13691.27,42080.05 14941.15,42080.05 14941.15,42198.73 14401.28,42198.73 14401.28,43553.34 "
    />
  <polygon
      class="fil8"
      points="15264.18,43553.34 15433.04,43553.34 15433.04,42080.06 15264.18,42080.06 "
    />
  <polygon
      class="fil8"
      points="16112.27,42186.69 16112.27,43553.34 15948.27,43553.34 15948.27,42080.05 16223.14,42080.05 17097.14,43323.29 17097.14,42080.05 17261.06,42080.05 17261.06,43553.34 17081.08,43553.34 "
    />
  <path
      class="fil8"
      d="M18807.99 43388.03c-60.8,65.17 -132.69,113.79 -215.68,145.75 -83.06,32.41 -179.62,48.61 -289.68,48.61 -226.03,0 -398.13,-65.54 -516.51,-195.81 -118.32,-130.72 -177.5,-319.75 -177.5,-567.18 0,-245.23 60.43,-434.26 181.22,-567.17 120.79,-133.35 291.73,-199.97 512.8,-199.97 163.5,0 294.21,35.39 392,105.75 97.73,70.5 170.14,181.15 216.92,332.6l-158.96 26.71c-39.49,-118.6 -95.98,-206.33 -169.55,-262.82 -73.5,-56.49 -167.87,-84.73 -282.89,-84.73 -164.37,0 -291.36,54.96 -380.91,164.95 -89.56,109.91 -134.3,265.88 -134.3,467.68 0,217.72 45.4,382.3 136.12,493.02 90.87,110.73 225.82,166.48 405,166.48 134.72,0 243.26,-31.67 325.44,-94.15 82.11,-62.92 123.27,-145.75 123.27,-248.59l0 -157.43 -453.68 0 0 -110.72 636.14 0 0 702.33 -149.25 0 0 -165.31z"
    />
  <path
      class="fil1"
      d="M40210.83 7070.1l-383.75 1496.78 1174.62 -659.79 3508.49 -1293.82 -2585.81 -71.59c0,0 -1340.75,160.63 -1418.69,216.03 -78.32,55.47 -294.87,312.39 -294.87,312.39z"
    />
  <polygon
      class="fil20"
      points="39187.94,6016.26 44510.19,6613.28 40210.83,7070.1 "
    />
  <polygon
      class="fil20"
      points="41737.18,8804.59 40477.45,7518.82 44510.19,6613.28 "
    />
  <path
      class="fil16"
      d="M37146.39 8256.48c203.7,-188.02 434.56,-345.01 686.14,-466.46l55.03 113.57c-240.35,116.04 -460.98,266.03 -655.7,445.57l-85.47 -92.68zm-1578.02 286.39c143.85,-25.83 405.58,-67.8 539.66,-58.25 104,7.52 198.88,17.73 289.97,31.46l-18.76 124.73c-87.81,-13.22 -179.69,-23.14 -280.19,-30.36 -87.81,-6.28 -273.05,14.31 -508.42,56.48l-22.26 -124.07zm1567.07 359.45l-15.03 -9.49 66.64 -107 16.57 10.29c243.26,156.04 431.56,389.45 516.74,640.31l-119.41 40.5c-76.05,-224.28 -245.96,-433.75 -465.51,-574.61zm-677.88 565.78c13.94,-120.13 44.08,-242.02 89.62,-362.23 24.45,-64.66 53.51,-129.91 87.01,-194.07l111.8 58.03c-30.86,59.85 -58.31,120.49 -80.93,180.57 -41.83,110.57 -69.34,222.38 -82.12,332.3 -9.05,78.18 -10.14,157.79 -3.35,236.91l-125.83 11.03c-7.52,-87.58 -6.35,-175.97 3.8,-262.53zm-2399.77 -288.58c224.07,-148.68 463.6,-286.62 712.56,-409.89l55.76 112.98c-243.7,120.93 -478.71,256.18 -698.25,402l-70.06 -105.09zm2783.16 1325.34c-6.79,-5.48 -13.58,-11.03 -20,-16.64l81.74 -95.83c6.05,4.89 11.68,9.78 16.57,13.73 0,0.06 3.35,2.19 12.04,5.54 65.9,24.9 245.59,46.2 353.25,-1.68 90.42,-40.29 167.57,-109.48 229.76,-205.52l106.19 68.46c-74.59,115.38 -173.26,202.6 -284.72,252.3 -149.54,66.42 -366.02,35.62 -448.94,4.38 -19.56,-7.37 -34.59,-15.47 -45.9,-24.74zm-4000.7 -225.02c164.21,-208.3 354.78,-409.74 566,-598.63l84.01 94.01c-205.6,184.07 -391.28,380.11 -551.34,582.79l-98.67 -78.17zm-694.53 1370.74c30.5,-119.12 68.16,-238.6 112.24,-355.15 40.29,-107.29 87.01,-214.72 138.97,-319.09l112.98 55.91c-50.07,100.72 -94.88,204.21 -134.07,307.71 -42.19,112.24 -78.68,227.27 -108.09,342 -8.62,33.72 -16.57,67.51 -24.46,101.46l-122.76 -27.52c7.88,-35.76 16.21,-71.24 25.18,-105.31z"
    />
  <path
      class="fil16"
      d="M38644.12 7668.72c135.97,-20.51 271.87,-29.7 404.48,-27.3l2.26 -126.11c-139.33,-2.49 -282.45,7.22 -425.58,28.67l18.83 124.73z"
    />
  <path
      class="fil21"
      d="M29261.12 9545.11c75.9,3.06 283.9,72.76 588.26,647.75 388.49,734.3 956.4,2952.63 956.4,2952.63l-1695.09 631.24 -217.79 -462.94 -358.72 -3564.54c0,0 705.84,-205.01 726.94,-204.14z"
    />
  <path
      class="fil22"
      d="M27020.31 9225.28c484.7,0.66 1684.07,142.1 2240.73,319.97 0,0 409.01,3514.84 -368.14,6185.67 -174,597.89 143.85,2478.37 143.85,2478.37l-5022.93 -66.27c0,0 595.05,-4546.27 370.83,-5280.57 -224.13,-734.31 -229.46,-3293.54 -229.46,-3293.54 0,0 34.45,-5.4 1128.57,-194.51 510.31,-88.24 1219,-149.77 1736.54,-149.12z"
    />
  <path
      class="fil23"
      d="M26434.97 24733.02c0,0 111.08,1282.56 315.44,1637.72 204.36,355.14 -10.73,958.96 -21.53,1041.79 -10.73,82.92 -430.11,201.3 -1096.82,130.28 -666.65,-71.01 -655.92,-224.94 -602.2,-473.61 53.79,-248.59 408.65,-568.26 430.18,-805.03 21.46,-236.76 -204.29,-1089.16 -204.29,-1089.16l1179.23 -442z"
    />
  <path
      class="fil24"
      d="M28470.02 17150.71c0,0 3467.47,-192.54 4241.77,276.39 773.94,468.93 -550.24,2770.31 -550.24,2770.31 0,0 -2412.75,-111.15 -7138.49,161.52 -1119.08,64.59 -1215.5,-2917.82 -1006.25,-3164.65 209.25,-246.84 4453.21,-43.57 4453.21,-43.57z"
    />
  <path
      class="fil25"
      d="M25548.93 27642.36c-686.5,-73.2 -601.69,-410.47 -546.3,-666.43 34.66,-160.27 231.58,-349.31 349.01,-528.05 61.38,48.9 161.23,135.17 459.3,223.27 309.67,91.45 734.02,-89.56 1004.5,-202.9 96.34,358.72 100.79,816.2 91.73,885.61 -11.09,85.32 -671.76,361.64 -1358.25,288.51z"
    />
  <path
      class="fil0"
      d="M25927.87 19631.26c138.53,1048.29 824.45,6266.69 824.45,6266.69l-1591.52 197.35c0,0 -1957.11,-6811.3 -1856.75,-7853.16 100.35,-1041.79 832.98,-1129.45 832.98,-1129.45 0,0 1424.16,-256.33 1790.85,2518.57z"
    />
  <path
      class="fil23"
      d="M24100.53 9959.6c469.66,-176.19 699.35,4055.35 762.7,5797.01 831.66,80.07 2281.24,0.59 2642.14,-26.49 169.84,-12.78 561.26,-156.04 730.08,-178.24 173.05,-22.62 329.82,-34.38 414.85,-19.63 31.24,5.48 898.09,359.97 972.24,437.7 92.03,96.41 340.62,339.6 298.66,444.77 -41.97,105.17 -478.13,-293.03 -478.13,-293.03l-213.19 -119.55c265.38,259.24 771.46,600.67 698.63,725.04 -71.09,121.16 -527.69,-225.31 -853.13,-461.42 279.1,252.09 625.93,703.22 546.01,773.58 -71.82,63.2 -466.23,-459.08 -887.87,-609.51 -156.19,-55.76 -311.87,98.53 -434.78,117.22 -90.28,13.72 -229.76,42.92 -318.35,17.81l-456.45 -129.47c-155.46,14.02 -159.33,106.05 -316.33,139.48 -182.32,38.75 -481.41,79.63 -713.5,136.34 -1336.81,326.61 -1782.61,478.27 -2191.9,477.98 -1239.66,-0.66 -1311.62,-6813.2 -201.66,-7229.57z"
    />
  <path
      class="fil21"
      d="M23209.31 13932.26c-88.02,-1784.06 -75.1,-3983.03 924.95,-4358.18 394.63,-148.09 1090.26,742.04 965.09,4394.38 -533.82,44.09 -1317.61,79.63 -1890.03,-36.2z"
    />
  <path
      class="fil23"
      d="M31255.08 25976.84c0,0 -229.76,405.8 -48.98,746.13 180.79,340.26 1129.46,840.94 1228.49,1025.52 99.05,184.5 60.28,315.08 60.28,315.08l-2817.74 -690.74 215.89 -849.33 263.47 -586.95 1098.58 40.29z"
    />
  <path
      class="fil25"
      d="M31351.49 26904.56c0,0 -792.04,137.21 -1106.09,-113.28 -314.28,-250.49 -293.26,-296.53 -409.09,-253.48 -74.53,27.66 -187.87,365.96 -259.32,604.03 -38.03,126.7 38.16,259.47 166.62,291.21l2933.95 725.05c222.89,42.84 370.55,-96.27 220.27,-275.09 -102.84,-122.54 -231.58,-217.64 -302.75,-281.73 -218.44,-196.85 -1243.6,-696.71 -1243.6,-696.71z"
    />
  <path
      class="fil0"
      d="M30979.04 17972.59c224.07,-471.71 733.58,-1085.8 1630.71,-715.91 855.25,352.73 1085,1219.73 814.96,2107.52 -269.67,887.87 -2046.51,6106.84 -2108.62,6824.35l-1418.61 9.42c0,0 257.93,-4132.43 321.14,-5131.32 60.65,-961.14 372.51,-2277.72 760.43,-3094.07z"
    />
  <path
      class="fil8"
      d="M33281.96 13165.69l-4742.31 0c-125.53,0 -238.51,76.05 -286.17,192.54l-1460.23 3573.58 -2614.48 0c-73.13,0 -132.4,59.41 -132.4,132.76 0,73.21 59.27,132.69 132.4,132.69l7441.24 0c204.5,0 389.82,-120.49 473.82,-307.77l1470.22 -3286.46c91.88,-205.31 -57.59,-437.33 -282.09,-437.33z"
    />
  <path
      class="fil14"
      d="M30728.56 15246.58c-31.97,160.5 -171.3,267.86 -311.44,239.76 -140.13,-28.1 -227.86,-181 -195.81,-341.5 31.96,-160.5 171.73,-267.86 311.79,-239.76 140.14,28.1 227.49,181 195.46,341.5z"
    />
  <path
      class="fil26"
      d="M28147.28 4932.43c-142.9,-48.18 -283.62,-102.47 -419.51,-168.02 -153.57,-74.08 -352.67,-160.78 -478.35,-180.27 -264.72,-40.8 -719.35,-13.58 -970.41,258.81 -312.82,339.31 -868.68,61.31 -756.72,1838.5 126.78,2011.7 1245.29,1790.92 1272.43,1756.83 27.15,-34.01 997.64,-1286.95 997.64,-1286.95 0,0 339.31,742.26 339.31,714.96 0,-26.27 1732.46,-2355.68 15.62,-2933.86z"
    />
  <path
      class="fil23"
      d="M27298.17 8586.88l96.56 718.76c0,0 216.25,1035.6 -61.97,1235.28 -278.29,199.62 -1183.45,-1264.77 -1183.45,-1264.77l95.61 -1821.42 1053.26 1132.15z"
    />
  <path
      class="fil3"
      d="M26214.04 8045.04c229.83,621.25 777.29,1003.1 1165.95,1151.27l-81.82 -609.43 -1053.26 -1132.15 -30.87 590.31z"
    />
  <path
      class="fil23"
      d="M27240.95 5472.67c589.73,-95.17 1118.57,379.01 1103.82,969.32 -6.34,256.62 -27.44,577.02 -80.72,922.02 -128.23,829.77 -694.31,1560.43 -1068.65,1495.18 -374.35,-65.25 -1316.22,-781.02 -1150.4,-1961.85 102.47,-728.98 577.17,-1324.69 1195.94,-1424.68z"
    />
  <path
      class="fil23"
      d="M26304.77 7038.28c-31.52,182.47 -177.71,309.39 -326.39,283.48 -148.74,-25.91 -243.7,-194.88 -212.09,-377.34 31.6,-182.47 177.71,-309.39 326.46,-283.48 148.68,25.91 243.63,194.87 212.03,377.34z"
    />
  <path
      class="fil26"
      d="M26092.74 6660.94c0,0 452.59,112.47 620.52,-178.6 168.01,-291.13 768.54,-919.32 1532.04,-658.84 763.5,260.42 -671.91,-633.29 -732.92,-633.29 -61.1,0 -794.01,-5.11 -794.01,-5.11 0,0 -564.98,464.78 -585.35,515.79 -20.36,51.09 -183.27,607.76 -183.27,607.76l142.98 352.3z"
    />
  <path
      class="fil14"
      d="M26920.76 7875.5l823.5 157.43c0,0 -78.54,310.26 -442.73,251.5 -443.97,-71.68 -380.76,-408.94 -380.76,-408.94z"
    />
  <path
      class="fil23"
      d="M36501.27 64576.8c0,0 -151.08,1051.45 -410.18,1390.77 -86.99,113.76 -245.95,257.98 -350.25,463.59 -162.68,320.51 -72.69,797.29 47.08,1060.17 61.45,134.83 -4.53,134.46 135.6,177.77 415,128.8 856.05,-87.76 1032.67,-487.36 98.67,-223.31 185.24,-520.81 202.61,-895.92 44.45,-954.71 339.31,-1440.16 339.31,-1440.16l-996.84 -268.87z"
    />
  <path
      class="fil23"
      d="M41037.46 65057.71c0,0 92.98,1185.55 17.74,1570.8 -40.73,206.39 -265.97,631.22 -162.32,825.16 103.2,194.33 221.43,242.91 221.43,242.91l2677.69 43.31c145.75,2.27 49.34,-91.89 -68.16,-178.88 -192.47,-142.38 -348,-236.52 -962.61,-535.93 -40.29,-19.18 -186.4,-112.57 -238.81,-144.97 -133.71,-82.11 -267.78,-211.28 -383.39,-340.46 -192.03,-215.05 -208.96,-1259.37 -208.96,-1259.37l-892.61 -222.57z"
    />
  <path
      class="fil27"
      d="M43130.69 49298.54c0,0 337.05,1924.85 115.6,3186.84 -221.44,1262.07 -1283.89,12959.48 -1283.89,12959.48l-1181.05 67.05c0,0 -247.79,-4886.46 -203.34,-5565.88 44.45,-679.42 394.71,-1816.76 394.71,-1816.76l-117.51 -3945 1490.21 -5182.85 785.26 297.12z"
    />
  <path
      class="fil3"
      d="M39659.79 48893.69c0,0 -930.12,1407.37 -1151.27,2572.23 -221.44,1165.21 162.31,4744.85 -263.56,6271.64 -230.56,826.26 -1104.27,2102.64 -1237.17,3170.27 -132.98,1067.7 -653.81,3864.78 -653.81,3864.78l1180.25 235.38 2743.23 -6985.35 2151.98 -6314.19 551.34 -3251.65 -3320.99 436.89z"
    />
  <path
      class="fil0"
      d="M37036.77 66971.64c-643.58,117.87 -1071.42,-260.64 -1294.39,-543.83 -163.5,320.85 -243.26,799.9 -122.77,1063.54 105.83,232.36 415.36,225.57 659.06,234.62 257.57,9.8 457.18,-134.43 584.84,-360.02 59.92,-105.46 121.66,-236.53 173.26,-394.3z"
    />
  <path
      class="fil0"
      d="M42522.06 66879.72c-708.39,182.67 -1231.92,58.76 -1524.89,-60.24 -75.32,215.42 -175.45,485.44 -122.39,640.99 65.17,190.93 157.79,233.87 239.54,236.12 646.66,16.96 2369.26,40.31 2862.57,46.71 68.96,1.13 106.99,-79.83 62.55,-133.32 -122.41,-146.88 -1464.6,-697.87 -1517.37,-730.26z"
    />
  <path
      class="fil28"
      d="M47369.03 45973.47c49.34,-105.1 -470.76,-247.79 -487.69,-360.77 -16.57,-112.99 680.88,-49.34 715.55,-143.49 64.37,-173.27 -759.26,-116.78 -734.82,-198.52 24.52,-81.68 871.53,-181.88 796.93,-333.98 -74.59,-152.18 -867.28,195.46 -879.76,95.97 -12.78,-99.41 766.05,-257.2 774.67,-471.12 4.52,-114.52 -1297.03,438.35 -1433.37,361.93 -136.34,-76.85 215.45,-580.37 109.99,-671.47 -105.46,-90.78 -561.92,962.17 -644.38,993.05 -82.12,30.51 -1868,570.61 -2475.09,659.86 -51.16,-205.67 -508.05,-1336.95 -551.69,-1530.94 -356.68,201.87 -810.87,-41.03 -1175.8,138.96 183.78,647.82 596.14,2781.26 760.8,2877.3 501.99,292.23 3142.02,-1102.3 3578.48,-1348.99 436.88,-247.05 659.86,-129.18 944.58,-192.09 284.72,-62.85 652.26,228.95 701.6,124.29z"
    />
  <path
      class="fil26"
      d="M42671.17 39688.61c132.62,-603.66 262.89,-1211.12 -87.36,-1874.34 -283.19,-536.66 -773.14,-845.53 -1339.95,-912.9 -1606.26,-190.56 -1262.79,1309.07 -3507.75,1633.34 -697.44,100.95 -1345.62,198.08 -1928.2,544.91 -1051.5,626.36 -1448.47,1631.15 -751.02,3268.22 1707.93,4008.66 5794.17,525.43 6417.47,-183.78 618.34,-703.5 1111.35,-2086.79 1196.81,-2475.44z"
    />
  <path
      class="fil0"
      d="M40143.03 41594.26c0,0 -810.87,91.88 -1295.93,619.5 -485.06,527.62 784.16,4769.38 872.25,5441.22 88.17,671.54 -843.57,2530.48 -843.57,2530.48 0,0 3167.28,629.28 3990.48,85.83 0,0 72.33,-5191.09 -16.21,-5670.97 -88.09,-479.36 -823.2,-2430.55 -999.46,-2622.29 -176.26,-192.11 -1707.57,-383.76 -1707.57,-383.76z"
    />
  <path
      class="fil23"
      d="M40551.31 39959.02c0,0 -6.43,36.13 -17.74,97.15 -54.58,294.57 -265.15,1270.31 -407.47,1538.82 -171.74,324.28 588.63,1358.41 1320.38,1231.93 217.72,-37.3 -184.14,-950.2 -164.95,-1046.62 36.86,-185.32 87.01,-437.62 138.6,-696.35 28.97,-146.12 57.96,-294.13 85.83,-433.47 77.95,-395.43 142.03,-718.9 142.03,-718.9l-1096.67 27.44z"
    />
  <path
      class="fil29"
      d="M41420.49 41081.33l0 0c5.63,-29.42 11.68,-58.76 17.3,-88.09 -5.63,29.34 -11.68,58.67 -17.3,88.09zm38.03 -190.93c15.84,-81.38 32.05,-161.96 47.44,-239.91 77.95,-395.43 142.03,-718.9 142.03,-718.9l0 0c0,0 -64.07,323.47 -142.03,718.9 -15.39,77.95 -31.6,158.53 -47.44,239.91zm-927.94 -816.86c0.73,-6.05 1.83,-11.68 2.99,-17.37 10.15,-54.59 16.21,-88.82 17.74,-95.97 -1.54,7.15 -7.59,41.38 -17.74,95.97 -1.16,5.69 -1.89,11.32 -2.99,17.37z"
    />
  <path
      class="fil30"
      d="M41420.49 41081.33c-169.47,-24.9 -346.09,-107 -523.45,-261.73 -193.63,-169.11 -320.18,-372.08 -396.59,-588.63 11.67,-61.02 21.82,-114.52 30.14,-157.43 1.1,-6.05 1.83,-11.68 2.99,-17.37 10.15,-54.59 16.21,-88.82 17.74,-95.97 0,-0.81 0,-1.17 0,-1.17l1096.67 -27.44c0,0 -64.07,323.47 -142.03,718.9 -15.39,77.95 -31.6,158.53 -47.44,239.91 -6.79,33.94 -13.57,68.16 -20.72,102.84 -5.63,29.34 -11.68,58.67 -17.3,88.09z"
    />
  <path
      class="fil23"
      d="M41211.1 37352.93c0,0 -447.4,61.75 -771.32,480.17 -323.91,417.99 -673.36,1711.29 131.45,2414.43 804.82,703.07 1600.2,-92.7 1718.08,-936.63 117.87,-844 94.15,-1988.49 -1078.21,-1957.98z"
    />
  <path
      class="fil23"
      d="M42523.96 39102.61c-50.87,203.34 -184.14,340.85 -297.49,306.97 -113.78,-33.94 -165.02,-226.4 -114.14,-429.73 50.87,-203.78 184.14,-340.85 297.85,-306.91 113.43,33.86 164.66,226.33 113.79,429.67z"
    />
  <path
      class="fil26"
      d="M41707.47 37356.3c0,0 -1050.77,1206.66 -1544.81,1263.52 -493.74,56.86 -558.92,710.29 -558.92,710.29 0,0 176.62,-1505.69 665.84,-1796.02 488.79,-290.41 1437.88,-177.79 1437.88,-177.79z"
    />
  <path
      class="fil23"
      d="M40324.18 38912.78c40.29,218.44 -40.65,418.86 -180.43,447.47 -139.69,28.61 -285.8,-125.03 -325.73,-343.47 -40.29,-218.44 40.29,-418.79 180.43,-447.4 139.69,-28.69 285.8,125.02 325.73,343.4z"
    />
  <path
      class="fil8"
      d="M40309.14 45036.48l3396.24 496.73c102.04,15.04 172.46,109.99 157.79,212.03l-662.85 4530.57c-15.04,102.11 -109.91,172.9 -212.03,157.87l-3395.86 -496.82c-102.04,-15.03 -172.84,-109.91 -157.79,-212.03l662.85 -4530.56c14.67,-102.11 109.55,-172.91 211.65,-157.79z"
    />
  <path
      class="fil15"
      d="M42842.18 45256.75c2.99,-20.73 -11.32,-39.85 -31.97,-42.92l-1416.42 -207.14c-20.73,-2.99 -39.93,11.32 -42.99,32.05l-21.46 147.2 1491.39 218.08 21.46 -147.28z"
    />
  <path
      class="fil15"
      d="M42074.66 45298.2c-79.12,-11.68 -134.07,-85.47 -122.39,-164.58 11.68,-79.12 85.09,-133.71 164.15,-122.03 79.12,11.32 134.14,85.11 122.47,164.22 -11.68,79.12 -85.18,133.71 -164.22,122.39zm53.49 -366.82c-123.2,-18.03 -238,67.44 -256.11,190.56 -18.09,123.57 67.36,238.01 190.93,256.12 123.13,18.09 238.01,-67.45 256.11,-190.57 17.67,-123.49 -67.44,-238.01 -190.93,-256.11z"
    />
  <path
      class="fil4"
      d="M42824.51 45219.09c12.42,7.59 19.93,22.26 17.67,37.66l-21.46 147.28 -1491.39 -218.08c-15.03,102.11 55.77,196.62 157.43,211.66l1122.29 164.21c102.11,15.04 196.56,-55.76 211.66,-157.79l21.46 -147.28c2.26,-15.4 -5.25,-30.07 -17.67,-37.66z"
    />
  <path
      class="fil14"
      d="M41786.15 39728.9l-764.08 -4.16c0,0 15.76,290.42 352.08,302.08 409.74,13.94 412,-297.92 412,-297.92z"
    />
  <path
      class="fil23"
      d="M37926.68 46194.9l1230.39 125.76c0,0 -20.01,1044.35 1.09,1164.48 0,0 2104.17,583.37 2983.58,741.61 0,0 400.68,-227.13 562.64,-299.1 161.88,-72.25 597.24,-151 693.65,-163.42 96.42,-12.77 63.28,92.62 -19.19,129.56 -82.83,36.93 -296.76,137.86 -357.4,261.36 0,0 173.64,18.83 265.52,-22.26 91.88,-40.65 218.44,-127.66 220.71,-172.46 1.9,-44.82 22.63,-153.28 53.13,-147.58 7.53,1.45 17.67,37.21 28.17,74.51 9.85,35.04 20.01,71.6 28.61,107.36 15.48,64.01 33.21,157.43 40.36,199.61 15.4,95.61 -42.92,360.4 -51.23,454.19 -15.04,171.74 -64.01,247.79 -154.81,291.51 -146.12,50.8 -300.48,83.2 -528.7,106.93 -418.43,43.35 -803.35,-77.14 -971.29,-96.05 -167.58,-18.83 -2847.17,-284.72 -2847.17,-284.72 0,0 -1065.08,-153.27 -1135.87,-336.68 -70.44,-183.05 -42.19,-2134.61 -42.19,-2134.61z"
    />
  <path
      class="fil0"
      d="M38995.55 42060.5c0,0 -388.35,184.22 -729.56,979.62 -324.57,755.84 -419.89,4527.94 -419.89,4527.94l1287.25 -214.72 654.16 -1758.73c466.23,-1052.59 345.74,-2278.1 -333.68,-3207.56 -181.15,-248.15 -348,-397.7 -458.28,-326.54z"
    />
  <path
      class="fil11"
      d="M63700.99 29403.21l-4408.98 0 0 -5463.25 5463.1 0 0 4789.38c-363.76,196.91 -715.91,421.42 -1054.12,673.87z"
    />
  <polygon
      class="fil11"
      points="65721.73,24682.29 76379.36,24682.29 76379.36,23939.95 65721.73,23939.95 "
    />
  <polygon
      class="fil11"
      points="65721.73,26255.94 72914.2,26255.94 72914.2,25513.59 65721.73,25513.59 "
    />
  <path
      class="fil11"
      d="M75295.24 27829.57l-4795.14 0c-528.42,-97.36 -1062.67,-146.04 -1597.65,-146.04 -534.26,0 -1068.51,48.68 -1595.46,146.04l-1585.25 0 0 -742.33 9573.51 0 0 742.33z"
    />
  <path
      class="fil23"
      d="M80047.32 42076.34c-223.33,-181.52 -1950.17,576.58 -1928.27,840.2 21.16,263.62 -1205.72,2821.18 -1205.72,2821.18l-2120.23 -1690.64 -0.73 0.44c-18.98,-61.02 -219.69,-718.61 -229.91,-836.13 -10.22,-123.48 -368.58,-339.31 -534.26,-307.63 -166.41,31.6 141.59,240.63 162.03,278.65 55.47,104.3 -158.38,143.49 -158.38,143.49 0,0 -605.06,-193.92 -618.19,-391.64 -13.14,-197.71 -426.97,345.66 -378.8,421.35 48.17,73.86 1037.85,871.15 1180.18,1043.98 0,0 2742.79,3135.24 2937.66,3217.35 171.52,71.96 782.41,-1008.51 1359.73,-1725.96 577.31,-717.08 2232.62,-3247.12 1534.88,-3814.65z"
    />
  <path
      class="fil31"
      d="M85581.08 65130.76c0,0 377.34,367.95 386.09,502.76 8.03,135.23 32.84,1581.02 -121.16,1715.85 -154,134.82 -605.78,230.47 -460.54,382.63 109.48,114.49 954.66,90.01 1515.18,59.12 163.48,-9.03 367.85,-1312.85 432.8,-1504.55 94.16,-278.31 322.6,-905.36 237.21,-1099.31 -41.6,-94.54 -240.85,-288.86 -521.85,-470.39 -295.58,-190.57 -578.05,-615.35 -578.05,-615.35l-889.69 1029.24z"
    />
  <path
      class="fil23"
      d="M81677.08 65987.16l337.92 955.47c24.82,150.64 123.34,523.87 123.34,660.94 0,515.57 -2324.59,-437.6 -1803.47,-666.23 46.71,-20.33 194.87,-185.66 210.19,-361.15 24.09,-270.4 -195.6,-609.36 -195.6,-609.36l1327.6 20.33z"
    />
  <path
      class="fil1"
      d="M78030 48245.14c0,0 -169.32,1707.93 -169.32,1733.55 0,2763.15 -548.12,8159.99 -443.76,8679.65 253.99,1266.96 2988.75,7730.3 2988.75,7730.3l1478.68 -176.65 -1586.7 -7810.49 368.57 -3042.98 1003.55 -6156.76 -3639.78 -956.62z"
    />
  <path
      class="fil20"
      d="M82990.82 49756.09l280.26 1618.67 759.05 6662.55 2890.23 6511.98c0,0 -407.26,947.54 -1006.48,1080.48l-4599.54 -6685.54 -2857.38 -8554.63 100.71 -1900.75 4433.14 1267.25z"
    />
  <path
      class="fil22"
      d="M77440.28 44178.54l2049.43 209.03c0,0 94.16,-1680.42 94.16,-2481.87 0,-972.38 -82.48,-2224.95 -199.98,-2197.88 -329.89,75.69 -773.64,257.64 -1037.85,620.67 -914.51,1256.37 -905.75,3850.05 -905.75,3850.05z"
    />
  <path
      class="fil3"
      d="M78447.48 41734.33c-43.06,296.47 -831.3,8356.62 -831.3,8356.62 3732.47,1802.81 5791.39,321.2 5791.39,321.2 0,0 -121.88,-5660.02 24.08,-6430.53 97.07,-509.58 218.23,-3896.76 -112.4,-3991.35 -423.32,-122.03 -910.13,-251.22 -1439.27,-306.17 -452.5,-47.07 -2209.27,-74.15 -2523.1,31.67 0,0 -729.13,771.68 -909.4,2018.57z"
    />
  <path
      class="fil3"
      d="M87030.57 64707.81c0,0 -868.53,2445.71 -1208.64,2563.57 -89.77,31.65 -523.3,111.11 -605.06,302.81 -24.81,57.62 0,250.43 0,250.43l1810.78 0c0,0 228.44,-1077.84 318.94,-1551.22 0,0 479.51,-1156.96 426.24,-1262.01 -53.28,-105.09 -742.27,-303.57 -742.27,-303.57z"
    />
  <path
      class="fil3"
      d="M82270.46 67773.8l-265.67 -840.95c0,0 -559.8,236.52 -838.6,196.97 -279.54,-39.57 -826.2,-196.97 -826.2,-196.97 -1115.22,367.17 -2029.72,545.33 -1863.31,840.95l3793.78 0z"
    />
  <path
      class="fil23"
      d="M77152.71 47616.95c-8.03,-3.36 -38.68,-27.45 -56.2,-41.75 66.42,-789.77 54.01,-1555.02 -193.41,-1813.39 5.84,-12.4 59.85,-127.65 116.78,-247.05 287.56,222.17 423.32,812.32 370.03,1770.4 -3.65,65.91 -22.63,116.05 -37.95,198.16 -83.2,91.52 -158.38,150.64 -199.26,133.64z"
    />
  <path
      class="fil23"
      d="M81380.76 38126.07l240.12 1585.54c0,0 -878.02,1887.91 -1402.78,1724.14 -439.37,-137.51 -168.6,-1807.7 -168.6,-1807.7 0,0 239.4,-897.14 167.87,-1346.07 -72.26,-448.86 1163.38,-155.89 1163.38,-155.89z"
    />
  <path
      class="fil3"
      d="M80217.38 38281.97c-72.26,-448.86 1163.38,-155.89 1163.38,-155.89l19.71 131.45c-35.76,88.16 -80.28,163.41 -133.56,221.07 -275.89,297.12 -707.97,475.28 -1080.92,488.85 37.21,-241.8 60.57,-501.26 31.39,-685.47z"
    />
  <path
      class="fil23"
      d="M81583.66 35883c35.04,-12.84 279.54,1805.81 -185.38,2305.98 -464.92,500.53 -1370.67,664.31 -1695.45,270.05 -359.82,-435.8 -341.57,-2390.35 381.71,-2904.82 722.55,-514.76 1499.12,328.79 1499.12,328.79z"
    />
  <path
      class="fil26"
      d="M80359.69 34581.46c558.34,113.72 920.35,455.29 1053.92,600.67 253.25,30.15 597.74,170.27 953.92,760 437.91,724.96 114.58,1528.24 -394.85,1922.22 -509.45,394.27 -502.87,849.26 -502.87,849.26l-81.02 -235.37c-59.12,-178.53 -83.2,-367.56 -63.5,-554.76 12.4,-112.25 35.76,-233.48 82.48,-333.33 122.61,-263.26 -262.76,-437.98 -371.5,-656.79 -83.2,-168.67 -87.58,-554.33 -218.23,-833.06l-156.92 -212.75c0,0 -362.01,-281.72 -715.98,-202.24 -353.25,79.48 -302.9,-1249.95 414.55,-1103.84z"
    />
  <path
      class="fil23"
      d="M81060.36 37256.89c-3.65,221.8 97.07,403.32 225.52,405.58 127.73,2.26 234.28,-175.9 237.94,-397.7 3.65,-221.79 -97.07,-403.68 -224.79,-405.57 -128.46,-2.26 -235.01,175.89 -238.66,397.69z"
    />
  <path
      class="fil14"
      d="M80304.96 37769.46l-700.66 -36.2c0,0 2.19,267.06 310.19,291.87 375.15,30.15 390.48,-255.67 390.48,-255.67z"
    />
  <path
      class="fil26"
      d="M74569.76 41915.11c164.95,-168.3 318.22,-342.3 461.27,-519.65l3058.82 2987.22c188.31,183.42 123.34,554.76 -144.51,828.9 -267.86,274.57 -637.16,347.99 -825.46,164.22l-3058.82 -2987.23c173.7,-146.92 344.49,-304.71 508.71,-473.46z"
    />
  <path
      class="fil32"
      d="M69003.89 44172.18c-91.97,0 -183.93,-1.53 -275.16,-4.96l0 -880.13 850.28 863.93c-191.95,13.94 -383.18,21.17 -575.12,21.17zm-2865.41 -546.51c-351.06,-139.34 -694.83,-305.01 -1026.68,-497.47l0 -3517.54 1026.68 1043.99 0 2971.02zm-3616.66 -2928.47c-869.18,-1301.92 -1305.71,-2808.04 -1305.71,-4312.57 0,-234.21 10.59,-468.49 31.68,-701.6l1274.02 1294.76 0 3719.42z"
    />
  <polygon
      class="fil33"
      points="62521.82,40697.2 62521.82,36977.78 63580.12,38054.17 62521.82,38054.17 "
    />
  <path
      class="fil34"
      d="M68728.73 44167.22c-132.1,-4.45 -263.47,-12.77 -394.84,-24.08 -746.64,-64.37 -1487.45,-236.84 -2195.41,-517.46l0 -2971.02 2590.25 2632.44 0 880.13z"
    />
  <path
      class="fil34"
      d="M65111.8 43128.21c-512.58,-297.13 -999.17,-657.16 -1448.11,-1080.85 -23.72,-22.62 -47.8,-45.24 -71.53,-68.16 0,-0.36 0.36,0 0,-0.36 -8.68,-8.33 -17.73,-17.37 -26.71,-25.7l0 0c-398.51,-389.38 -746.49,-810.43 -1043.63,-1255.93l0 -2643.03 1058.29 0 1531.68 1556.49 0 3517.54z"
    />
  <path
      class="fil32"
      d="M72345.9 43414.01l0 -16.57c377.33,-189.39 738.61,-409.37 1078.72,-657.16l0 41.46c-345.21,242.16 -706.49,453.01 -1078.72,632.27zm1078.72 -2751.48l-1078.72 -1096.67 0 -2594.49 1078.72 1096.75 0 2594.41zm2590.26 -1004.43l0 -176.25c290.48,-687.67 487.54,-1429.57 571.47,-2211.02 25.55,-241.44 40.15,-480.97 43.79,-718.98l-615.26 -625.11 0 -1016.91 -999.9 0 -2669.08 -2712.65 0 -1630.56 -1604.23 0 -1842.88 -1872.96c2.91,0 5.84,0 9.49,0 0,0 0.73,0 0.73,0 0,0 0.73,0 0.73,0 1946.53,0.22 3898.88,729.86 5411.14,2193.22l0.74 0.51c3.65,4.16 7.29,7.95 12.4,12.12 4.38,4.3 8.75,8.98 13.14,13.28 1564.08,1527.23 2349.4,3549.28 2350.13,5568.65 0,1085.44 -227.71,2170.07 -682.41,3176.69zm-6259.24 -2724.76l-6078.73 -6179.02c-996.18,926.62 -1754.28,2118.4 -2156.87,3479.94 340.47,-1177.26 967.2,-2289.05 1881.93,-3225.81 853.41,-873.64 1864.99,-1500.58 2945.98,-1879.74 -411.64,146.78 -808.68,327.99 -1186.08,540.46l4593.77 4669.54 0 2594.64z"
    />
  <path
      class="fil33"
      d="M69755.64 36933.34l0 -2594.64 834.95 848.31 -834.95 0 0 1746.33zm2590.26 -4736.17l-1604.23 -1630.56 1604.23 0 0 1630.56z"
    />
  <path
      class="fil33"
      d="M73424.61 40662.53l0 -2594.41 453.98 460.98 -453.98 0 0 2133.43zm2590.26 -4735.8l-999.9 -1016.91 999.9 0 0 1016.91z"
    />
  <path
      class="fil34"
      d="M71539.41 43746.24c275.88,-100.94 545.2,-217.72 806.49,-348.8l0 16.57c-263.48,126.56 -532.8,237.27 -806.49,332.23zm806.49 -4180.39l-2590.26 -2632.51 0 -1746.33 834.95 0 1755.31 1784.36 0 2594.49z"
    />
  <path
      class="fil34"
      d="M73424.61 42781.74l0 -41.46c394.13,-286.24 760.51,-609.36 1095.52,-964.5l-1095.52 -1113.25 0 -2133.43 453.98 0 1735.59 1764.35c148.17,-260.99 282.45,-531.77 400.69,-811.59l0 176.25c-359.09,794.3 -860.5,1539.99 -1504.23,2199.42l0 0c-7.3,7.52 -14.6,15.48 -22.63,23.36 -2.19,2.26 -5.1,4.89 -7.29,7.15 -330.63,334.78 -683.87,632.27 -1056.11,893.71z"
    />
  <path
      class="fil35"
      d="M69579.01 44151.01l-850.28 -863.93 0 -6605.7 -2590.25 0 0 3973.26 -1026.68 -1043.99 0 -5318.22 -2589.97 0 0 2685.35 -1274.02 -1294.76c44,-488.86 134.8,-973.91 272.24,-1448.76 402.58,-1361.54 1160.68,-2553.32 2156.87,-3479.94l6078.73 6179.02 0 7202.28c-59.12,6.05 -118.23,10.94 -176.63,15.39zm2766.89 -753.57l0 -3831.59 1078.72 1096.67 0 2077.75c-340.11,247.79 -701.39,467.77 -1078.72,657.16z"
    />
  <polygon
      class="fil36"
      points="66138.48,40654.65 66138.48,36681.39 68728.73,36681.39 68728.73,39892.39 66138.48,39892.39 "
    />
  <polygon
      class="fil36"
      points="65111.8,38054.17 63580.12,38054.17 62521.82,36977.78 62521.82,34292.44 65111.8,34292.44 "
    />
  <path
      class="fil37"
      d="M69755.64 44135.62l0 -7202.28 2590.26 2632.51 0 3831.59c-261.29,131.08 -530.61,247.86 -806.49,348.8 -579.51,200.71 -1178.71,330.62 -1783.77,389.38z"
    />
  <polygon
      class="fil37"
      points="68728.73,43287.09 66138.48,40654.65 66138.48,39892.39 68728.73,39892.39 "
    />
  <path
      class="fil37"
      d="M73424.61 42740.28l0 -2077.75 1095.52 1113.25c-335.01,355.14 -701.39,678.26 -1095.52,964.5z"
    />
  <polygon
      class="fil37"
      points="65111.8,39610.66 63580.12,38054.17 65111.8,38054.17 "
    />
  <path
      class="fil35"
      d="M76014.87 39481.85l0 -3555.12 615.26 625.11c-3.64,238.01 -18.24,477.55 -43.79,718.98 -83.93,781.46 -280.99,1523.35 -571.47,2211.02zm-2590.26 -1413.73l-1078.72 -1096.75 0 -4774.2 2669.08 2712.65 -1590.36 0 0 3158.29zm-3668.98 -3729.41l-4593.77 -4669.54c377.4,-212.46 774.44,-393.68 1186.08,-540.46 822.55,-288.88 1685.97,-433.82 2550.85,-435.07l1842.88 1872.96 -986.03 0 0 3772.1z"
    />
  <polygon
      class="fil36"
      points="72345.9,35187.01 70590.59,35187.01 69755.64,34338.71 69755.64,30566.6 70741.67,30566.6 72345.9,32197.17 "
    />
  <polygon
      class="fil36"
      points="76014.87,38529.09 73878.59,38529.09 73424.61,38068.12 73424.61,34909.82 75014.97,34909.82 76014.87,35926.73 "
    />
  <polygon
      class="fil37"
      points="72345.9,36971.37 70590.59,35187.01 72345.9,35187.01 "
    />
  <path
      class="fil37"
      d="M75614.18 40293.44l-1735.59 -1764.35 2136.28 0 0 952.76c-118.24,279.83 -252.53,550.6 -400.69,811.59z"
    />
  <path
      class="fil8"
      d="M63565.45 41953.13c-3067.51,-2995.91 -3140.57,-7896 -163.48,-10944.68 2977.36,-3048.6 7877.61,-3091.44 10945.19,-95.68 3067.57,2995.83 3141.29,7895.71 163.48,10944.75 -2977.08,3048.68 -7877.32,3091.15 -10945.19,95.61zm-703.58 720.51c3467.83,3386.82 9008.15,3338.22 12374.25,-108.45 3366.09,-3446.37 3282.89,-8985.97 -184.65,-12372.86 -3468.27,-3386.9 -9008.59,-3338.43 -12374.47,108.16 -3365.72,3446.52 -3282.89,8986.33 184.88,12373.15z"
    />
  <path
      class="fil38"
      d="M69006.8 44651.19c-2079.35,0 -4165.06,-784.08 -5775.05,-2356.41 -3257.7,-3181.21 -3335.28,-8384.79 -173.63,-11622.14 1599.1,-1637.28 3720.43,-2458.15 5847.96,-2458.15 2079.35,0 4165.28,784.16 5774.6,2356.56 3258.08,3181.36 3335.44,8384.72 173.71,11622.05 -1598.39,1637.43 -3720.07,2458.09 -5847.6,2458.09zm-7790.69 -8266.56c0,2019 785.62,4040.99 2349.34,5568.5 1516.56,1480.87 3480.23,2219.05 5438.44,2219.05 2003.45,0 4001.06,-773.2 5506.75,-2314.66 1459.7,-1494.74 2186.64,-3434.25 2186.64,-5376.11l0 0c-0.73,-2019.37 -786.05,-4041.42 -2350.13,-5568.65 -4.39,-4.3 -8.76,-8.98 -13.14,-13.28 -5.11,-4.16 -8.75,-7.95 -12.4,-12.12l-0.74 -0.51c-1512.98,-1463.58 -3464.61,-2193.14 -5411.14,-2193.22 0,0 -0.73,0 -0.73,0l0 0c-2.91,0 -6.57,0 -10.22,0 -864.88,1.25 -1728.3,146.19 -2550.85,435.07 -1080.99,379.16 -2092.57,1006.1 -2945.98,1879.74 -914.73,936.76 -1541.46,2048.55 -1881.93,3225.81 -137.44,474.85 -228.23,959.9 -272.24,1448.76 -21.09,233.11 -31.68,467.39 -31.68,701.6l0 0z"
    />
  <path
      class="fil8"
      d="M87591.09 55025.19l475.13 -492.94c475.13,-493.02 461.27,-1277.46 -32.11,-1752.38l-8831.24 -8562.87c-493.38,-474.92 -1277.97,-460.62 -1752.38,31.96l-475.86 493.39c-475.13,492.58 -460.54,1277.1 32.11,1752.31l8831.97 8562.58c492.65,475.27 1277.25,460.97 1752.38,-32.05z"
    />
  <path
      class="fil39"
      d="M87104.28 50176.4c2.19,-17.29 2.19,-34.66 0.74,-51.96 -54.74,-558.13 -518.94,-5245.39 -596.3,-5444.64 -70.79,-179.99 -2149.42,-3152.98 -2149.42,-3152.98l-1021.79 1391.98 1999.07 2666.74c45.24,169.47 766.34,3333.39 766.34,3333.39 0,0 148.17,576.96 213.85,922.32 -29.92,83.2 -59.85,161.88 -86.12,226.33 -66.42,137.86 -144.51,251.22 -215.31,346.1 -89.04,119.77 -237.2,381.49 -255.44,451.55 -21.17,81.3 -59.12,250.42 -81.02,352.53 -21.17,102.4 -51.09,220.99 -56.2,276.39 -2.93,33.87 -37.23,101.31 -64.23,148.75 -40.14,70.79 27.73,154.07 105.1,128.45 72.99,-24.08 129.18,-117.87 164.22,-176.63 98.52,-165.31 151.08,-467.39 175.16,-451.19 24.81,15.83 110.94,527.98 124.07,586 13.87,58.02 117.52,652.71 175.9,761.53 57.66,108.83 135.75,90.36 155.46,22.56 18.24,-58.76 -64.22,-891.01 -64.22,-891.01 0,0 -10.22,-106.19 36.49,-73.05 46.72,33.13 121.89,788.6 154.73,899.33 32.11,110.72 105.83,169.1 168.6,80.21 75.9,-108.09 -54.74,-909.54 -54.74,-909.54 0,0 -14.59,-100.5 28.47,-91.08 43.05,9.34 96.34,653 129.91,708.76 33.57,55.76 118.24,75.69 159.11,-17.01 47.44,-109.55 -75.9,-823.56 -75.9,-823.56 0,0 5.84,-56.93 32.84,-38.03 27.01,18.76 112.4,564.47 167.15,614.97 46.71,42.19 86.12,1.09 86.12,1.09 101.45,-69.63 -54.74,-588.63 -53.28,-846.63 1.46,-257.93 -117.51,-547.9 -82.47,-855.24 2.19,-19.19 8.75,-66.64 13.13,-96.42z"
    />
  <path
      class="fil3"
      d="M85983.22 43409.92l-1775.74 1191.93c0,0 -1000.62,-1489.13 -1537.79,-2019.37 -672.93,-663.94 245.23,-2698.41 678.76,-2583.53 969.98,257.63 2634.78,3410.97 2634.78,3410.97z"
    />
  <polygon
      class="fil26"
      points="1284.99,68155.69 89637.53,68155.69 89637.53,67628.43 1284.99,67628.43 "
    />
 </g>
</svg>
