<?xml version="1.0" encoding="utf-8"?>
<!-- Generator: Adobe Illustrator 19.1.0, SVG Export Plug-In . SVG Version: 6.00 Build 0)  -->
<svg version="1.1" xmlns="http://www.w3.org/2000/svg" xmlns:xlink="http://www.w3.org/1999/xlink" x="0px" y="0px"
	 viewBox="0 0 4934.5 1522.1" style="enable-background:new 0 0 4934.5 1522.1;" xml:space="preserve">
<style type="text/css">
	.st0{fill:#E6E6E6;}
	.st1{fill:#FF9580;}
	.st2{fill:#4D4D4D;}
	.st3{fill:#FFAD86;}
	.st4{fill:#FFFFFF;}
	.st5{fill:#1A1A1A;}
	.st6{fill:#808080;}
	.st7{fill:#95D600;}
	.st8{fill:#BF5000;}
	.st9{fill:#FF6B00;}
	.st10{fill:#FFBD83;}
	.st11{fill:#FFD19D;}
	.st12{fill:#7CB300;}
	.st13{fill:#FF8A80;}
	.st14{fill:#FFAA8D;}
	.st15{fill:#B3B3B3;}
	.st16{fill:#FFAC83;}
	.st17{fill:#FFC49D;}
	.st18{fill:#F0F2FC;}
	.st19{fill:#ED8A72;}
	.st20{fill-rule:evenodd;clip-rule:evenodd;fill:#808080;}
	.st21{fill-rule:evenodd;clip-rule:evenodd;fill:#FFFFFF;}
	.st22{fill-rule:evenodd;clip-rule:evenodd;fill:#E6E6E6;}
	.st23{fill-rule:evenodd;clip-rule:evenodd;fill:#4D4D4D;}
	.st24{opacity:0.62;fill:#FFFFFF;}
	.st25{fill:#CFFDFF;}
</style>
<g id="Ñëîé_1">
	<g>
		<path class="st0" d="M4289.2,669c-3.2-8.6-28.1-102.1-139.5-168.2c-111.4-66.1-257.3-60.5-439.6,157.6l-27.6,704.5
			c0,0,229.6,90.6,500.9,61c0,0,120.6-23.5,131.6-84.3L4289.2,669z"/>
		<g>
			<path class="st1" d="M4006.1,492.5c-25.2,98.9,21.2,127.7,63.7,128.1c35.4,0.4,68.2-9.6,54.5-102.7
				c-10.4-70.6-13.5-224.4,39.8-261.3c53.3-36.9-148.9,13.3-148.9,13.3S4014.8,458.5,4006.1,492.5z"/>
			<path class="st2" d="M4240.4,301.5c0,0,76.5-16.7,67.7-77.8c-8.7-61.2,12-29.7,29.2-56.3c17.2-26.6-15.7-71.7-49.7-64
				c-34,7.7,27.1-39.8,7.5-59.1s-97-38.8-110.8,5.1c-13.8,43.9-120.1-72.9-148.1-4.5c-28,68.5-15.4,55.7-47,66.1
				c-31.6,10.4-8.4,66.2-8.4,66.2s-49.4,24.9-24.7,88.1C3980.8,328.5,4240.4,301.5,4240.4,301.5z"/>
			<path class="st3" d="M4055.9,279.2c0,0,43.5-147,146.5-112.3c103,34.7,61.1,125.5,61.1,125.5l-84,183.9l-73.2-9.3l-93.3-88.8
				l7.8-61.5c-2.6,0.9-14-21.3-16.8-41.8c-1.3-9.5-0.7-18.5,3.4-24.8C4013.8,240.6,4049,225.5,4055.9,279.2z"/>
			<path class="st2" d="M4058.8,256.8c-0.9,7.1-12,94.5-12,94.5l50,61.6c0,0,22.6-69.2,86.4-51.4c63.8,17.7,42.8,53.5,42.8,53.5
				s19,45.7,6,60.8c-12.9,15.2,5.9,20-2.6,42.9c-8.5,22.9-39.2,26.2-46.1,26.6c-6.9,0.3-22.1,22.4-47.4-6c0,0-78.3-1.6-84.5-50.4
				c-6.2-48.8-31.5-34-34.2-45.2c-2.7-11.2,6.3-49.3,6.3-49.3s-32.8-23.7-12.6-41.6c20.2-17.8,33-118.3,33-118.3L4058.8,256.8z"/>
			<path class="st4" d="M4175.8,397.8c-4.1-0.5-35.3,7-41.4,0.5c0,0,11.2,29.8,53.7,32.3c9.9,0.6,12.7-23.9,12.7-23.9L4175.8,397.8z
				"/>
		</g>
		<g>
			<path class="st0" d="M4153.7,73.9c22-4.9,25.5-16.5,27.2-18.4c-108.9-27.3-151.7,71.4-163.6,149.1l42.5,14.3
				C4059.2,181.3,4086,63.9,4153.7,73.9z"/>
			<path class="st5" d="M4033.1,198c-27.3-3.6-46.1,32.3-46.1,32.3l-8,37.5c-11.2,36.7,22,57.2,22,57.2
				c60.5,20.8,93-99.6,47.7-121.8C4048.6,203.2,4037.2,198.5,4033.1,198z"/>
			
				<ellipse transform="matrix(0.9479 0.3187 -0.3187 0.9479 291.8752 -1265.9642)" class="st6" cx="4015.1" cy="259.1" rx="37.3" ry="51.1"/>
			
				<ellipse transform="matrix(0.9479 0.3187 -0.3187 0.9479 290.7842 -1263.9016)" class="st0" cx="4008.3" cy="256.8" rx="26.7" ry="36.5"/>
			<path class="st5" d="M4256.5,403.4c0,0,7.8-20.5-20-51.1c0,0,0.6-5.7,7.8-0.5c7.2,5.2,35,45.4,18.2,59.7c0,0,2.8,5.6-5.7,12.3
				c-8.6,6.7-14,3.6-14,3.6s-9.7-4.4-8.5-13.3c1.1-8.9,6.8-9.9,6.8-9.9L4256.5,403.4z"/>
		</g>
		<polygon class="st7" points="4057.9,699 4114.2,695 4114.2,869.6 4134.4,996.6 4160.9,1117.5 4048.7,1112.9 4040.7,900.2 		"/>
		<polygon class="st2" points="4076.9,635.5 4040.7,662.2 4057.9,684.3 4114.1,679.8 4120.3,656 4086,628.8 		"/>
	</g>
	<g>
		<path class="st5" d="M3341.8,365.7c-17.1,82.2-15.3,161.5,5.3,237.9l-213.3-56.5l29.9-161.4L3341.8,365.7z"/>
		<polygon class="st8" points="3402.6,616.1 3218.6,543.5 3330.8,925.5 3342.2,1326.5 3392.8,1321.2 3426,1051.8 		"/>
		<path class="st9" d="M3206.1,510.7l-204.9,76.1l41.7,380.6l22.7,160.1l-122.1,231.8l455.8,2.8l-41.7-181.4l30.3-275.5
			c0,0,97.7-40.4,81.6-159.4l-82-162.6L3206.1,510.7z"/>
		<polygon class="st10" points="3186.4,412.3 3255.2,430.1 3269.7,589.2 3172.7,559.1 		"/>
		<path class="st11" d="M3357.9,274.7c0,77.5-31.9,156.4-84.7,176.9l-30.8-4.8c-93.9-13.2-135.7-75.4-135.8-168.3
			c0-93,60.7-168.3,135.6-168.3C3317.2,110.2,3357.9,181.7,3357.9,274.7z"/>
		<path class="st4" d="M3225,386.2c9.8,29.6,24.6,35.1,49.4,35.1c25.1,0,19.6-4.7,31.8-26.7C3268.8,403.5,3265,392.1,3225,386.2z"/>
		<path class="st2" d="M3189.9,252.3l194.2,7.5c0,0-1.4-69.3-24.3-110.5c-32.1-57.9-127.5-117.9-221.6-68.5
			c-116.7,60.7-83.8,215.2-64.5,275c32,98.9-44.2,220.7-44.2,220.7l146.7-52l-0.2-118L3189.9,252.3z"/>
		<path class="st4" d="M3176.3,524.5l-61.8,21.9l35.1,75.2l54.5-14.8c0,0,75,102,85.4,137.8c0,0,20.9,67.3,16.2,108.9
			c0,0,52.7-25.9,73.9-104.2c0,0,16.3-21.8-56.4-141.4l48.2,9.8l-53.2-62l-53.8-21.1l1.1,39.8L3176.3,524.5z"/>
		<g>
			<path class="st0" d="M3236.3,82.5c6,0,11.6,0.8,17.1,0.9c15.1,0.4,32.7,3.2,47.8,6c-19.6-11.3-47.1-27.6-79-26.9
				c-123.1,2.7-144.9,98.6-130.9,179l31.5,4.8C3108.8,206.3,3100.9,82.5,3236.3,82.5z"/>
			<path class="st0" d="M3102,234.8c-29.7,5.3-34.4,53.4-34.4,53.4l2.5,29.8c1.2,38.2,42.9,47.1,42.9,47.1
				c70.3,0.5,61.9-123.7,7-130.2C3120,234.8,3106.4,234,3102,234.8z"/>
			<ellipse class="st5" cx="3105.5" cy="298.2" rx="38" ry="52"/>
			<ellipse class="st0" cx="3098.3" cy="298.2" rx="26.7" ry="36.5"/>
			<path class="st5" d="M3203.6,410.7c0,0-71.4-34.5-83.8-67.9c0,0-3.9-5.7-10.2,1.2c-6.3,6.9,61.6,65.3,91,76.2
				c0,0-0.5,6.3,14.1,11.4c14.7,5.1,19.8,0.6,19.8,0.6s9.9-6.6,3.4-15.5c-6.4-8.9-14.2-8.7-14.2-8.7S3208.9,404.3,3203.6,410.7z"/>
		</g>
	</g>
	<g>
		<g>
			<path class="st12" d="M2561.2,1122.1l229.7,149.1l-77.6-214.7l19.9-105.7l-130.4-429.3l-58.8-45.8c0,0-87.4-24.9-30.4,199.7
				c0,0,62.9,261.3,65.4,272.5C2579,948,2566.3,1144.2,2561.2,1122.1z"/>
		</g>
		<path class="st7" d="M2416,403.6c2.5,1.2,112.4,59.4,112.4,59.4l52.1,44.8l5.2,107.2l-11.5,139.1l-105,362.1L2416,403.6z"/>
		<path class="st4" d="M2117.4,433.2c7.8-2.9,59.6-45,59.6-45l229,34.1l21.8-11.3l94.4,107.6c0,0,41.2,163.3,38.8,171.2
			s-32.5,482.8-32.5,482.8l-157.5,85.7l-260.4-45.1l5.6-162.8l-91.9-474.6L2117.4,433.2z"/>
		<path class="st12" d="M2367.9,559.1c7.9-1,57.8-7.3,57.8-7.3l15.7,170.1l17.3,195.8l-62.6,172.7l-37.2-160.7l17.8-187.2
			L2367.9,559.1z"/>
		<polygon class="st7" points="2173.9,375.3 2248.6,601 2416,929.8 2500.3,607.3 2494.2,468.9 2571.9,550.8 2535.9,1384.5 
			2048,1437.2 2052.3,971.9 1982.7,503.7 		"/>
		<polygon class="st12" points="2375.7,460.1 2333.7,515.8 2361.7,547.4 2421.3,541.4 2418.9,478.7 		"/>
		<path class="st13" d="M2408.8,373.5c0.9,6.4,24.8,41.4,24.8,41.4l-57.9,45.2l-185.9-56.5l25.7-81.2l-0.9-43.3l20.2-25.4l7,27.2
			L2408.8,373.5z"/>
		<polygon class="st0" points="2375.7,460.1 2312.7,543.6 2191.1,422.4 2175.1,378.6 2201.2,362.3 2245.8,410 		"/>
		<polygon class="st0" points="2463,522.2 2375.7,460.1 2404.1,414.2 2415.1,382.7 2429.1,400.5 		"/>
		<g>
			<polygon class="st14" points="2464,84.8 2473.7,151.4 2459.6,256.9 2420.5,379.9 2366.5,384.3 2238,300.8 2235,266.8 2212,264.5 
				2201.8,200.8 2247.5,53.3 			"/>
			<polygon class="st2" points="2255.6,204.9 2308.9,244.6 2327.4,280.8 2395.3,258.9 2440.5,263.6 2448.7,287.7 2459.8,257.5 
				2447.3,357.1 2427.3,438.1 2309.1,442 2234.8,367.3 			"/>
			<path class="st2" d="M2235,266.8c-4.7,11.3-18.6,20.3-18.6,20.3l-22.7-92.7l3.8-90.4l50.7-85.2l120.2-9.1l63.8,20.8l24.5,32
				l7.3,22.3l-15.3,24.6l-84.2-2.2l-59.3-20.8l-24,13l-3,152.6l-12.4,25.4l-27.6-92l-16.5-4.7l-11.6,33.4l9.3,44L2235,266.8z"/>
			<path class="st14" d="M2430.2,341.7c-0.9-0.1,2.2,0.2-8.9-0.9c-5.5-0.5,6.9-13.6-15.3-15.8c-12.9-1.3-20.8,12.3-24.1,11.9
				c-24.2-2.4-24.2-2.4-24.2-2.4l-15.8-34.9c9.5,1.9,44.9,2.6,65.3,4.6c14.6,1.4,33,1.5,33,1.5L2430.2,341.7z"/>
		</g>
		<g>
			<path class="st0" d="M2356.4,20c6,0,11.6,0.8,17.1,0.9c15.1,0.4,32.7,3.2,47.8,6c-19.6-11.3-47.1-27.6-79-26.9
				c-123.1,2.7-144.9,98.6-130.9,179l31.5,4.8C2228.9,143.8,2221.1,20,2356.4,20z"/>
			<path class="st5" d="M2223.3,172.1c-27,5.3-33.4,45.4-33.4,45.4l4.3,38.1c1.1,38.4,39,47.2,39,47.2c64,0.5,56.4-124.1,6.4-130.6
				C2239.6,172.1,2227.3,171.3,2223.3,172.1z"/>
			<ellipse class="st0" cx="2225.7" cy="235.7" rx="33.9" ry="46.4"/>
			<ellipse class="st5" cx="2218.5" cy="235.7" rx="26.7" ry="36.5"/>
			<path class="st0" d="M2323.7,348.2c0,0-71.4-34.5-83.8-67.9c0,0-3.9-5.7-10.2,1.2c-6.3,6.9,61.6,65.3,91,76.2
				c0,0-0.5,6.3,14.1,11.4c14.7,5.1,19.8,0.6,19.8,0.6s9.9-6.6,3.4-15.5c-6.4-8.9-14.2-8.7-14.2-8.7S2329.1,341.8,2323.7,348.2z"/>
		</g>
		<path class="st4" d="M2387.6,317.3c1.4,0.5,35.3,3.4,35.3,3.4l12.9-15l-5.3-0.1l-88.7-5.9L2387.6,317.3z"/>
	</g>
	<g>
		<path class="st5" d="M1640,209.6c23,8.6,24.6,27.6,24.6,27.6v40.2c-1,31.5-40.4,39.6-40.4,39.6c3-6.9,2.5-107.4,2.5-107.4H1640z"
			/>
		<path class="st15" d="M1605.8,355c-4.2,8.5,0,120.2,0,120.2s-237.4,96-241.6,91.7c-4.2-4.2,38.2-228.9,38.2-228.9L1605.8,355z"/>
		<polygon class="st16" points="1556.6,358.9 1566.3,531.2 1481.2,531.2 1481.2,282 		"/>
		<path class="st17" d="M1412.7,207.7c-27,90.3,13.1,185.4,88.1,208.5c21,6.4,62.8,9.7,62.8,9.7c46.3-19.3,81.5-104,87.6-143.6
			c5.8-37.4,18.7-130.3,7.4-157.1c-11.3-26.8-46.7-7.2-69.8-10.8C1542.8,107.3,1434.4,135.2,1412.7,207.7z"/>
		<path class="st0" d="M1653.5,263.3c0,0,24.6-152.6-62.3-149.5c0,0-83.1,41.5-87.2,91.4l-24.7,50.2l-75.1,187.9l-31.6,441.6
			c0,0-212,97.5-330.6-97.5c-34.4-56.6,59.3-301,203.5-415.4c73.9-58.7,106-216.2,150.6-291.4c0,0,60.9-75.5,156.1-46.7
			c1.5,0.5,15.3-4.1,16.9-3.8c16.3,3.3,33.4,8.8,51.3,17.2C1620.3,47.4,1724.1,130.5,1653.5,263.3z"/>
		<path class="st0" d="M1581.5,82c0,0,41.5,94.1,83.1,110.7l-13.8-94.8l-16.6-32.5L1581.5,82z"/>
		<path class="st0" d="M1631.7,84.5c0,0,2.5,191.2-161.6,240.8c-182.3,55.1,34.1-190.3,34.1-190.3l83.2-69.9L1631.7,84.5z"/>
		<path class="st18" d="M1561.5,446.1c-1.7,54-37.8,64-77.8,0h-42l-90.3,837.5h344.7l-5.2-675.5l-103.8-162H1561.5z"/>
		<path class="st9" d="M1446.1,443.3c0,0-191,58.1-232.6,182.7c0,0-132.9,269.9-145.3,369.6l269.6,200.6l87,6.8l-190.5-233.3
			l95.5-144.3l-29.1,311.5l-37.4,297.6l249.2,5.5V908.4C1512.6,908.4,1516.7,552.6,1446.1,443.3z"/>
		<path class="st9" d="M1587.1,446.1c0,0,108,8.3,157.8,232.6l62.3,261.6l83.8,193.7l74.7,38.5l-156.5-53.7c0,0-22.8,29.1-39.5,0
			l-37.4-29.1l-3.4,347.4h-81.2L1587.1,446.1z"/>
		<polygon class="st18" points="1507.2,356.9 1558.7,365 1581.1,365 1594.9,356.9 1576.8,388.9 1546.8,388.9 		"/>
		<g>
			<path class="st5" d="M1549,33.9c6,0,11.7,0.4,17.1,0.9c15.1-0.7,30.4,3.9,47.7,9.7c-19.6-11.3-47.1-18.8-79-18.1
				c-123.1,2.7-144.9,98.6-130.9,179l31.5,4.8C1421.3,170.1,1413.6,33.9,1549,33.9z"/>
			<path class="st5" d="M1415.7,198.4c-27,5.3-33.4,45.4-33.4,45.4c-5.2,46.2,11.7,85.3,43.4,85.3c64,0.5,56.4-124.1,6.4-130.7
				C1432,198.4,1419.7,197.6,1415.7,198.4z"/>
			<path class="st5" d="M1614.6,375.5c0,0,25.9-16.9,23.1-46.5l5.2-14.1c0,0,4.3,11.8,5.6,18.5c1.9,9.8-3.9,29.8-26.2,49.6
				c0,0,3.7,5.7-7.7,17.9c-11.4,12.2-18.4,10.6-18.4,10.6s-12.7-1.3-11.1-12.9c1.6-11.7,9.1-15.4,9.1-15.4
				S1606.3,372.2,1614.6,375.5z"/>
			<ellipse class="st0" cx="1418.1" cy="262.1" rx="33.9" ry="46.4"/>
		</g>
	</g>
	<g>
		<polygon class="st12" points="745.6,533.1 791.8,565.8 921.9,937.9 908.8,1061.7 847.1,1072.1 817.5,1066.2 717.9,691.7 		"/>
		<polygon class="st7" points="694.1,470.7 530.3,436.2 460.3,454.8 373.4,498.3 247.1,563.9 221.3,648.4 231.8,816.2 271.8,1030.1 
			258.1,1205.7 806,1111.4 806,809.8 783.6,579 		"/>
		<polygon class="st19" points="457.9,479.9 609.4,731.1 679.4,531.1 661.7,480.7 653.4,473.7 662.5,337.4 505.9,323.7 494.3,428.6 
					"/>
		<path class="st4" d="M619.1,546.9c-126.6,12-140.8-92-140.8-92L489,436l-80.2,50.6l34.9,244.5l-8,668.8
			c110.5,8.2,221.7,2.8,282.2-9.6l14-351.5V740.4l0-152.3l-38-100.4l-38.9-37l-1.5,23C653.4,473.7,679.6,541.2,619.1,546.9z"/>
		<path class="st5" d="M716.5,259.5c23,8.6,24.6,27.6,24.6,27.6v54.2c-1,31.5-40.4,25.6-40.4,25.6c3-6.9,2.5-107.4,2.5-107.4H716.5z
			"/>
		<path class="st3" d="M707.3,145.1c0,0-96.9-19.7-126.7-21.6c-90.7-5.8-108.6,36.8-114,137.7c-3.3,61.9,63.7,100.7,63.7,100.7
			l7.6,37.1c18,10.1,71.1,58.7,71.1,58.7l69.5,9.7l40.9-71.8c0,0,17.8-120.6,17.6-125.8c0,0,8.7-49.5,1.3-82.1
			C732.3,161.6,707.3,145.1,707.3,145.1z"/>
		<path class="st6" d="M743.7,108.2l-61.7-9.3c0,0-76.1-12-95.8-13.3c-87.9-5.6-136.4,78-138,176l25.8,82.9l26.4,32.5l31.9-60
			c13.8-1.4,52.7-5.6,52.7-5.6l7.9-100.6l46.1-38.9l79.1,22.5l21.8,2.2l18.7-16.8l4.6-32.8l-12.2,1.6L743.7,108.2z"/>
		<path class="st3" d="M561.3,330.2c-4.3,24.5-7.8,37.5-28.2,30.3c-11-3.8-24.8-8.1-28.1-41.1c-2.4-24.8,15.2-44.6,36.6-41
			C563,282.1,565.6,305.8,561.3,330.2z"/>
		<polygon class="st7" points="600.6,558.8 561.8,592.1 579.2,632.4 643.9,632.4 658,592.1 618.6,558.8 		"/>
		<polygon class="st7" points="582.8,643.3 644.7,643.3 679.4,1216.4 609.9,1333.1 524,1227.5 		"/>
		<g>
			<path class="st5" d="M651.2,99.7c6,0,11.7,0.4,17.1,0.9c15.1-0.7,32.7,4.8,47.8,3.5c-19.6-11.3-47.1-25.1-79-24.4
				c-123.1,2.7-144.9,98.6-130.9,179l31.5,4.8C523.7,223.5,515.9,99.7,651.2,99.7z"/>
			<path class="st5" d="M618.5,427.9c0,0-50-20.7-62.5-54.2c0,0-3.9-5.7-10.2,1.2c-6.3,6.9,40.2,51.5,69.6,62.5
				c0,0-0.5,6.3,14.1,11.4c14.7,5.1,19.8,0.6,19.8,0.6s9.9-6.6,3.4-15.5c-6.4-8.9-14.2-8.7-14.2-8.7S623.9,421.5,618.5,427.9z"/>
			<path class="st5" d="M518.1,251.8c-27,5.3-33.4,45.4-33.4,45.4l4.3,38.1c1.1,38.4,39,47.2,39,47.2c64,0.5,56.4-124.1,6.4-130.6
				C534.4,251.8,522.1,251,518.1,251.8z"/>
			<ellipse class="st0" cx="520.5" cy="315.4" rx="33.9" ry="46.4"/>
		</g>
		<path class="st4" d="M640.5,401c0,0,12.3,20.1,42.5,20.6c5.5,0.1,11,0,9.7-0.4l14.1-24.7C674.5,398.9,679.5,397.4,640.5,401z"/>
	</g>
	<rect y="1088.7" class="st15" width="4934.5" height="433.4"/>
	<g>
		<polygon class="st3" points="4295.8,803.4 4375.3,1001.1 4499.6,1138.4 4392.8,1216.1 4329.2,1093.2 4304.1,1049.6 		"/>
		<g>
			<polygon class="st20" points="4284.6,1373.8 4034,1276.8 4496.1,1196.3 4750.8,1294.3 			"/>
			<path class="st21" d="M4303.9,1322.6c-0.9,0-33.6,15.3-33.6,15.3l-213.1-77.9l77.2-12l290.7-45.2L4303.9,1322.6z"/>
			<path class="st22" d="M4435.2,1315.8c-0.9,0-129.1,16-129.1,16l-143.9-52.6l367.9-57.2L4435.2,1315.8z"/>
			<path class="st22" d="M4391.9,1238.5c-0.9,0-129.1,16-129.1,16l-40.2-13.7l367.9-57.2L4391.9,1238.5z"/>
			<polygon class="st23" points="4834.9,924.8 4844.1,935.1 4266.2,1349.7 4257,1339.3 4375.3,1001.1 			"/>
			<polygon class="st21" points="4844.1,935.1 4735.4,977.5 4384.5,1011.4 4375.3,1001.1 4834.9,924.8 			"/>
			<polygon class="st23" points="4266.2,1349.7 4057.3,1272.8 4057.3,1260 4270.3,1337.9 			"/>
			<polygon class="st22" points="4244.6,1338.6 4224.3,1330.9 4224.3,1325.1 4244.6,1332.5 			"/>
			<polygon class="st22" points="4218.1,1329 4197.8,1321.3 4197.8,1315.4 4218.1,1322.8 			"/>
			<polygon class="st22" points="4844.1,935.1 4709.4,1283.4 4266.2,1349.7 4384.5,1011.4 			"/>
		</g>
		<g>
			<polygon class="st20" points="4233.5,1274.3 4152.5,1245.2 4114.2,1251.2 4100.8,1235.6 3820.3,1166.9 4121.8,1209.6 
				4180.9,1209.6 			"/>
			<polygon class="st3" points="3857.6,759.9 3869.9,1061.7 4173,1163.7 4144.7,1214.3 3784,1163.4 3747,810.4 			"/>
			<polygon class="st3" points="4304.7,1202.8 4241,1163.4 4173,1163.7 4144.7,1214.3 4233.5,1274.3 4277.6,1280.5 			"/>
		</g>
	</g>
	<g>
		<polygon class="st24" points="3198.1,1355.8 2973.6,1388.6 2923.1,1266.4 3058.2,1247.9 		"/>
		<g>
			<polygon class="st20" points="3392.9,1369 3136.8,1274.2 3195.1,1258.3 2938.9,1136.2 3319.8,1242.3 3598.9,1193.7 
				3859.2,1289.6 			"/>
			<path class="st21" d="M3412.3,1317.9c-0.9,0-33.6,15.3-33.6,15.3l-213.1-77.9l367.9-57.2L3412.3,1317.9z"/>
			<path class="st22" d="M3543.6,1311c-0.9,0-129.1,16-129.1,16l-143.9-52.6l367.9-57.2L3543.6,1311z"/>
			<path class="st22" d="M3500.3,1233.8c-0.9,0-129.1,16-129.1,16L3331,1236l367.9-57.2L3500.3,1233.8z"/>
			<polygon class="st23" points="3943.3,920 3952.5,930.4 3374.6,1344.9 3365.4,1334.6 3483.7,996.3 			"/>
			<polygon class="st21" points="3952.5,930.4 3843.8,972.7 3492.9,1006.6 3483.7,996.3 3943.3,920 			"/>
			<polygon class="st23" points="3374.6,1344.9 3165.7,1268 3165.7,1255.2 3378.7,1333.2 			"/>
			<polygon class="st22" points="3353,1333.8 3332.7,1326.2 3332.7,1320.3 3353,1327.7 			"/>
			<polygon class="st22" points="3326.5,1324.2 3306.2,1316.5 3306.2,1310.6 3326.5,1318.1 			"/>
			<polygon class="st22" points="3952.5,930.4 3817.7,1278.6 3374.6,1344.9 3492.9,1006.6 			"/>
		</g>
		<g>
			<polygon class="st4" points="3235.2,1244.4 3269.7,1258.3 3316.3,1192 3296.9,1180.2 			"/>
			<path class="st8" d="M2973.1,611.2l-107.7,485.7l388,161.4l56.3-76.4l-283.6-151.6l62.5-268.5c0,0,50.3-173.1-87.6-176.5
				C2989.7,584.9,2977.6,596.6,2973.1,611.2z"/>
			<polygon class="st11" points="3378.8,1184.1 3321.8,1185.5 3278.2,1237.7 3279,1259 3306.6,1272.5 3385.5,1272.5 3408.5,1211.2 
							"/>
		</g>
	</g>
	<g>
		<g>
			<polygon class="st14" points="2531.6,1053.6 2490.5,1048.5 2435.7,1053.8 2438.6,1134.4 2509.5,1138.3 2560.4,1138.8 
				2577.4,1106.9 2577.5,1095.5 			"/>
			<polygon class="st25" points="2439.1,1039.2 2416,1035.4 2421.3,1142 2441,1141.8 			"/>
			<path class="st12" d="M2093.3,567.1l-41-56.4l-69.5-7l-46.4,402.5l-7.4,150.3l33.5,77.4c0,0,457.3,13.3,458.9,11
				c1.6-2.4,1.1-111.1,1.1-111.1l-320.6-44.2l26.2-337.9L2093.3,567.1z"/>
		</g>
		<g>
			<polygon class="st20" points="2524.9,1293.1 2268.4,1199 2730.5,1118.4 2991.1,1213.7 			"/>
			<path class="st21" d="M2544.3,1242c-0.9,0-33.6,15.3-33.6,15.3l-213.1-77.9l367.9-57.2L2544.3,1242z"/>
			<path class="st22" d="M2675.6,1235.1c-0.9,0-129.1,16-129.1,16l-143.9-52.6l367.9-57.2L2675.6,1235.1z"/>
			<path class="st22" d="M2632.3,1157.9c-0.9,0-129.1,16-129.1,16l-40.2-13.7l367.9-57.2L2632.3,1157.9z"/>
			<polygon class="st23" points="3075.3,844.1 3084.5,854.5 2506.6,1269 2497.4,1258.7 2615.6,920.4 			"/>
			<polygon class="st21" points="3084.5,854.5 2975.7,896.8 2624.9,930.7 2615.6,920.4 3075.3,844.1 			"/>
			<polygon class="st23" points="2506.6,1269 2297.7,1192.1 2297.7,1179.3 2510.7,1257.3 			"/>
			<polygon class="st22" points="2485,1258 2464.7,1250.3 2464.7,1244.4 2485,1251.8 			"/>
			<polygon class="st22" points="2458.5,1248.3 2438.2,1240.6 2438.2,1234.7 2458.5,1242.2 			"/>
			<polygon class="st22" points="3084.5,854.5 2949.7,1202.7 2506.6,1269 2624.9,930.7 			"/>
		</g>
	</g>
	<g>
		<g>
			<polygon class="st20" points="1663.8,1332.1 1392.1,1236.9 1464.8,1221.3 1437.7,1212.8 1430.1,1216 1245.1,1135.9 
				1532.1,1196.2 1854.2,1156.3 2130.1,1252.6 			"/>
			<path class="st21" d="M1683.2,1280.9c-0.9,0-33.6,15.3-33.6,15.3l-213.1-77.9l367.9-57.2L1683.2,1280.9z"/>
			<path class="st22" d="M1814.5,1274c-0.9,0-129.1,16-129.1,16l-143.9-52.6l367.9-57.2L1814.5,1274z"/>
			<path class="st22" d="M1771.2,1196.8c-0.9,0-129.1,16-129.1,16l-40.2-13.7l367.9-57.2L1771.2,1196.8z"/>
			<polygon class="st23" points="2214.2,883.1 2223.4,893.4 1645.5,1308 1636.3,1297.6 1754.5,959.3 			"/>
			<polygon class="st21" points="2223.4,893.4 2114.7,935.8 1763.8,969.7 1754.5,959.3 2214.2,883.1 			"/>
			<polygon class="st23" points="1645.5,1308 1436.6,1231 1436.6,1218.3 1649.6,1296.2 			"/>
			<polygon class="st22" points="1623.9,1296.9 1603.6,1289.2 1603.6,1283.3 1623.9,1290.8 			"/>
			<polygon class="st22" points="1597.4,1287.2 1577.1,1279.6 1577.1,1273.7 1597.4,1281.1 			"/>
			<polygon class="st22" points="2223.4,893.4 2088.6,1241.6 1645.5,1308 1763.8,969.7 			"/>
		</g>
		<g>
			<polygon class="st8" points="1481.2,1130.3 1436.6,1201.3 1068.2,1090.4 1068.2,1008.1 1143.3,961.6 1238,978 			"/>
			<polygon class="st3" points="1645.9,1219.2 1638.3,1193.4 1542.3,1135.9 1477.4,1137 1443.8,1189.7 1531.1,1243.5 			"/>
		</g>
	</g>
	<g>
		<path class="st4" d="M651.3,1269.1c-3.3-0.1-277.6,64.1-277.6,64.1l-104.4-155.2l171.7-33.1C440.9,1145,654.6,1269.3,651.3,1269.1
			z"/>
		<polygon class="st24" points="449.7,1285.4 225.1,1318.2 189.1,1165.1 324.2,1146.6 		"/>
		<polygon class="st12" points="817.5,1066.2 884.9,1182.6 987.3,1004.6 939.8,961.6 852.2,1002.1 837.3,1040.6 		"/>
		<g>
			<polygon class="st20" points="824.4,1293.1 689.9,1243.6 642.1,1244.4 618.8,1257.3 208.3,1105.3 226.7,1091.5 627.4,1196.2 
				1077.6,1135.7 1290.7,1213.7 			"/>
			<path class="st21" d="M843.8,1242c-0.9,0-33.6,15.3-33.6,15.3l-213.1-77.9l367.9-57.2L843.8,1242z"/>
			<path class="st22" d="M975.1,1235.1c-0.9,0-129.1,16-129.1,16l-143.9-52.6l367.9-57.2L975.1,1235.1z"/>
			<path class="st22" d="M931.8,1157.9c-0.9,0-129.1,16-129.1,16l-40.2-13.7l367.9-57.2L931.8,1157.9z"/>
			<polygon class="st23" points="1374.8,844.1 1384,854.5 806.1,1269 796.9,1258.7 915.1,920.4 			"/>
			<polygon class="st21" points="1384,854.5 1275.3,896.8 924.4,930.7 915.1,920.4 1374.8,844.1 			"/>
			<polygon class="st23" points="806.1,1269 597.2,1192.1 597.2,1179.3 810.2,1257.3 			"/>
			<polygon class="st22" points="784.5,1258 764.2,1250.3 764.2,1244.4 784.5,1251.8 			"/>
			<polygon class="st22" points="758,1248.3 737.7,1240.6 737.7,1234.7 758,1242.2 			"/>
			<polygon class="st22" points="1384,854.5 1249.2,1202.7 806.1,1269 924.4,930.7 			"/>
		</g>
		<g>
			<polygon class="st3" points="686.5,1135.6 708.4,1139.6 746.1,1130.3 779.7,1136.5 827.6,1170.8 807.5,1222.1 764.2,1221.2 
				707.4,1226.4 665.6,1223.1 609.9,1198.2 			"/>
			<polygon class="st4" points="589.3,1220.9 619.7,1226.4 694.8,1126.8 670.3,1110.1 			"/>
			<polygon class="st12" points="215.2,652.1 189.1,1047.7 210.9,1102.9 597.4,1230.8 685.4,1107.8 365.4,977.5 396.7,680.8 
				383.9,580.9 333.9,518.8 247.1,565.2 			"/>
		</g>
	</g>
</g>
<g id="Layer_1">
</g>
</svg>
