<svg width="449" height="256" viewBox="0 0 449 256" fill="none" xmlns="http://www.w3.org/2000/svg">
<g clip-path="url(#clip0)">
<path d="M347.32 1.73453H50.6113V230.732H347.32V1.73453Z" fill="white"/>
<path d="M348.325 0.728271H49.6008L49.6088 231.728H348.318L348.325 0.728271ZM346.321 229.732H51.6094V23.7245H346.321V229.732Z" fill="#0055DC"/>
<path d="M60.2665 15.8681C62.2849 15.8681 63.9212 14.2372 63.9212 12.2254C63.9212 10.2136 62.2849 8.58267 60.2665 8.58267C58.2481 8.58267 56.6118 10.2136 56.6118 12.2254C56.6118 14.2372 58.2481 15.8681 60.2665 15.8681Z" fill="white"/>
<path d="M72.0873 15.8681C74.1057 15.8681 75.742 14.2372 75.742 12.2254C75.742 10.2136 74.1057 8.58267 72.0873 8.58267C70.0689 8.58267 68.4326 10.2136 68.4326 12.2254C68.4326 14.2372 70.0689 15.8681 72.0873 15.8681Z" fill="white"/>
<path d="M83.9081 15.8681C85.9265 15.8681 87.5628 14.2372 87.5628 12.2254C87.5628 10.2136 85.9265 8.58267 83.9081 8.58267C81.8897 8.58267 80.2534 10.2136 80.2534 12.2254C80.2534 14.2372 81.8897 15.8681 83.9081 15.8681Z" fill="white"/>
<path d="M327.767 40.3617H69.9363V215.494H327.767V40.3617Z" fill="#E2F5FA"/>
<path d="M269.299 160.488H128.404C127.299 160.488 126.404 161.384 126.404 162.488V195.008C126.404 196.113 127.299 197.008 128.404 197.008H269.299C270.404 197.008 271.299 196.113 271.299 195.008V162.488C271.299 161.384 270.404 160.488 269.299 160.488Z" fill="white"/>
<path fill-rule="evenodd" clip-rule="evenodd" d="M125.654 162.488C125.654 160.969 126.885 159.738 128.404 159.738H269.299C270.818 159.738 272.049 160.969 272.049 162.488V195.008C272.049 196.527 270.818 197.758 269.299 197.758H128.404C126.885 197.758 125.654 196.527 125.654 195.008V162.488ZM128.404 161.238C127.714 161.238 127.154 161.798 127.154 162.488V195.008C127.154 195.699 127.714 196.258 128.404 196.258H269.299C269.989 196.258 270.549 195.699 270.549 195.008V162.488C270.549 161.798 269.989 161.238 269.299 161.238H128.404Z" fill="#0055DC"/>
<path d="M194.504 180.025L189.828 182.886L188.963 181.363L193.792 178.749L188.963 176.136L189.828 174.612L194.504 177.472L194.376 171.999H196.134L196.005 177.472L200.681 174.611L201.546 176.135L196.717 178.748L201.546 181.362L200.681 182.886L196.005 180.025L196.133 185.499H194.376L194.504 180.025Z" fill="#F6821F"/>
<path d="M210.177 180.025L205.501 182.886L204.634 181.363L209.463 178.749L204.634 176.136L205.501 174.612L210.177 177.471L210.048 171.998H211.806L211.677 177.471L216.353 174.611L217.22 176.135L212.391 178.748L217.22 181.362L216.353 182.886L211.677 180.027L211.806 185.5H210.048L210.177 180.025Z" fill="#F6821F"/>
<path d="M225.85 180.025L221.174 182.886L220.306 181.363L225.135 178.749L220.306 176.136L221.174 174.612L225.85 177.472L225.721 171.999H227.479L227.35 177.472L232.025 174.612L232.893 176.136L228.064 178.749L232.893 181.363L232.025 182.886L227.35 180.025L227.479 185.499H225.721L225.85 180.025Z" fill="#F6821F"/>
<path d="M241.522 180.025L236.846 182.886L235.978 181.363L240.807 178.749L235.978 176.136L236.846 174.612L241.522 177.472L241.393 171.999H243.153L243.024 177.472L247.699 174.612L248.568 176.136L243.738 178.749L248.568 181.363L247.698 182.886L243.022 180.027L243.151 185.5H241.393L241.522 180.025Z" fill="#F6821F"/>
<g clip-path="url(#clip1)">
<path d="M175.734 177.348H160.469C160.248 175.749 159.427 174.293 158.174 173.275C156.921 172.257 155.328 171.753 153.717 171.864C152.106 171.975 150.597 172.693 149.496 173.874C148.394 175.054 147.781 176.609 147.781 178.223C147.781 179.838 148.394 181.392 149.496 182.573C150.597 183.753 152.106 184.471 153.717 184.583C155.328 184.694 156.921 184.189 158.174 183.171C159.427 182.153 160.248 180.698 160.469 179.098H168.393V183.01H170.143V179.098H172.282V184.786H174.032V179.098H175.734V177.348ZM154.156 182.848C153.241 182.849 152.347 182.578 151.586 182.07C150.825 181.563 150.231 180.841 149.881 179.996C149.53 179.151 149.438 178.221 149.616 177.324C149.794 176.426 150.234 175.602 150.88 174.955C151.527 174.308 152.351 173.867 153.248 173.688C154.145 173.509 155.075 173.601 155.921 173.95C156.766 174.3 157.488 174.893 157.997 175.654C158.505 176.414 158.776 177.308 158.776 178.223C158.775 179.449 158.288 180.624 157.422 181.49C156.556 182.357 155.382 182.845 154.156 182.848Z" fill="#0055DC"/>
</g>
<path d="M269.299 109.668H128.404C127.299 109.668 126.404 110.563 126.404 111.668V144.188C126.404 145.293 127.299 146.188 128.404 146.188H269.299C270.404 146.188 271.299 145.293 271.299 144.188V111.668C271.299 110.563 270.404 109.668 269.299 109.668Z" fill="white"/>
<path fill-rule="evenodd" clip-rule="evenodd" d="M125.654 111.668C125.654 110.149 126.885 108.918 128.404 108.918H269.299C270.818 108.918 272.049 110.149 272.049 111.668V144.188C272.049 145.707 270.818 146.938 269.299 146.938H128.404C126.885 146.938 125.654 145.707 125.654 144.188V111.668ZM128.404 110.418C127.714 110.418 127.154 110.977 127.154 111.668V144.188C127.154 144.878 127.714 145.438 128.404 145.438H269.299C269.989 145.438 270.549 144.878 270.549 144.188V111.668C270.549 110.977 269.989 110.418 269.299 110.418H128.404Z" fill="#0055DC"/>
<path d="M194.504 129.205L189.828 132.066L188.963 130.543L193.792 127.929L188.963 125.315L189.828 123.792L194.504 126.652L194.376 121.179H196.134L196.005 126.652L200.681 123.791L201.546 125.314L196.717 127.928L201.546 130.541L200.681 132.066L196.005 129.205L196.133 134.678H194.376L194.504 129.205Z" fill="#F6821F"/>
<path d="M210.177 129.205L205.501 132.066L204.634 130.543L209.463 127.929L204.634 125.315L205.501 123.792L210.177 126.651L210.048 121.178H211.806L211.677 126.651L216.353 123.791L217.22 125.314L212.391 127.928L217.22 130.541L216.353 132.066L211.677 129.206L211.806 134.679H210.048L210.177 129.205Z" fill="#F6821F"/>
<path d="M225.85 129.205L221.174 132.066L220.306 130.543L225.135 127.929L220.306 125.315L221.174 123.792L225.85 126.652L225.721 121.179H227.479L227.35 126.652L232.025 123.792L232.893 125.315L228.064 127.929L232.893 130.543L232.025 132.066L227.35 129.205L227.479 134.678H225.721L225.85 129.205Z" fill="#F6821F"/>
<path d="M241.522 129.205L236.846 132.066L235.978 130.543L240.807 127.929L235.978 125.315L236.846 123.792L241.522 126.652L241.393 121.179H243.153L243.024 126.652L247.699 123.792L248.568 125.315L243.738 127.929L248.568 130.543L247.698 132.066L243.022 129.206L243.151 134.679H241.393L241.522 129.205Z" fill="#F6821F"/>
<path d="M172.304 120.092H151.304L150.429 120.967V134.889L151.304 135.764H172.304L173.179 134.889V120.967L172.304 120.092ZM161.804 129.074L153.618 121.842H169.994L161.804 129.074ZM157.866 127.928L152.179 132.95V122.888L157.866 127.928ZM159.179 129.096L161.218 130.894H162.377L164.407 129.096L169.994 134.014H153.618L159.179 129.096ZM165.741 127.928L171.429 122.905V132.968L165.741 127.928Z" fill="#0055DC"/>
<path d="M269.299 58.8477H128.404C127.299 58.8477 126.404 59.7431 126.404 60.8477V93.3679C126.404 94.4724 127.299 95.3679 128.404 95.3679H269.299C270.404 95.3679 271.299 94.4724 271.299 93.3679V60.8477C271.299 59.7431 270.404 58.8477 269.299 58.8477Z" fill="white"/>
<path fill-rule="evenodd" clip-rule="evenodd" d="M125.654 60.8477C125.654 59.3289 126.885 58.0977 128.404 58.0977H269.299C270.818 58.0977 272.049 59.3289 272.049 60.8477V93.3679C272.049 94.8866 270.818 96.1179 269.299 96.1179H128.404C126.885 96.1179 125.654 94.8866 125.654 93.3679V60.8477ZM128.404 59.5977C127.714 59.5977 127.154 60.1574 127.154 60.8477V93.3679C127.154 94.0582 127.714 94.6179 128.404 94.6179H269.299C269.989 94.6179 270.549 94.0582 270.549 93.3679V60.8477C270.549 60.1574 269.989 59.5977 269.299 59.5977H128.404Z" fill="#0055DC"/>
<path d="M194.504 78.385L189.828 81.2458L188.963 79.7224L193.792 77.1089L188.963 74.4954L189.828 72.972L194.504 75.8317L194.376 70.3585H196.134L196.005 75.8317L200.681 72.9709L201.546 74.4943L196.717 77.1078L201.546 79.7213L200.681 81.2458L196.005 78.385L196.133 83.8582H194.376L194.504 78.385Z" fill="#F6821F"/>
<path d="M210.177 78.385L205.501 81.2458L204.634 79.7224L209.463 77.1089L204.634 74.4953L205.501 72.972L210.177 75.8306L210.048 70.3574H211.806L211.677 75.8306L216.353 72.9709L217.22 74.4943L212.391 77.1078L217.22 79.7213L216.353 81.2458L211.677 78.3861L211.806 83.8593H210.048L210.177 78.385Z" fill="#F6821F"/>
<path d="M225.85 78.385L221.174 81.2458L220.306 79.7224L225.135 77.1089L220.306 74.4954L221.174 72.972L225.85 75.8317L225.721 70.3585H227.479L227.35 75.8317L232.025 72.972L232.893 74.4954L228.064 77.1089L232.893 79.7224L232.025 81.2458L227.35 78.385L227.479 83.8582H225.721L225.85 78.385Z" fill="#F6821F"/>
<path d="M241.522 78.385L236.846 81.2458L235.978 79.7224L240.807 77.1089L235.978 74.4954L236.846 72.972L241.522 75.8317L241.393 70.3585H243.153L243.024 75.8317L247.699 72.972L248.568 74.4954L243.738 77.1089L248.568 79.7224L247.698 81.2458L243.022 78.3861L243.151 83.8593H241.393L241.522 78.385Z" fill="#F6821F"/>
<g clip-path="url(#clip2)">
<path d="M163.904 78.3152H159.669C157.214 78.3176 154.86 79.2935 153.124 81.029C151.388 82.7645 150.41 85.1178 150.407 87.5727L151.282 88.4477H172.282L173.157 87.5727C173.154 85.1193 172.178 82.7673 170.443 81.0321C168.709 79.2968 166.357 78.3199 163.904 78.3152ZM152.209 86.6977C152.427 84.8713 153.306 83.1878 154.68 81.9656C156.055 80.7434 157.83 80.0674 159.669 80.0652H163.904C165.739 80.0727 167.509 80.7512 168.879 81.9728C170.249 83.1945 171.125 84.875 171.341 86.6977H152.209Z" fill="#0055DC"/>
<path d="M161.804 77.1078C163.015 77.1078 164.199 76.7486 165.207 76.0755C166.214 75.4025 166.999 74.4459 167.462 73.3267C167.926 72.2075 168.047 70.976 167.811 69.7879C167.575 68.5997 166.991 67.5084 166.135 66.6518C165.278 65.7952 164.187 65.2118 162.999 64.9755C161.811 64.7391 160.579 64.8604 159.46 65.324C158.341 65.7876 157.384 66.5727 156.711 67.5799C156.038 68.5872 155.679 69.7714 155.679 70.9828C155.679 72.6072 156.324 74.1652 157.473 75.3138C158.621 76.4625 160.179 77.1078 161.804 77.1078ZM161.804 66.6078C162.669 66.6078 163.515 66.8644 164.234 67.3451C164.954 67.8258 165.515 68.5091 165.846 69.3086C166.177 70.108 166.263 70.9876 166.095 71.8363C165.926 72.685 165.509 73.4645 164.897 74.0764C164.285 74.6882 163.506 75.1049 162.657 75.2737C161.809 75.4425 160.929 75.3559 160.129 75.0248C159.33 74.6936 158.647 74.1329 158.166 73.4134C157.685 72.6939 157.429 71.8481 157.429 70.9828C157.429 69.8225 157.89 68.7097 158.71 67.8892C159.531 67.0687 160.643 66.6078 161.804 66.6078Z" fill="#0055DC"/>
</g>
<path d="M347.405 253.636C376.12 253.636 399.399 230.357 399.399 201.641C399.399 172.926 376.12 149.647 347.405 149.647C318.689 149.647 295.41 172.926 295.41 201.641C295.41 230.357 318.689 253.636 347.405 253.636Z" fill="white"/>
<path fill-rule="evenodd" clip-rule="evenodd" d="M347.405 150.647C319.241 150.647 296.41 173.478 296.41 201.641C296.41 229.805 319.241 252.636 347.405 252.636C375.568 252.636 398.399 229.805 398.399 201.641C398.399 173.478 375.568 150.647 347.405 150.647ZM294.41 201.641C294.41 172.373 318.137 148.647 347.405 148.647C376.673 148.647 400.399 172.373 400.399 201.641C400.399 230.91 376.673 254.636 347.405 254.636C318.137 254.636 294.41 230.91 294.41 201.641Z" fill="#FF6633"/>
<path fill-rule="evenodd" clip-rule="evenodd" d="M347.405 161.278C343.39 161.278 339.539 162.873 336.7 165.712C333.861 168.552 332.266 172.402 332.266 176.417V202.425H362.537L362.544 176.417C362.544 176.408 362.544 176.4 362.544 176.391C362.537 172.385 360.943 168.545 358.11 165.712C355.271 162.873 351.42 161.278 347.405 161.278ZM363.544 176.39C363.544 176.399 363.544 176.408 363.544 176.417L363.537 203.425H331.266V176.417C331.266 172.137 332.966 168.032 335.993 165.005C339.02 161.979 343.125 160.278 347.405 160.278C351.685 160.278 355.79 161.979 358.817 165.005C361.817 168.005 363.514 172.064 363.544 176.303L363.544 176.39Z" fill="#FF6633"/>
<path fill-rule="evenodd" clip-rule="evenodd" d="M347.405 164.338C344.444 164.337 341.587 165.428 339.382 167.404C337.176 169.379 335.778 172.098 335.454 175.041C335.369 175.827 335.326 176.618 335.326 177.408V199.365H359.478L359.484 177.393C359.484 177.391 359.484 177.389 359.484 177.386C359.484 177.382 359.484 177.379 359.484 177.375C359.483 176.591 359.44 175.808 359.355 175.028C359.027 172.088 357.627 169.373 355.422 167.4C353.218 165.428 350.363 164.338 347.405 164.338ZM347.405 163.338C344.198 163.337 341.103 164.519 338.715 166.659C336.326 168.798 334.811 171.745 334.46 174.932C334.371 175.754 334.326 176.582 334.326 177.408V200.365H360.478L360.484 177.394C360.484 177.391 360.484 177.389 360.484 177.386C360.484 177.382 360.484 177.378 360.484 177.375L360.484 177.354C360.482 176.541 360.437 175.728 360.349 174.919L360.349 174.918C359.994 171.733 358.477 168.791 356.089 166.655C353.701 164.519 350.609 163.338 347.405 163.338Z" fill="#F6821F"/>
<path fill-rule="evenodd" clip-rule="evenodd" d="M347.405 167.39C345.209 167.389 343.081 168.277 341.432 169.899C339.781 171.521 338.727 173.764 338.482 176.199C338.418 176.851 338.386 177.506 338.386 178.161V196.313H356.42L356.424 178.149C356.424 178.147 356.424 178.145 356.424 178.143C356.424 178.14 356.424 178.136 356.424 178.133C356.424 177.484 356.391 176.835 356.327 176.189C356.327 176.188 356.327 176.188 356.327 176.188L356.825 176.138L356.327 176.189C356.327 176.189 356.327 176.189 356.327 176.189C356.08 173.755 355.024 171.516 353.374 169.896C351.725 168.277 349.599 167.39 347.405 167.39L347.405 166.89L347.405 166.39C349.874 166.39 352.248 167.389 354.075 169.182C355.9 170.975 357.052 173.435 357.322 176.088L357.322 176.089C357.389 176.762 357.423 177.439 357.424 178.116L357.424 178.133C357.424 178.136 357.424 178.139 357.424 178.143C357.424 178.145 357.424 178.147 357.424 178.149L357.42 197.313H337.386V178.161C337.386 177.473 337.42 176.785 337.487 176.101C337.754 173.445 338.904 170.981 340.731 169.186C342.558 167.389 344.934 166.389 347.405 166.39M347.405 166.89L347.405 167.39L347.405 166.89Z" fill="#FBAD41"/>
<path d="M367.271 190.601H327.538C326.07 190.601 324.88 191.792 324.88 193.26V232.992C324.88 234.461 326.07 235.651 327.538 235.651H367.271C368.739 235.651 369.93 234.461 369.93 232.992V193.26C369.93 191.792 368.739 190.601 367.271 190.601Z" fill="#C5EBF5"/>
<path fill-rule="evenodd" clip-rule="evenodd" d="M327.538 191.101C326.346 191.101 325.38 192.068 325.38 193.26V232.992C325.38 234.185 326.346 235.151 327.538 235.151H367.271C368.463 235.151 369.43 234.185 369.43 232.992V193.26C369.43 192.068 368.463 191.101 367.271 191.101H327.538ZM324.38 193.26C324.38 191.516 325.794 190.101 327.538 190.101H367.271C369.015 190.101 370.43 191.516 370.43 193.26V232.992C370.43 234.737 369.015 236.151 367.271 236.151H327.538C325.794 236.151 324.38 234.737 324.38 232.992V193.26Z" fill="#0055DC"/>
<path d="M365.857 231.579V194.674H328.952V231.579H365.857Z" fill="white"/>
<path fill-rule="evenodd" clip-rule="evenodd" d="M347.565 204.694C348.847 204.691 350.088 205.142 351.069 205.967C352.05 206.792 352.708 207.937 352.925 209.201C353.143 210.464 352.906 211.764 352.256 212.87C351.652 213.898 350.728 214.696 349.628 215.145V220.944H345.502V215.145C344.403 214.696 343.478 213.898 342.874 212.87C342.225 211.764 341.988 210.465 342.205 209.201C342.422 207.938 343.08 206.792 344.061 205.967C345.042 205.142 346.283 204.691 347.565 204.694ZM350.586 206.541C349.741 205.83 348.671 205.441 347.566 205.444L347.564 205.444C346.459 205.441 345.389 205.83 344.543 206.541C343.698 207.252 343.131 208.24 342.944 209.328C342.757 210.417 342.961 211.537 343.521 212.49C344.08 213.442 344.959 214.166 346.001 214.533L346.252 214.621V220.194H348.878V214.621L349.129 214.533C350.171 214.166 351.05 213.442 351.61 212.49C352.169 211.537 352.374 210.417 352.186 209.328C351.999 208.239 351.432 207.252 350.586 206.541Z" fill="#0055DC"/>
<path d="M347.565 213.437C349.418 213.437 350.919 211.935 350.919 210.082C350.919 208.23 349.418 206.728 347.565 206.728C345.712 206.728 344.21 208.23 344.21 210.082C344.21 211.935 345.712 213.437 347.565 213.437Z" fill="#C5EBF5"/>
<path d="M347.565 211.528C348.363 211.528 349.01 210.881 349.01 210.082C349.01 209.284 348.363 208.637 347.565 208.637C346.766 208.637 346.119 209.284 346.119 210.082C346.119 210.881 346.766 211.528 347.565 211.528Z" stroke="#0055DC" stroke-width="0.75" stroke-miterlimit="10"/>
</g>
<defs>
<clipPath id="clip0">
<rect width="449" height="255" fill="white" transform="translate(0 0.728271)"/>
</clipPath>
<clipPath id="clip1">
<rect width="28" height="28" fill="white" transform="translate(147.782 164.748)"/>
</clipPath>
<clipPath id="clip2">
<rect width="28" height="28" fill="white" transform="translate(147.782 63.1078)"/>
</clipPath>
</defs>
</svg>
